<svg width="408" height="382" viewBox="0 0 408 382" fill="none" xmlns="http://www.w3.org/2000/svg">
<path d="M85.7594 199.454C86.1809 199.161 86.4961 198.846 86.6958 198.518Z" fill="white"/>
<path d="M61.6923 188.218H68.1706C68.2314 188.219 68.2907 188.198 68.3393 188.159C68.3879 188.119 68.4231 188.064 68.4392 188L70.1566 181.262L71.6671 187.572C71.6831 187.638 71.7186 187.695 71.7682 187.737C71.8177 187.778 71.8786 187.801 71.9413 187.801V187.801L80.8084 187.56C80.8449 187.559 80.8809 187.551 80.9142 187.535C80.9476 187.519 80.9776 187.496 81.0026 187.467C81.0277 187.438 81.0471 187.405 81.0599 187.368C81.0726 187.331 81.0784 187.292 81.0769 187.252C81.0755 187.173 81.0453 187.098 80.993 187.043C80.9407 186.988 80.8704 186.957 80.7972 186.957L72.1539 187.192L70.4364 180.013C70.4213 179.949 70.3866 179.892 70.3379 179.852C70.2892 179.811 70.2293 179.789 70.1678 179.79V179.79C70.1063 179.789 70.0464 179.811 69.9977 179.852C69.949 179.892 69.9144 179.949 69.8993 180.013L67.958 187.614H61.6923C61.6181 187.614 61.547 187.646 61.4945 187.703C61.4421 187.759 61.4126 187.836 61.4126 187.916C61.4126 187.956 61.4198 187.995 61.4339 188.031C61.4479 188.068 61.4686 188.101 61.4945 188.129C61.5205 188.157 61.5513 188.18 61.5853 188.195C61.6192 188.21 61.6556 188.218 61.6923 188.218Z" fill="white"/>
<path d="M56.7306 69.6504H58.3403V25.5336C58.3403 18.7617 61.0292 12.2671 65.8155 7.47863C70.6019 2.69015 77.0935 8.54485e-06 83.8624 0H177.288C180.639 -8.46181e-06 183.958 0.660429 187.055 1.9436C190.151 3.22678 192.965 5.10757 195.335 7.47858C197.705 9.84958 199.585 12.6644 200.867 15.7623C202.15 18.8601 202.81 22.1804 202.81 25.5335V267.562C202.81 270.915 202.15 274.235 200.867 277.333C199.585 280.431 197.705 283.246 195.335 285.617C192.965 287.988 190.151 289.869 187.055 291.152C183.958 292.435 180.64 293.095 177.288 293.095H83.8625C77.0937 293.095 70.602 290.405 65.8156 285.617C61.0293 280.828 58.3404 274.334 58.3403 267.562V101.053H56.7306L56.7306 69.6504Z" fill="#2F2E41"/>
<path d="M82.4861 6.55469H94.7713C94.2063 7.93112 93.9907 9.4245 94.1433 10.9033C94.2959 12.382 94.8122 13.8008 95.6466 15.0346C96.481 16.2684 97.6079 17.2794 98.9281 17.9784C100.248 18.6774 101.721 19.0431 103.217 19.0432H157.135C158.631 19.0431 160.103 18.6775 161.424 17.9784C162.744 17.2794 163.871 16.2684 164.705 15.0346C165.54 13.8008 166.056 12.382 166.208 10.9033C166.361 9.42451 166.145 7.93112 165.58 6.55469H177.055C182.147 6.55468 187.031 8.56491 190.632 12.1431C194.232 15.7214 196.255 20.5745 196.255 25.6349V267.46C196.255 269.966 195.759 272.447 194.794 274.762C193.829 277.077 192.415 279.18 190.632 280.952C188.849 282.724 186.732 284.129 184.403 285.088C182.073 286.047 179.576 286.54 177.055 286.54H82.4861C79.9646 286.54 77.4679 286.047 75.1383 285.088C72.8088 284.129 70.6922 282.724 68.9093 280.952C67.1264 279.18 65.7121 277.077 64.7471 274.762C63.7822 272.447 63.2856 269.966 63.2856 267.46V267.46V25.6349C63.2856 23.1292 63.7822 20.6481 64.7471 18.3332C65.7121 16.0183 67.1264 13.9149 68.9093 12.1431C70.6922 10.3714 72.8089 8.96594 75.1384 8.00707C77.4679 7.04821 79.9646 6.55469 82.4861 6.55469V6.55469Z" fill="white"/>
<path d="M82.4861 6.55469H94.7713C94.2063 7.93112 93.9907 9.4245 94.1433 10.9033C94.2959 12.382 94.8122 13.8008 95.6466 15.0346C96.481 16.2684 97.6079 17.2794 98.9281 17.9784C100.248 18.6774 101.721 19.0431 103.217 19.0432H157.135C158.631 19.0431 160.103 18.6775 161.424 17.9784C162.744 17.2794 163.871 16.2684 164.705 15.0346C165.54 13.8008 166.056 12.382 166.208 10.9033C166.361 9.42451 166.145 7.93112 165.58 6.55469H177.055C182.147 6.55468 187.031 8.56491 190.632 12.1431C194.232 15.7214 196.255 20.5745 196.255 25.6349V267.46C196.255 269.966 195.759 272.447 194.794 274.762C193.829 277.077 192.415 279.18 190.632 280.952C188.849 282.724 186.732 284.129 184.403 285.088C182.073 286.047 179.576 286.54 177.055 286.54H82.4861C79.9646 286.54 77.4679 286.047 75.1383 285.088C72.8088 284.129 70.6922 282.724 68.9093 280.952C67.1264 279.18 65.7121 277.077 64.7471 274.762C63.7822 272.447 63.2856 269.966 63.2856 267.46V267.46V25.6349C63.2856 23.1292 63.7822 20.6481 64.7471 18.3332C65.7121 16.0183 67.1264 13.9149 68.9093 12.1431C70.6922 10.3714 72.8089 8.96594 75.1384 8.00707C77.4679 7.04821 79.9646 6.55469 82.4861 6.55469V6.55469Z" fill="#F4F4F3"/>
<path d="M102.657 94.4707C102.657 106.434 113.235 104.625 126.283 104.625C139.332 104.625 149.91 106.434 149.91 94.4707C149.91 82.5071 144.743 61.3008 126.283 61.3008C107.188 61.3008 102.657 82.5071 102.657 94.4707Z" fill="#2F2E41"/>
<path d="M113.355 93.679C109.459 86.5572 112.078 77.6278 119.204 73.7346C126.331 69.8415 135.266 72.4589 139.161 79.5807C143.057 86.7025 140.438 95.6318 133.312 99.525C126.185 103.418 117.25 100.801 113.355 93.679Z" fill="#FFB8B8"/>
<path d="M144.802 83.0118H138.49L135.705 75.3491L135.148 83.0118H132.132L130.507 78.5419L130.182 83.0118H107.766C107.766 78.6086 109.546 74.3857 112.714 71.2721C115.882 68.1586 120.179 66.4094 124.659 66.4094H127.908C132.389 66.4094 136.686 68.1586 139.854 71.2721C143.022 74.3857 144.802 78.6086 144.802 83.0118Z" fill="#2F2E41"/>
<path d="M170.025 78.5416C169.143 78.5416 168.428 77.8269 168.428 76.9453C168.428 76.0636 169.143 75.3489 170.025 75.3489C170.906 75.3489 171.621 76.0636 171.621 76.9453C171.621 77.8269 170.906 78.5416 170.025 78.5416Z" fill="#FF949C"/>
<path d="M89.2478 96.4213C88.5425 96.4213 87.9707 95.7066 87.9707 94.8249C87.9707 93.9432 88.5425 93.2285 89.2478 93.2285C89.9531 93.2285 90.5249 93.9432 90.5249 94.8249C90.5249 95.7066 89.9531 96.4213 89.2478 96.4213Z" fill="#FF949C"/>
<path d="M171.834 43.989H161.404V40.8672H173.324C173.719 40.8672 174.098 41.0316 174.377 41.3244C174.656 41.6171 174.813 42.0141 174.813 42.4281V54.9153H171.834V43.989Z" fill="#FF949C"/>
<path d="M86.2684 40.8672H98.188V43.989H87.7583V54.9153H84.7784V42.4281C84.7784 42.0141 84.9354 41.6171 85.2148 41.3244C85.4942 41.0316 85.8732 40.8672 86.2684 40.8672V40.8672Z" fill="#FF949C"/>
<path d="M171.834 117.493H174.814V129.413C174.814 129.808 174.657 130.187 174.378 130.467C174.098 130.746 173.719 130.903 173.324 130.903H161.404V127.923H171.834V117.493Z" fill="#FF949C"/>
<path d="M87.7583 127.923H98.188V130.903H86.2684C85.8732 130.903 85.4942 130.746 85.2148 130.467C84.9354 130.187 84.7784 129.808 84.7784 129.413V117.493H87.7583V127.923Z" fill="#FF949C"/>
<path d="M174.814 84.2886H171.621V87.4813H174.814V84.2886Z" fill="#FF949C"/>
<path d="M87.9707 84.2886H84.7779V87.4813H87.9707V84.2886Z" fill="#FF949C"/>
<path d="M93.7178 78.5417H84.778V81.7345H93.7178V78.5417Z" fill="#FF949C"/>
<path d="M93.7178 72.7949H90.525V75.3491H93.7178V72.7949Z" fill="#FF949C"/>
<path d="M87.9707 72.7949H84.7779V75.3491H87.9707V72.7949Z" fill="#FF949C"/>
<path d="M174.814 90.6743H165.874V93.2285H174.814V90.6743Z" fill="#FF949C"/>
<path d="M174.814 96.4214H171.621V99.6141H174.814V96.4214Z" fill="#FF949C"/>
<path d="M168.429 96.4214H165.875V99.6141H168.429V96.4214Z" fill="#FF949C"/>
<path d="M168.429 84.2886H165.875V87.4813H168.429V84.2886Z" fill="#FF949C"/>
<path d="M93.7178 84.2886H90.525V87.4813H93.7178V84.2886Z" fill="#FF949C"/>
<g clip-path="url(#clip0)">
<path d="M119.622 139.862C120.203 139.862 120.674 140.324 120.674 140.894C120.674 144.105 123.334 146.716 126.603 146.716C129.873 146.716 132.533 144.105 132.533 140.894C132.533 140.324 133.004 139.862 133.584 139.862C134.165 139.862 134.636 140.324 134.636 140.894C134.636 145.243 131.032 148.781 126.603 148.781C122.174 148.781 118.571 145.243 118.571 140.894C118.571 140.324 119.042 139.862 119.622 139.862Z" fill="#E63946"/>
<path d="M126.603 131.328C128.773 131.328 130.538 133.061 130.538 135.19V141.14C130.538 143.27 128.773 145.003 126.603 145.003C124.434 145.003 122.669 143.27 122.669 141.14V135.19C122.669 133.061 124.434 131.328 126.603 131.328ZM124.772 141.14C124.772 142.131 125.594 142.938 126.603 142.938C127.613 142.938 128.435 142.131 128.435 141.14V135.19C128.435 134.199 127.613 133.393 126.603 133.393C125.594 133.393 124.772 134.199 124.772 135.19V141.14Z" fill="#E63946"/>
<path d="M126.603 146.716C127.184 146.716 127.655 147.178 127.655 147.748V150.943C127.655 151.513 127.184 151.975 126.603 151.975C126.023 151.975 125.552 151.513 125.552 150.943V147.748C125.552 147.178 126.023 146.716 126.603 146.716Z" fill="#E63946"/>
<path d="M119.88 129.778C121.676 128.015 124.064 127.044 126.603 127.044C129.143 127.044 131.53 128.015 133.326 129.778C133.736 130.181 133.736 130.835 133.326 131.238C132.915 131.641 132.249 131.641 131.839 131.238C130.44 129.865 128.581 129.109 126.603 129.109C124.625 129.109 122.766 129.865 121.367 131.238C121.162 131.44 120.893 131.54 120.624 131.54C120.355 131.54 120.086 131.44 119.88 131.238C119.47 130.835 119.47 130.181 119.88 129.778Z" fill="#E63946"/>
<path d="M116.339 126.301C121.999 120.744 131.208 120.744 136.868 126.301C137.278 126.704 137.278 127.358 136.868 127.761C136.457 128.164 135.791 128.164 135.381 127.761C130.541 123.009 122.666 123.009 117.826 127.761C117.621 127.962 117.352 128.063 117.082 128.063C116.813 128.063 116.544 127.962 116.339 127.761C115.928 127.358 115.928 126.704 116.339 126.301Z" fill="#E63946"/>
<path d="M113.002 123.025C116.635 119.458 121.466 117.493 126.604 117.493C131.741 117.493 136.572 119.458 140.205 123.025C140.615 123.428 140.615 124.082 140.205 124.485C139.794 124.888 139.128 124.888 138.718 124.485C132.038 117.926 121.169 117.926 114.489 124.485C114.284 124.686 114.015 124.787 113.746 124.787C113.477 124.787 113.208 124.686 113.002 124.485C112.592 124.082 112.592 123.428 113.002 123.025Z" fill="#E63946"/>
</g>
<path d="M110.162 234.149C111.315 237.219 113.058 239.888 115.344 242.081C117.946 244.578 121.354 246.562 125.472 247.977C125.607 248.023 125.748 248.061 125.889 248.089C126.076 248.126 126.267 248.145 126.456 248.148H126.493C126.694 248.148 126.896 248.128 127.097 248.089C127.238 248.061 127.377 248.023 127.512 247.978C131.635 246.565 135.046 244.582 137.651 242.085C139.938 239.892 141.681 237.225 142.832 234.155C144.925 228.574 144.806 222.426 144.71 217.485L144.708 217.409C144.689 217.001 144.677 216.573 144.67 216.099C144.635 213.776 142.755 211.854 140.39 211.724C135.459 211.454 131.645 209.874 128.386 206.752L128.357 206.727C127.816 206.239 127.134 206 126.456 206.01C125.801 206.018 125.15 206.257 124.628 206.727L124.6 206.752C121.34 209.874 117.526 211.454 112.595 211.724C110.23 211.854 108.35 213.776 108.315 216.099C108.308 216.576 108.296 217.004 108.277 217.409L108.276 217.441C108.18 222.391 108.062 228.552 110.162 234.149Z" fill="#F88790"/>
<path d="M110.117 234.149C111.242 237.219 112.944 239.888 115.176 242.081C117.717 244.578 121.043 246.562 125.064 247.977C125.196 248.023 125.334 248.061 125.472 248.089C125.655 248.126 125.841 248.145 126.025 248.148V206.01C125.386 206.018 124.75 206.257 124.24 206.726L124.213 206.752C121.03 209.874 117.306 211.454 112.492 211.724C110.183 211.854 108.348 213.776 108.313 216.099C108.307 216.576 108.294 217.004 108.276 217.409L108.275 217.441C108.181 222.391 108.066 228.552 110.117 234.149Z" fill="#E63946"/>
<path d="M115.724 227.079C115.724 233.003 120.535 237.826 126.455 237.847H126.493C132.43 237.847 137.262 233.016 137.262 227.079C137.262 221.141 132.43 216.31 126.493 216.31H126.455C120.535 216.331 115.724 221.154 115.724 227.079Z" fill="white"/>
<path d="M120.797 225.964L125.896 230.811L126.998 231.858C127.259 232.105 127.6 232.229 127.941 232.229C128.282 232.229 128.623 232.105 128.884 231.858L131.253 229.606C131.774 229.111 131.774 228.309 131.253 227.814C130.733 227.319 129.889 227.319 129.368 227.814L127.941 229.171L122.682 224.173C122.161 223.677 121.317 223.677 120.797 224.173C120.277 224.667 120.277 225.47 120.797 225.964Z" fill="#2F2E41"/>
<path d="M261.213 148.207C261.096 148.207 261.003 155.536 261.003 164.578C261.003 173.62 261.096 180.941 261.213 180.941C261.331 180.941 261.432 173.62 261.432 164.578C261.432 155.536 261.339 148.207 261.213 148.207Z" fill="#80848F"/>
<path d="M265.479 151.801C265.361 151.801 265.269 157.4 265.269 164.301C265.269 171.202 265.361 176.794 265.479 176.794C265.596 176.794 265.697 171.202 265.697 164.301C265.697 157.4 265.604 151.801 265.479 151.801Z" fill="#80848F"/>
<path d="M270.281 155.377C270.163 155.377 270.062 159.423 270.062 164.427C270.062 169.431 270.163 173.469 270.281 173.469C270.398 173.469 270.499 169.422 270.499 164.427C270.499 159.432 270.407 155.377 270.281 155.377Z" fill="#80848F"/>
<path d="M274.47 158.449C274.255 160.119 274.182 161.804 274.252 163.487C274.181 165.169 274.254 166.854 274.47 168.524C274.685 166.854 274.758 165.169 274.688 163.487C274.758 161.804 274.684 160.119 274.47 158.449V158.449Z" fill="#80848F"/>
<path d="M278.164 160.918C277.872 162.753 277.872 164.623 278.164 166.459C278.455 164.623 278.455 162.753 278.164 160.918Z" fill="#E0E0E0"/>
<path d="M282.345 157.963C282.135 159.633 282.065 161.318 282.135 163C282.065 164.682 282.135 166.367 282.345 168.037C282.565 166.368 282.638 164.682 282.563 163C282.638 161.318 282.565 159.632 282.345 157.963V157.963Z" fill="#E0E0E0"/>
<path d="M286.282 153.941C286.156 153.941 286.064 158.181 286.064 163.42C286.064 168.658 286.156 172.898 286.282 172.898C286.408 172.898 286.492 168.658 286.492 163.42C286.492 158.181 286.408 153.941 286.282 153.941Z" fill="#E0E0E0"/>
<path d="M236.33 155.377C236.212 155.377 236.111 159.423 236.111 164.427C236.111 169.431 236.212 173.469 236.33 173.469C236.447 173.469 236.548 169.422 236.548 164.427C236.548 159.432 236.447 155.377 236.33 155.377Z" fill="#80848F"/>
<path d="M240.519 158.449C240.3 160.119 240.226 161.804 240.301 163.487C240.226 165.169 240.299 166.854 240.519 168.524C240.729 166.854 240.799 165.169 240.729 163.487C240.799 161.805 240.728 160.12 240.519 158.449V158.449Z" fill="#80848F"/>
<path d="M244.205 160.918C243.925 162.754 243.925 164.622 244.205 166.459C244.496 164.623 244.496 162.753 244.205 160.918Z" fill="#80848F"/>
<path d="M248.394 156.46C248.178 158.627 248.105 160.806 248.175 162.983C248.105 165.16 248.178 167.339 248.394 169.506C248.61 167.339 248.683 165.16 248.612 162.983C248.683 160.806 248.61 158.627 248.394 156.46Z" fill="#80848F"/>
<path d="M252.331 153.941C252.213 153.941 252.121 158.181 252.121 163.42C252.121 168.658 252.213 172.898 252.331 172.898C252.449 172.898 252.549 168.658 252.549 163.42C252.549 158.181 252.457 153.941 252.331 153.941Z" fill="#80848F"/>
<path d="M257.133 151.926C257.016 151.926 256.923 157.333 256.923 163.99C256.923 170.648 257.016 176.055 257.133 176.055C257.251 176.055 257.352 170.656 257.352 163.99C257.352 157.324 257.259 151.926 257.133 151.926Z" fill="#80848F"/>
<path d="M231.855 168.054C232.07 166.384 232.143 164.699 232.073 163.016C232.143 161.334 232.07 159.649 231.855 157.979C231.639 159.649 231.566 161.334 231.636 163.016C231.566 164.699 231.639 166.384 231.855 168.054V168.054Z" fill="#80848F"/>
<path d="M228.161 165.594C228.452 163.758 228.452 161.888 228.161 160.053C227.87 161.888 227.87 163.758 228.161 165.594V165.594Z" fill="#E0E0E0"/>
<path d="M290.144 157.963C289.929 159.633 289.856 161.318 289.926 163C289.856 164.682 289.929 166.367 290.144 168.037C290.36 166.367 290.433 164.682 290.362 163C290.433 161.318 290.36 159.633 290.144 157.963V157.963Z" fill="#E0E0E0"/>
<path d="M293.838 160.423C293.547 162.258 293.547 164.128 293.838 165.964C294.129 164.128 294.129 162.258 293.838 160.423V160.423Z" fill="#E0E0E0"/>
<path d="M297.524 157.963C297.308 159.633 297.235 161.318 297.305 163C297.235 164.682 297.308 166.367 297.524 168.037C297.739 166.367 297.812 164.682 297.742 163C297.812 161.318 297.739 159.633 297.524 157.963V157.963Z" fill="#E0E0E0"/>
<path d="M301.461 153.941C301.343 153.941 301.243 158.181 301.243 163.42C301.243 168.658 301.343 172.898 301.461 172.898C301.578 172.898 301.679 168.658 301.679 163.42C301.679 158.181 301.578 153.941 301.461 153.941Z" fill="#E0E0E0"/>
<path d="M305.323 157.963C305.103 159.632 305.029 161.318 305.105 163C305.029 164.682 305.103 166.368 305.323 168.037C305.533 166.367 305.603 164.682 305.533 163C305.603 161.318 305.533 159.633 305.323 157.963V157.963Z" fill="#E0E0E0"/>
<path d="M309.017 160.423C308.726 162.258 308.726 164.128 309.017 165.964C309.297 164.127 309.297 162.259 309.017 160.423V160.423Z" fill="#E0E0E0"/>
<path d="M216.45 157.963C216.24 159.633 216.17 161.318 216.24 163C216.17 164.682 216.24 166.367 216.45 168.037C216.67 166.368 216.743 164.682 216.668 163C216.743 161.318 216.67 159.632 216.45 157.963V157.963Z" fill="#80848F"/>
<path d="M220.396 153.941C220.27 153.941 220.177 158.181 220.177 163.42C220.177 168.658 220.27 172.898 220.396 172.898C220.522 172.898 220.605 168.658 220.605 163.42C220.605 158.181 220.513 153.941 220.396 153.941Z" fill="#80848F"/>
<path d="M224.249 157.963C224.034 159.633 223.961 161.318 224.031 163C223.961 164.682 224.034 166.367 224.249 168.037C224.464 166.367 224.537 164.682 224.467 163C224.537 161.318 224.464 159.633 224.249 157.963V157.963Z" fill="#80848F"/>
<path d="M227.943 160.423C227.652 162.258 227.652 164.128 227.943 165.964C228.234 164.128 228.234 162.258 227.943 160.423V160.423Z" fill="#80848F"/>
<path d="M211.639 160.423C211.348 162.258 211.348 164.128 211.639 165.964C211.93 164.128 211.93 162.258 211.639 160.423V160.423Z" fill="#80848F"/>
<path d="M232.812 317.642L228.791 366.52H221.99L217.961 319.993L232.812 317.642Z" fill="#263238"/>
<path d="M334.136 185.776C334.136 185.776 345.705 179.664 355.561 189.68C365.417 199.696 365.266 213.464 362.21 230.817C358.626 251.327 329.939 283.397 307.607 297.577C298.456 303.378 266.26 320.438 229.799 326.038C191.44 331.914 154.24 320.362 141.101 314.284C125.033 306.829 115.328 302.472 110.878 294.261C105.984 285.244 110.878 283.507 110.878 283.507L334.136 185.776Z" fill="#263238"/>
<path d="M221.361 193.525C221.361 193.525 353.504 156.896 356.275 207.671C359.045 258.447 253.406 285.916 239.579 290.08C225.752 294.244 139.456 305.897 127.61 299.24C115.764 292.582 106.621 289.249 112.968 275.514C119.315 261.78 145.391 212.709 221.361 193.525Z" fill="#455A64"/>
<g opacity="0.3">
<path opacity="0.3" d="M182.18 256.44C182.465 252.956 196.452 244.141 199.449 242.378C209.137 236.728 218.825 231.078 228.572 225.528C240.947 218.493 253.49 211.592 266.855 206.681C280.221 201.769 294.56 198.881 308.723 200.132C313.131 200.519 317.74 201.408 321.064 204.33C323.36 206.473 324.785 209.386 325.067 212.513C325.349 215.641 324.468 218.762 322.592 221.28L314.91 223.06C304.886 230.616 294.72 238.432 282.907 242.747C270.02 247.457 255.975 247.785 242.61 250.975C229.244 254.165 215.912 260.453 202.312 258.279C199.984 258.015 197.753 257.197 195.805 255.894C193.933 254.484 182.003 258.766 182.18 256.44Z" fill="black"/>
</g>
<path d="M297.935 289.845L327.134 381.934H322.139L283.101 298.123L297.935 289.845Z" fill="#263238"/>
<path d="M169.167 310.985C168.462 313.335 129.339 381.934 129.339 381.934H124.52L158.186 306.812L169.167 310.985Z" fill="#263238"/>
<path d="M147.625 317.105C147.625 317.105 147.767 317.172 148.044 317.273L149.279 317.735C150.378 318.121 151.973 318.734 154.072 319.414C159.992 321.382 166.011 323.035 172.106 324.367C174.036 324.77 176.051 325.207 178.184 325.559L181.424 326.122L184.783 326.592C187.074 326.953 189.467 327.138 191.927 327.431C193.153 327.549 194.446 327.616 195.671 327.717C196.897 327.818 198.232 327.893 199.533 327.927C204.986 328.167 210.448 328.119 215.896 327.784C218.733 327.65 221.613 327.356 224.526 327.07L228.925 326.508C230.403 326.323 231.872 326.055 233.358 325.828C239.302 324.837 245.053 323.57 250.535 322.109C256.017 320.648 261.239 318.944 266.15 317.197C274.84 314.052 283.33 310.379 291.572 306.2C298.615 302.631 304.165 299.483 307.943 297.208C309.848 296.091 311.301 295.16 312.275 294.555L313.391 293.858L313.769 293.606C313.633 293.668 313.501 293.738 313.374 293.816L312.233 294.48C311.225 295.059 309.773 295.966 307.859 297.057C304.047 299.282 298.481 302.396 291.437 305.922C283.187 310.06 274.698 313.704 266.016 316.836C261.105 318.574 255.942 320.245 250.426 321.714C244.91 323.183 239.269 324.367 233.308 325.349C231.822 325.568 230.353 325.845 228.883 326.029L224.501 326.583C221.588 326.869 218.717 327.163 215.887 327.305C210.454 327.649 205.006 327.705 199.567 327.473C198.266 327.473 196.981 327.364 195.722 327.272C194.462 327.18 193.203 327.112 191.977 327.003C189.526 326.735 187.133 326.558 184.841 326.206L181.483 325.752L178.243 325.198C176.119 324.871 174.095 324.434 172.173 324.04C164.457 322.411 158.346 320.589 154.139 319.263C152.041 318.591 150.429 318.012 149.329 317.651L148.078 317.231L147.625 317.105Z" fill="#455A64"/>
<path d="M348.467 190.746C348.353 190.663 348.229 190.595 348.097 190.545C347.736 190.356 347.363 190.19 346.981 190.05C345.573 189.532 344.09 189.249 342.59 189.21C340.356 189.146 338.13 189.511 336.033 190.285C333.461 191.224 331.107 192.678 329.115 194.558C327.151 196.453 325.502 198.649 324.229 201.064C323.202 203.032 322.378 205.1 321.77 207.235C321.355 208.667 321.024 210.122 320.779 211.592C320.687 212.113 320.645 212.524 320.603 212.801C320.58 212.94 320.58 213.082 320.603 213.221C320.76 212.698 320.884 212.165 320.972 211.626C321.19 210.601 321.534 209.107 322.089 207.327C322.728 205.226 323.571 203.193 324.607 201.257C325.875 198.892 327.503 196.74 329.434 194.877C331.369 193.042 333.653 191.614 336.151 190.679C338.198 189.897 340.374 189.507 342.565 189.529C344.041 189.54 345.508 189.775 346.914 190.226C347.921 190.545 348.408 190.788 348.467 190.746Z" fill="#263238"/>
<path d="M338.535 205.354C338.245 205.28 337.945 205.246 337.645 205.253C336.829 205.217 336.011 205.26 335.202 205.379C332.507 205.758 329.965 206.86 327.848 208.57C325.783 210.341 324.212 212.617 323.289 215.177C322.998 215.935 322.767 216.716 322.601 217.511C322.519 217.8 322.477 218.1 322.475 218.401C322.55 218.401 322.794 217.167 323.575 215.286C324.561 212.827 326.121 210.639 328.125 208.905C330.191 207.249 332.643 206.143 335.253 205.69C337.251 205.329 338.535 205.438 338.535 205.354Z" fill="#263238"/>
<path d="M174.825 211.474C174.995 211.553 175.172 211.612 175.354 211.651L176.874 212.07L177.974 212.364C178.377 212.482 178.813 212.641 179.258 212.792C180.173 213.12 181.239 213.43 182.356 213.943L184.119 214.69C184.732 214.958 185.336 215.303 185.983 215.622C187.284 216.235 188.585 217.057 189.971 217.888C192.915 219.795 195.668 221.982 198.19 224.42C200.665 226.905 202.897 229.62 204.856 232.53C205.695 233.898 206.535 235.183 207.181 236.476C207.517 237.114 207.87 237.718 208.138 238.323C208.407 238.927 208.676 239.523 208.919 240.077C209.448 241.186 209.759 242.243 210.12 243.158C210.279 243.612 210.447 243.998 210.573 244.435C210.699 244.871 210.791 245.199 210.884 245.526L211.328 247.046C211.373 247.225 211.435 247.399 211.513 247.566C211.497 247.381 211.463 247.199 211.412 247.02C211.32 246.626 211.194 246.114 211.051 245.484L210.774 244.376C210.657 243.973 210.497 243.536 210.346 243.075C210.024 242.016 209.643 240.976 209.204 239.96L208.449 238.18C208.18 237.567 207.828 236.954 207.509 236.308C206.879 234.998 206.039 233.697 205.191 232.303C201.318 226.355 196.199 221.32 190.189 217.544C188.787 216.705 187.469 215.865 186.151 215.294C185.496 214.984 184.883 214.648 184.262 214.388L182.474 213.657C181.447 213.239 180.399 212.874 179.334 212.566C178.872 212.423 178.435 212.272 178.032 212.163L176.916 211.903L175.371 211.567C175.194 211.514 175.01 211.483 174.825 211.474Z" fill="#263238"/>
<path d="M308.303 162.261C310.163 160.105 312.526 158.441 315.182 157.416C317.838 156.391 320.706 156.036 323.532 156.384L322.693 157.82C325.156 157.038 327.825 157.226 330.154 158.347C332.482 159.468 334.295 161.436 335.221 163.849C336.146 166.262 336.115 168.937 335.133 171.328C334.151 173.718 332.292 175.643 329.938 176.709C332.398 179.908 331.374 184.928 328.318 187.564C325.262 190.201 320.762 190.679 316.875 189.621C314.12 188.87 311.599 187.437 309.544 185.455C307.488 183.472 305.965 181.005 305.114 178.279C304.264 175.553 304.113 172.657 304.676 169.858C305.239 167.058 306.498 164.446 308.337 162.261H308.303Z" fill="#263238"/>
<path d="M318.898 151.716C318.428 149.324 319.192 146.864 319.259 144.421C319.41 139.048 316.01 133.935 311.368 131.223C306.725 128.511 301.041 127.966 295.727 128.822C291.726 129.357 287.95 130.984 284.813 133.523C282.818 135.29 281.272 137.505 280.303 139.987C279.334 142.468 278.969 145.145 279.239 147.796L306.767 148.501C308.925 151.019 311.133 153.538 313.987 155.259C314.802 155.797 315.742 156.115 316.716 156.183C317.202 156.211 317.686 156.097 318.109 155.856C318.532 155.615 318.877 155.256 319.1 154.823C319.536 153.865 319.1 152.757 318.898 151.716Z" fill="#263238"/>
<path d="M316.506 145.143L293.838 136.143C286.459 134.363 280.263 142.918 278.794 150.365C277.165 158.642 275.503 168.834 275.671 175.173C276.04 187.959 285.443 190.822 285.443 190.822C285.443 190.822 283.353 205.866 282.799 210.425C290.64 215.798 300.244 210.056 309.773 207.487L319.847 150.129C320.017 149.031 319.768 147.908 319.149 146.984C318.53 146.061 317.587 145.403 316.506 145.143Z" fill="#FFBE9D"/>
<path d="M280.616 160.246C280.56 160.663 280.667 161.086 280.916 161.426C281.165 161.765 281.536 161.995 281.951 162.068C282.153 162.112 282.361 162.115 282.564 162.076C282.768 162.038 282.961 161.96 283.133 161.845C283.305 161.731 283.453 161.583 283.567 161.411C283.681 161.239 283.76 161.045 283.798 160.842C283.858 160.424 283.754 159.999 283.506 159.657C283.258 159.316 282.887 159.084 282.471 159.012C282.268 158.969 282.059 158.967 281.855 159.006C281.651 159.045 281.457 159.125 281.284 159.24C281.112 159.355 280.964 159.503 280.849 159.675C280.734 159.848 280.655 160.042 280.616 160.246V160.246Z" fill="#263238"/>
<path d="M280.347 155.973C280.523 156.208 281.858 155.469 283.587 155.704C285.317 155.939 286.467 156.963 286.677 156.779C286.887 156.594 286.635 156.292 286.131 155.822C285.455 155.199 284.6 154.806 283.688 154.697C282.789 154.577 281.875 154.745 281.077 155.175C280.498 155.511 280.263 155.864 280.347 155.973Z" fill="#263238"/>
<path d="M296.76 162.723C296.699 163.14 296.804 163.563 297.052 163.904C297.3 164.244 297.671 164.474 298.086 164.545C298.288 164.589 298.497 164.591 298.7 164.553C298.903 164.515 299.097 164.437 299.269 164.322C299.441 164.208 299.589 164.06 299.703 163.888C299.817 163.716 299.895 163.522 299.933 163.319C299.994 162.901 299.89 162.476 299.642 162.134C299.394 161.792 299.023 161.561 298.607 161.489C298.404 161.445 298.195 161.442 297.991 161.481C297.788 161.52 297.594 161.599 297.422 161.714C297.249 161.829 297.102 161.978 296.988 162.151C296.874 162.324 296.797 162.519 296.76 162.723Z" fill="#263238"/>
<path d="M297.297 158.542C297.465 158.777 298.8 158.038 300.529 158.273C302.259 158.508 303.409 159.532 303.627 159.348C303.845 159.163 303.577 158.861 303.073 158.391C302.398 157.767 301.543 157.373 300.63 157.266C299.734 157.145 298.822 157.313 298.027 157.744C297.44 158.08 297.196 158.432 297.297 158.542Z" fill="#263238"/>
<path d="M289.33 170.53C288.454 170.136 287.531 169.854 286.585 169.691C286.157 169.59 285.745 169.447 285.745 169.137C285.768 168.676 285.932 168.233 286.215 167.869L287.962 164.679C290.405 160.137 292.243 156.376 292.059 156.283C291.874 156.191 289.741 159.793 287.298 164.334L285.619 167.55C285.276 168.04 285.113 168.633 285.158 169.229C285.201 169.392 285.281 169.544 285.392 169.672C285.502 169.8 285.64 169.901 285.796 169.968C286.032 170.069 286.28 170.139 286.534 170.178C287.449 170.405 288.387 170.523 289.33 170.53Z" fill="#263238"/>
<path d="M285.443 190.822C291.328 191.689 297.338 190.908 302.805 188.563C302.805 188.563 297.448 196.673 285.065 193.844L285.443 190.822Z" fill="#EB996E"/>
<path d="M297.692 153.278C297.801 153.773 299.556 153.773 301.554 154.285C303.552 154.797 305.113 155.57 305.441 155.183C305.584 154.999 305.365 154.52 304.761 153.974C303.953 153.307 303.005 152.83 301.988 152.579C300.971 152.327 299.91 152.308 298.884 152.522C298.036 152.724 297.65 153.043 297.692 153.278Z" fill="#263238"/>
<path d="M281.85 148.484C282.102 148.912 283.344 148.669 284.78 148.837C286.215 149.004 287.391 149.449 287.726 149.072C287.869 148.895 287.726 148.476 287.256 148.031C286.606 147.483 285.803 147.149 284.956 147.074C284.114 146.976 283.263 147.143 282.521 147.552C281.959 147.888 281.741 148.274 281.85 148.484Z" fill="#263238"/>
<path d="M306.045 129.107L292.898 134.514C292.981 136.626 293.633 138.677 294.784 140.45C295.935 142.223 297.543 143.652 299.438 144.588C301.478 145.562 304.013 146.125 305.004 148.148C305.995 150.171 304.845 152.833 305.76 154.94C307.019 157.87 311.636 158.432 312.417 161.522C312.77 162.865 312.258 164.334 312.635 165.669C313.148 167.457 317.051 170.219 318.89 169.926C320.729 169.632 322.584 171.412 323.398 169.926C323.398 169.926 328.436 166.442 328.519 157.752C328.603 149.063 328.041 145.352 323.163 138.72C318.286 132.088 312.787 127.588 306.045 129.107Z" fill="#263238"/>
<path d="M313.5 170.639C313.626 169.707 314.994 167.651 315.935 167.625C318.453 167.567 322.852 168.356 322.063 174.602C320.997 183.148 312.635 180.311 312.652 180.067C312.669 179.824 313.063 173.855 313.5 170.639Z" fill="#FFBE9D"/>
<path d="M315.666 177.154C315.708 177.154 315.801 177.28 316.044 177.423C316.378 177.621 316.775 177.681 317.152 177.591C318.093 177.373 319.033 176.029 319.268 174.493C319.384 173.764 319.335 173.018 319.125 172.31C319.076 172.033 318.961 171.772 318.79 171.549C318.619 171.325 318.397 171.146 318.143 171.026C317.978 170.961 317.795 170.956 317.627 171.011C317.458 171.066 317.314 171.178 317.219 171.328C317.068 171.555 317.102 171.731 317.06 171.739C317.018 171.748 316.892 171.571 317.001 171.227C317.077 171.022 317.219 170.848 317.404 170.732C317.659 170.588 317.96 170.549 318.244 170.623C318.586 170.735 318.893 170.934 319.136 171.2C319.379 171.467 319.549 171.791 319.629 172.142C319.899 172.927 319.974 173.765 319.847 174.585C319.579 176.264 318.496 177.801 317.211 178.002C316.973 178.041 316.73 178.026 316.499 177.957C316.267 177.889 316.055 177.769 315.876 177.608C315.666 177.364 315.666 177.163 315.666 177.154Z" fill="#EB996E"/>
<path d="M270.39 174.09C270.506 174.045 270.616 173.986 270.718 173.914C271.01 173.7 271.266 173.439 271.473 173.141C271.796 172.661 272.003 172.112 272.078 171.538C272.196 170.772 272.064 169.989 271.7 169.305C271.297 168.524 270.441 168.037 269.886 167.29C269.74 167.113 269.647 166.899 269.617 166.672C269.588 166.444 269.623 166.213 269.719 166.005C269.85 165.789 270.026 165.602 270.234 165.457C270.442 165.313 270.679 165.213 270.928 165.166C271.482 165.063 272.043 165.007 272.607 164.998C273.227 164.984 273.823 164.749 274.286 164.335C274.505 164.094 274.67 163.809 274.77 163.499C274.87 163.189 274.903 162.861 274.865 162.538C274.817 161.895 274.652 161.266 274.378 160.683C274.107 160.132 273.877 159.562 273.69 158.978C273.532 158.427 273.546 157.842 273.732 157.299C274.249 156.292 274.918 155.369 275.713 154.562C276.937 153.026 277.893 151.295 278.542 149.441C278.969 148.196 279.251 146.906 279.382 145.596C279.382 145.134 279.449 144.757 279.449 144.53C279.463 144.404 279.463 144.278 279.449 144.152C279.449 144.152 279.398 144.664 279.273 145.588C279.086 146.88 278.766 148.149 278.315 149.374C277.651 151.198 276.689 152.9 275.469 154.411C274.645 155.237 273.954 156.186 273.421 157.224C273.211 157.83 273.194 158.487 273.371 159.104C273.553 159.711 273.781 160.303 274.051 160.876C274.314 161.427 274.473 162.022 274.521 162.63C274.553 162.911 274.526 163.196 274.442 163.466C274.359 163.737 274.219 163.987 274.034 164.2C273.615 164.568 273.08 164.776 272.523 164.788C271.959 164.797 271.397 164.856 270.844 164.964C270.561 165.02 270.293 165.132 270.057 165.296C269.82 165.459 269.619 165.669 269.467 165.913C269.337 166.172 269.293 166.466 269.341 166.752C269.389 167.016 269.501 167.264 269.668 167.474C270.289 168.314 271.121 168.734 271.498 169.456C271.848 170.099 271.986 170.837 271.893 171.563C271.832 172.114 271.649 172.645 271.356 173.116C271.091 173.493 270.765 173.822 270.39 174.09V174.09Z" fill="#263238"/>
<path d="M322.693 175.954C323.255 175.462 323.749 174.897 324.162 174.274C325.615 172.13 326.27 169.544 326.012 166.967C325.754 164.39 324.601 161.984 322.752 160.17C321.391 158.994 319.927 157.943 318.378 157.03C317.605 156.514 316.927 155.869 316.371 155.125C315.838 154.327 315.47 153.431 315.288 152.488C314.894 150.583 314.944 148.61 314.365 146.796C314.1 145.891 313.619 145.064 312.963 144.387C312.312 143.77 311.552 143.281 310.721 142.943C309.135 142.254 307.531 141.91 306.146 141.264C304.856 140.712 303.667 139.949 302.628 139.005C301.11 137.648 299.916 135.967 299.136 134.086C298.928 133.573 298.749 133.048 298.598 132.516L298.489 132.096C298.477 132.047 298.46 131.999 298.439 131.953C298.553 132.698 298.75 133.427 299.027 134.128C299.775 136.052 300.958 137.776 302.485 139.165C303.534 140.131 304.737 140.915 306.045 141.482C307.455 142.112 309.059 142.464 310.612 143.161C311.407 143.491 312.133 143.966 312.753 144.563C313.372 145.207 313.827 145.99 314.079 146.847C314.634 148.601 314.592 150.566 314.995 152.522C315.18 153.504 315.562 154.438 316.119 155.267C316.699 156.039 317.406 156.707 318.21 157.24C319.746 158.315 321.367 159.129 322.559 160.338C323.628 161.393 324.472 162.654 325.038 164.046C325.603 165.437 325.88 166.929 325.85 168.431C325.784 170.472 325.166 172.456 324.062 174.174C323.758 174.635 323.427 175.078 323.071 175.5L322.785 175.828C322.718 175.903 322.685 175.945 322.693 175.954Z" fill="#FAFAFA"/>
<path d="M324.901 172.36C325.357 171.85 325.749 171.286 326.068 170.681C326.968 169.051 327.496 167.242 327.613 165.384C327.784 162.6 326.969 159.845 325.313 157.601C324.829 156.966 324.281 156.384 323.676 155.863C323.063 155.326 322.408 154.814 321.795 154.26C321.157 153.718 320.612 153.074 320.183 152.354C319.775 151.596 319.529 150.761 319.461 149.903C319.36 149.021 319.327 148.14 319.159 147.275C318.992 146.419 318.661 145.604 318.185 144.874C317.265 143.51 316.018 142.399 314.558 141.642C313.246 140.985 311.888 140.423 310.495 139.963C309.299 139.552 308.135 139.056 307.011 138.477C305.375 137.639 304.029 136.329 303.149 134.716C302.854 134.109 302.634 133.469 302.494 132.81C302.494 132.81 302.494 132.86 302.494 132.944C302.494 133.028 302.494 133.162 302.553 133.339C302.655 133.832 302.816 134.311 303.031 134.766C303.889 136.43 305.237 137.79 306.893 138.661C308.022 139.263 309.195 139.777 310.402 140.198C311.776 140.659 313.115 141.22 314.407 141.877C315.823 142.614 317.032 143.694 317.925 145.017C318.375 145.725 318.688 146.511 318.848 147.334C319.008 148.173 319.041 149.013 319.142 149.936C319.214 150.836 319.472 151.71 319.898 152.505C320.351 153.249 320.917 153.918 321.577 154.487C322.854 155.454 324.024 156.555 325.069 157.769C326.688 159.946 327.503 162.616 327.378 165.325C327.285 167.16 326.796 168.953 325.942 170.581C325.711 171.022 325.456 171.451 325.178 171.865C325.07 172.021 324.977 172.187 324.901 172.36Z" fill="#455A64"/>
<path d="M285.233 133.943C285.233 133.943 285.737 133.591 286.602 133.104C288.865 131.887 291.518 131.616 293.981 132.348C294.913 132.625 295.459 132.919 295.484 132.869C295.509 132.818 295.366 132.768 295.123 132.625C294.779 132.432 294.42 132.269 294.048 132.138C293.505 131.943 292.942 131.805 292.369 131.727C291.655 131.646 290.934 131.646 290.22 131.727C289.502 131.805 288.796 131.962 288.113 132.197C287.559 132.389 287.027 132.639 286.526 132.944C286.184 133.143 285.863 133.377 285.569 133.641C285.326 133.792 285.216 133.926 285.233 133.943Z" fill="#455A64"/>
<path d="M320.368 184.769C320.448 184.853 320.55 184.914 320.662 184.945C320.826 184.988 320.998 184.996 321.166 184.968C321.333 184.941 321.493 184.879 321.636 184.786C321.849 184.652 322.016 184.455 322.114 184.223C322.217 183.955 322.235 183.662 322.165 183.383C322.064 183.037 321.871 182.725 321.607 182.481C321.342 182.237 321.015 182.07 320.662 181.998C319.814 181.835 318.935 181.981 318.185 182.41C317.76 182.642 317.395 182.969 317.119 183.367C316.827 183.797 316.68 184.308 316.699 184.827C316.731 185.376 316.902 185.907 317.196 186.371C317.49 186.835 317.896 187.217 318.378 187.48C319.424 187.983 320.614 188.099 321.736 187.808C322.82 187.536 323.825 187.015 324.672 186.286C325.519 185.558 326.184 184.641 326.614 183.61C327.004 182.716 327.187 181.747 327.151 180.773C327.106 179.745 326.84 178.738 326.371 177.823C325.901 176.907 325.24 176.103 324.431 175.467C324.285 175.347 324.131 175.237 323.97 175.139C323.854 175.061 323.734 174.991 323.609 174.929C323.51 174.871 323.406 174.823 323.298 174.787C323.298 174.787 323.709 175.022 324.356 175.559C325.265 176.326 325.969 177.307 326.404 178.413C326.735 179.22 326.902 180.085 326.894 180.957C326.887 181.829 326.706 182.691 326.362 183.493C325.939 184.474 325.295 185.345 324.482 186.038C323.668 186.731 322.706 187.227 321.669 187.489C320.606 187.769 319.478 187.662 318.487 187.187C318.043 186.955 317.665 186.614 317.39 186.195C317.116 185.776 316.953 185.294 316.917 184.794C316.912 184.341 317.034 183.896 317.268 183.509C317.502 183.122 317.84 182.808 318.244 182.603C318.938 182.198 319.752 182.049 320.544 182.183C320.865 182.239 321.163 182.382 321.408 182.597C321.652 182.812 321.833 183.09 321.929 183.4C322.01 183.654 322.01 183.927 321.929 184.181C321.848 184.39 321.704 184.568 321.518 184.693C321.392 184.787 321.248 184.853 321.094 184.887C320.941 184.922 320.782 184.925 320.628 184.895C320.469 184.836 320.376 184.752 320.368 184.769Z" fill="#455A64"/>
<path d="M294.628 170.631C295.318 170.998 295.928 171.498 296.423 172.104C296.917 172.709 297.286 173.407 297.507 174.157C297.507 174.157 297.558 173.88 297.449 173.444C297.298 172.881 297.029 172.357 296.66 171.907C296.291 171.457 295.83 171.091 295.308 170.833C294.913 170.639 294.636 170.598 294.628 170.631Z" fill="#EB996E"/>
<path d="M290.531 145.688C291.629 146.264 292.806 146.677 294.023 146.914C295.217 147.253 296.451 147.422 297.692 147.418C297.692 147.326 296.063 147.099 294.099 146.62C292.134 146.142 290.564 145.604 290.531 145.688Z" fill="#EB996E"/>
<path d="M291.219 147.225C292.124 147.543 293.062 147.763 294.014 147.879C294.947 148.102 295.901 148.223 296.86 148.24C295.023 147.696 293.131 147.356 291.219 147.225V147.225Z" fill="#EB996E"/>
<path d="M327.806 166.853C328.03 166.445 328.194 166.007 328.293 165.552C328.593 164.454 328.782 163.329 328.855 162.194C328.937 161.074 328.9 159.948 328.746 158.836C328.71 158.371 328.611 157.914 328.452 157.476C328.57 159.04 328.603 160.609 328.553 162.177C328.395 163.749 328.146 165.31 327.806 166.853V166.853Z" fill="#455A64"/>
<path d="M331.223 175.366C331.447 174.978 331.569 174.538 331.575 174.09C331.678 172.998 331.4 171.903 330.788 170.993C330.176 170.082 329.267 169.412 328.217 169.095C327.802 168.929 327.35 168.877 326.907 168.944C326.907 168.994 327.403 169.019 328.15 169.296C329.112 169.667 329.94 170.319 330.526 171.168C331.098 172.03 331.391 173.047 331.365 174.082C331.34 174.871 331.172 175.349 331.223 175.366Z" fill="#455A64"/>
<path d="M289.641 173.922C290.417 173.8 291.207 173.8 291.983 173.922C292.416 173.96 292.836 174.087 293.218 174.295C293.599 174.503 293.933 174.788 294.199 175.131C294.514 175.638 294.698 176.215 294.737 176.81C294.773 177.083 294.741 177.36 294.644 177.618C294.547 177.876 294.389 178.106 294.183 178.288C293.89 178.537 293.548 178.723 293.18 178.833C292.811 178.943 292.423 178.974 292.042 178.926C290.934 178.674 290.547 177.969 289.859 177.062C289.171 176.155 288.742 174.107 289.641 173.956" fill="#EB996E"/>
<path d="M290.975 178.33C290.975 178.33 291.051 178.539 291.336 178.733C291.704 178.949 292.117 179.081 292.542 179.117C292.968 179.153 293.397 179.094 293.796 178.942C294.207 178.771 294.556 178.478 294.795 178.103C295.064 177.698 295.201 177.22 295.19 176.734C295.181 176.26 295.099 175.79 294.946 175.341C294.728 174.82 294.619 174.443 294.451 174.014L294.342 173.712H294.048C293.385 173.712 292.705 173.662 292.1 173.67L290.522 173.771C289.682 173.846 289.12 173.939 289.12 174.048C289.12 174.157 289.64 174.241 290.53 174.317C290.967 174.317 291.538 174.384 292.075 174.409C292.612 174.434 293.301 174.535 294.048 174.56L293.637 174.258C293.788 174.694 293.956 175.248 294.115 175.635C294.245 175.996 294.319 176.376 294.333 176.76C294.351 177.077 294.275 177.392 294.115 177.666C293.969 177.909 293.766 178.113 293.523 178.259C293.28 178.406 293.005 178.49 292.722 178.506C291.672 178.64 291.042 178.212 290.975 178.33Z" fill="#263238"/>
<path d="M90.1245 334.87L80.2851 355.858L79.773 364.102C79.5799 367.234 77.0781 366.478 73.9466 366.285L35.7729 363.892C35.7729 363.892 34.2113 359.947 37.0993 358.922C39.9873 357.898 62.0756 347.463 62.0756 347.463L69.8917 327.532L90.1245 334.87Z" fill="#80848F"/>
<path d="M92.4752 333.753L89.7215 338.832C89.5263 339.217 89.1908 339.511 88.7845 339.655C88.3782 339.799 87.9321 339.781 87.5387 339.605L69.0185 331.923C68.6244 331.758 68.3051 331.454 68.1222 331.068C67.9393 330.682 67.9057 330.242 68.0278 329.833L69.6817 324.417C69.7515 324.187 69.8686 323.974 70.0256 323.791C70.1825 323.609 70.3758 323.461 70.5931 323.358C70.8104 323.254 71.047 323.197 71.2876 323.19C71.5282 323.183 71.7676 323.227 71.9905 323.318L91.644 331.335C91.8649 331.431 92.0635 331.571 92.227 331.748C92.3905 331.924 92.5154 332.133 92.5936 332.361C92.6718 332.588 92.7017 332.83 92.6813 333.069C92.6609 333.309 92.5907 333.542 92.4752 333.753V333.753Z" fill="#E0E0E0"/>
<path d="M68.2886 331.629C69.1467 332.218 70.054 332.732 71.0003 333.166C72.6794 334.005 75.0972 335.197 77.8006 336.339C80.5039 337.481 83.0141 338.354 84.8527 338.925C85.7678 339.202 86.5317 339.42 87.0355 339.546C87.3065 339.638 87.5891 339.692 87.875 339.705C86.9317 339.276 85.9614 338.909 84.9702 338.606C83.1652 337.959 80.6969 337.027 78.002 335.902C75.3071 334.777 72.8977 333.661 71.1598 332.863C70.2337 332.383 69.2741 331.971 68.2886 331.629V331.629Z" fill="#263238"/>
<path d="M85.2552 338.245C86.4324 337.243 87.3224 335.946 87.8343 334.487C88.3461 333.028 88.4614 331.46 88.1684 329.942C88.0739 331.43 87.812 332.903 87.3877 334.332C86.5817 336.675 85.1377 338.144 85.2552 338.245Z" fill="#263238"/>
<path d="M78.0773 336.272C79.0061 334.94 79.7674 333.499 80.3441 331.982C81.0619 330.527 81.5922 328.986 81.9224 327.398C81.1531 328.817 80.48 330.287 79.9075 331.797C78.8665 334.24 77.9682 336.204 78.0773 336.272Z" fill="#263238"/>
<path d="M71.0002 332.418C71.3439 330.923 71.9099 329.489 72.6793 328.162C73.5808 326.918 74.6583 325.813 75.8779 324.879C75.4179 324.98 74.9888 325.19 74.627 325.492C73.6968 326.138 72.9012 326.96 72.2847 327.91C71.6654 328.855 71.2401 329.914 71.0338 331.025C70.9062 331.479 70.8946 331.958 71.0002 332.418V332.418Z" fill="#263238"/>
<path d="M71.2013 365.899C71.2769 365.899 71.4028 365.185 71.8394 364.102C72.3998 362.692 73.2591 361.421 74.358 360.375C75.4687 359.34 76.7885 358.556 78.2282 358.074C79.3448 357.705 80.0752 357.621 80.0668 357.546C79.4156 357.473 78.7564 357.545 78.1359 357.755C76.6002 358.16 75.1898 358.941 74.0329 360.029C72.8761 361.117 72.0095 362.477 71.5119 363.985C71.2637 364.591 71.1574 365.246 71.2013 365.899V365.899Z" fill="#263238"/>
<path d="M47.0142 364.615C47.2709 364.198 47.4235 363.726 47.4591 363.238C47.6353 362.062 47.4661 360.86 46.9722 359.779C46.472 358.715 45.7541 357.769 44.8649 357C44.5331 356.644 44.1335 356.359 43.6896 356.16C43.6392 356.219 44.0422 356.589 44.6383 357.227C45.415 358.029 46.0583 358.95 46.544 359.955C47.0016 360.968 47.2006 362.079 47.1233 363.187C47.0479 363.659 47.0114 364.137 47.0142 364.615V364.615Z" fill="#263238"/>
<path d="M61.5972 287.646L43.3456 301.918L39.148 309.045C37.5612 311.749 35.6723 309.952 32.9689 308.365L0.000327461 289.039C0.000327461 289.039 0.386529 284.842 3.42565 285.211C6.46478 285.58 30.8869 286.244 30.8869 286.244L46.8381 271.971L61.5972 287.646Z" fill="#80848F"/>
<path d="M64.1994 287.704L59.4476 291.004C59.0956 291.245 58.6668 291.348 58.2437 291.292C57.8206 291.236 57.4331 291.026 57.1557 290.701L44.1093 275.464C43.8219 275.145 43.6678 274.727 43.6787 274.298C43.6896 273.868 43.8647 273.459 44.168 273.155L48.0383 269.075C48.204 268.907 48.4023 268.774 48.621 268.686C48.8398 268.597 49.0744 268.555 49.3103 268.56C49.5462 268.566 49.7786 268.619 49.9929 268.718C50.2073 268.817 50.3993 268.958 50.5569 269.134L64.5184 285.16C64.6837 285.34 64.8078 285.553 64.8821 285.786C64.9564 286.018 64.9792 286.264 64.9489 286.506C64.9185 286.748 64.8357 286.981 64.7063 287.188C64.5768 287.395 64.4039 287.571 64.1994 287.704V287.704Z" fill="#E0E0E0"/>
<path d="M43.5721 274.902C44.0724 275.815 44.6511 276.683 45.3016 277.496C46.4266 279.049 48.0385 281.156 49.9358 283.373C51.8332 285.589 53.6802 287.528 55.0654 288.863C55.7538 289.526 56.3247 290.055 56.7445 290.408C57.1642 290.76 57.3825 290.945 57.4077 290.92C56.7566 290.113 56.0556 289.347 55.3089 288.628C53.9908 287.234 52.2026 285.27 50.2716 283.07C48.3407 280.871 46.7288 278.772 45.5366 277.278C44.9357 276.442 44.2794 275.649 43.5721 274.902V274.902Z" fill="#263238"/>
<path d="M55.7288 288.452C57.2314 288.091 58.611 287.337 59.7263 286.268C60.8416 285.198 61.6524 283.851 62.0757 282.365C60.6763 285.029 58.4486 287.165 55.7288 288.452V288.452Z" fill="#263238"/>
<path d="M50.2297 283.465C53.0096 281.797 55.5181 279.713 57.668 277.286C56.3348 278.198 55.0694 279.205 53.8816 280.3C52.5926 281.269 51.3724 282.327 50.2297 283.465V283.465Z" fill="#263238"/>
<path d="M45.6375 276.832C46.6216 275.654 47.7761 274.63 49.0628 273.793C51.2624 272.484 53.42 272.458 53.4032 272.307C52.9452 272.197 52.4676 272.197 52.0096 272.307C50.8882 272.466 49.808 272.84 48.8278 273.407C47.8515 273.978 46.9959 274.733 46.3091 275.632C45.7886 276.303 45.5871 276.799 45.6375 276.832Z" fill="#263238"/>
<path d="M30.7104 306.804C30.7692 306.846 31.2141 306.258 32.0957 305.486C33.2237 304.475 34.561 303.724 36.0121 303.289C37.4632 302.854 38.9925 302.744 40.491 302.967C41.6496 303.135 42.3464 303.395 42.3716 303.32C41.8189 302.968 41.1981 302.736 40.5498 302.64C38.9963 302.306 37.3839 302.367 35.86 302.817C34.3362 303.268 32.9496 304.093 31.827 305.217C31.343 305.658 30.9618 306.2 30.7104 306.804V306.804Z" fill="#263238"/>
<path d="M9.73062 294.757C9.73062 294.757 10.2175 294.454 10.7465 293.732C11.4331 292.761 11.8265 291.613 11.8798 290.425C11.9082 289.249 11.6938 288.08 11.2502 286.991C11.1105 286.53 10.8792 286.101 10.5702 285.732C10.6323 286.201 10.7536 286.661 10.9312 287.1C11.2646 288.167 11.4234 289.282 11.4013 290.4C11.3478 291.509 11.0282 292.588 10.4694 293.548C10.0329 294.287 9.67186 294.706 9.73062 294.757Z" fill="#263238"/>
<path d="M204.075 261.402C204.075 261.402 140.564 213.548 114.446 216.067C110.605 216.199 106.877 217.393 103.675 219.517C81.8466 234.545 39.4332 272.677 39.4332 272.677L57.1978 295.134L116.343 250.639L152.116 276.757C152.116 276.757 190.844 280.761 206.149 278.914C221.453 277.067 223.779 270.2 223.779 270.2L204.075 261.402Z" fill="#263238"/>
<path d="M62.7728 339.773C62.7728 339.773 85.1297 260.562 94.8683 251.915C104.607 243.268 124.143 248.129 134.167 251.462L157.523 270.729C157.523 270.729 132.841 272.593 129.953 276.303C127.065 280.014 118.879 294.689 116.008 300.927C112.104 309.381 89.6212 350.535 89.6212 350.535L62.7728 339.773Z" fill="#263238"/>
<path d="M156.372 270.905C153.787 268.118 151.025 265.465 148.204 262.905C143.057 258.228 137.525 253.586 131.262 250.463C127.78 248.855 124.115 247.677 120.348 246.953C116.132 245.942 111.782 245.61 107.461 245.971C103.122 246.348 98.9893 247.988 95.5731 250.689C92.6475 253.206 90.292 256.317 88.6637 259.815C84.4157 268.32 82.6107 277.79 79.6051 286.756C79.5632 286.882 79.3617 286.823 79.4036 286.697C82.1321 278.562 83.9036 270.083 87.3289 262.183C88.7692 258.6 90.8232 255.296 93.3987 252.419C96.1886 249.494 99.7477 247.416 103.666 246.425C107.761 245.477 112 245.332 116.15 245.996C120.391 246.566 124.558 247.596 128.575 249.069C135.04 251.462 140.715 256.096 145.87 260.562C149.601 263.767 153.154 267.172 156.515 270.763C156.607 270.855 156.456 271.006 156.364 270.905H156.372Z" fill="#455A64"/>
<path d="M208.776 219.433L222.839 243.973L236.322 251.302L246.127 236.35L243.315 233.118L235.373 227.283L226.818 210.366L208.776 219.433Z" fill="#E63946"/>
<g opacity="0.3">
<path opacity="0.3" d="M225.046 239.935C226.574 239.095 228.362 238.911 229.89 238.096C231.712 237.114 232.988 235.376 234.332 233.798C235.675 232.219 237.253 230.717 239.268 230.339C239.318 233.562 238.145 236.685 235.985 239.078C232.678 242.495 227.59 243.402 222.914 244.116C222.217 242.537 223.51 240.741 225.046 239.935Z" fill="black"/>
</g>
<path d="M184.346 187.993C183.968 188.312 188.543 193.139 190.533 195.196C191.111 195.79 191.864 196.182 192.682 196.313L197.938 197.152C197.938 197.152 198.517 199.881 200.364 200.661C202.698 201.652 211.975 206.37 211.975 206.37L223.04 203.474C223.04 203.474 218.515 192.392 216.836 191.292C216.492 191.12 216.132 190.983 215.761 190.881L217.44 189.621C217.44 189.621 221.571 188.883 220.908 185.768H218.011C217.968 185.467 217.863 185.178 217.702 184.92C217.541 184.662 217.328 184.441 217.077 184.269C216.826 184.098 216.542 183.981 216.243 183.925C215.945 183.87 215.637 183.877 215.341 183.946C212.89 184.206 208.995 186.465 208.995 186.465C208.995 186.465 209.775 184.164 208.105 183.946C207.008 183.858 205.905 184.022 204.881 184.425C204.881 184.425 200.683 179.53 198.425 181.201C196.166 182.872 200.524 186.901 200.524 186.901L196.721 189.924C196.343 190.251 196.064 190.678 195.916 191.156C195.768 191.633 195.755 192.143 195.881 192.627V192.627L192.389 191.939L189.736 189.789C189.736 189.789 186.571 186.095 184.346 187.993Z" fill="#FFBE9D"/>
<path d="M188.191 188.404L188.317 188.161C188.738 187.649 189.339 187.318 189.996 187.237L201.926 185.961L197.946 188.899L189.736 189.789L188.191 188.404Z" fill="#263238"/>
<path d="M209.347 185.071L221.638 183.904C222.091 183.854 222.687 183.904 222.805 184.593C222.845 184.746 222.849 184.906 222.817 185.061C222.785 185.215 222.718 185.361 222.62 185.485C222.522 185.61 222.397 185.71 222.255 185.778C222.112 185.846 221.955 185.88 221.797 185.877L217.121 186.532L207.424 187.372C208.256 186.683 209.103 186.112 209.347 185.071Z" fill="#263238"/>
<path d="M207.282 195.506C207.282 195.456 207.022 195.506 206.728 195.75C206.373 196.063 206.087 196.446 205.888 196.875C205.524 197.441 205.35 198.109 205.393 198.781C205.519 198.781 205.813 198 206.275 197.102C206.736 196.203 207.366 195.607 207.282 195.506Z" fill="#EB996E"/>
<path d="M217.356 186.481C217.306 186.431 216.693 186.926 215.551 187.489C213.99 188.118 212.533 188.978 211.228 190.041C210.027 191.253 209.059 192.676 208.373 194.239C208.047 194.851 207.79 195.499 207.609 196.17C208.014 195.609 208.363 195.01 208.65 194.381C209.397 192.915 210.365 191.572 211.522 190.402C212.813 189.366 214.222 188.487 215.719 187.783C216.348 187.464 216.905 187.022 217.356 186.481V186.481Z" fill="#EB996E"/>
<path d="M220.723 187.405C220.664 187.405 220.504 187.791 219.95 188.245C219.184 188.837 218.29 189.243 217.339 189.428H217.281L217.222 189.487C216.693 189.929 216.132 190.33 215.543 190.688C215.187 190.921 214.847 191.179 214.527 191.46C214.362 191.603 214.213 191.763 214.082 191.939C213.965 192.13 213.893 192.345 213.872 192.568C213.872 192.98 213.872 193.315 213.872 193.634C213.844 193.921 213.782 194.202 213.687 194.474C213.473 195.025 213.191 195.546 212.848 196.027C213.398 195.705 213.811 195.191 214.006 194.583C214.134 194.288 214.221 193.978 214.267 193.66C214.325 193.315 214.267 192.938 214.334 192.602C214.345 192.443 214.397 192.29 214.485 192.157C214.597 192.013 214.724 191.881 214.863 191.762C215.178 191.499 215.509 191.256 215.853 191.032C216.45 190.651 217.012 190.219 217.532 189.739L217.415 189.806C218.424 189.592 219.358 189.111 220.118 188.412C220.434 188.16 220.649 187.803 220.723 187.405Z" fill="#EB996E"/>
<path d="M214.737 196.623C214.854 196.623 214.846 196.119 214.485 195.683C214.124 195.246 213.645 195.129 213.645 195.238C213.645 195.347 213.897 195.599 214.183 195.96C214.468 196.321 214.619 196.648 214.737 196.623Z" fill="#EB996E"/>
<path d="M219.338 198.101C219.38 198.101 219.481 197.74 219.237 197.194C219.068 196.857 218.831 196.559 218.543 196.316C218.254 196.074 217.919 195.893 217.558 195.784C216.854 195.585 216.115 195.542 215.392 195.658C214.855 195.733 214.552 195.826 214.552 195.884C214.552 195.943 214.897 195.96 215.392 195.968C216.072 195.945 216.751 196.025 217.407 196.203C218.041 196.393 218.59 196.797 218.96 197.345C219.237 197.765 219.262 198.109 219.338 198.101Z" fill="#EB996E"/>
<path d="M207.978 192.148C207.853 192.148 207.794 192.912 207.609 193.827C207.432 194.372 207.322 194.935 207.282 195.506C207.382 195.565 207.853 194.885 208.037 193.911C208.222 192.937 208.096 192.131 207.978 192.148Z" fill="#EB996E"/>
<path d="M212.622 189.243C211.729 189.491 210.88 189.873 210.103 190.377C209.24 190.756 208.502 191.37 207.971 192.148C208.054 192.224 208.995 191.477 210.313 190.755C211.161 190.383 211.941 189.872 212.622 189.243V189.243Z" fill="#EB996E"/>
<path d="M203.009 195.406C203.185 194.392 203.309 193.369 203.378 192.341C203.588 191.335 203.742 190.317 203.84 189.294C203.319 190.21 203.012 191.232 202.942 192.283C202.734 193.316 202.757 194.382 203.009 195.406V195.406Z" fill="#EB996E"/>
<path d="M202.169 195.59C202.305 195.006 202.227 194.393 201.951 193.861C201.607 192.946 201.053 192.358 200.96 192.434C200.868 192.509 201.221 193.164 201.54 194.02C201.859 194.877 202.043 195.599 202.169 195.59Z" fill="#EB996E"/>
<path d="M203.832 189.294C203.739 189.21 202.992 189.848 202.236 190.713C201.481 191.578 200.868 192.35 200.96 192.434C201.053 192.518 201.8 191.88 202.555 191.015C203.088 190.529 203.521 189.945 203.832 189.294V189.294Z" fill="#EB996E"/>
<path d="M208.936 185.961C208.835 185.877 207.911 186.876 206.518 187.774C205.124 188.673 203.84 189.118 203.873 189.244C204.894 189.076 205.87 188.697 206.737 188.132C207.604 187.567 208.344 186.828 208.91 185.961H208.936Z" fill="#EB996E"/>
<path d="M199.206 199.276C199.153 199.019 199.065 198.77 198.945 198.537C198.761 198.067 198.467 197.395 198.106 196.564L196.788 193.643C196.662 193.366 196.536 193.08 196.402 192.803C196.25 192.547 196.158 192.26 196.133 191.964C196.191 191.323 196.43 190.712 196.821 190.201V190.201C197.023 190.008 197.241 189.798 197.476 189.605C199.418 187.91 201.518 186.406 203.748 185.113C204.418 184.724 205.124 184.398 205.855 184.139C206.375 183.946 206.694 183.946 206.694 183.896C206.694 183.845 206.619 183.896 206.468 183.896C206.252 183.901 206.038 183.932 205.83 183.988C205.061 184.183 204.318 184.464 203.613 184.828C201.311 186.052 199.158 187.54 197.199 189.26C196.964 189.462 196.746 189.68 196.528 189.882C196.081 190.466 195.818 191.171 195.772 191.905C195.8 192.262 195.912 192.607 196.099 192.912C196.234 193.198 196.368 193.475 196.494 193.752L197.896 196.623C198.299 197.463 198.626 198.084 198.87 198.537C198.948 198.798 199.061 199.046 199.206 199.276V199.276Z" fill="#EB996E"/>
<path d="M222.839 203.037L226.138 210.711L214.502 216.554L211.807 205.682L222.839 203.037Z" fill="#FFBE9D"/>
<path d="M320.477 213.212C318.602 210.077 316.92 206.83 315.439 203.49C313.307 198.504 311.888 195.884 311.888 195.884C296.088 204.078 286.148 206.429 284.754 194.994L273.84 196.363C270.754 196.822 267.852 198.113 265.445 200.099C256.512 207.168 245.296 223.22 240.88 228.232C237.253 232.32 231.108 240.439 231.108 240.439L194.168 254.274L209.045 272.643C209.045 272.643 287.667 266.876 303.157 246.576C318.646 226.276 320.477 213.212 320.477 213.212Z" fill="#E63946"/>
<g opacity="0.3">
<path opacity="0.3" d="M242.71 248.506C243.141 243.156 243.567 237.802 243.986 232.446C244.138 230.515 244.331 228.492 245.414 226.897C247.093 224.462 250.249 223.715 253.137 223.161C255.61 222.569 258.153 222.323 260.693 222.43C261.962 222.495 263.203 222.821 264.34 223.387C265.477 223.953 266.485 224.748 267.3 225.721C268.845 227.795 269.089 230.582 268.837 233.16C268.719 234.352 268.837 235.98 269.979 236.207C270.469 236.252 270.961 236.137 271.381 235.88C278.13 232.573 284.502 228.548 290.388 223.874C287.636 232.807 282.033 240.592 274.436 246.038C267.007 251.285 258.208 254.366 249.25 255.869C247.798 256.104 246.228 256.289 244.944 255.584C242.626 254.316 242.5 251.117 242.71 248.506Z" fill="black"/>
</g>
<path d="M301.537 214.724L265.714 245.132V227.082H246.187C246.187 227.082 245.826 256.373 246.187 259.395C246.548 262.418 249.746 270.083 256.152 272.4C262.557 274.717 301.739 260.285 307.431 254.946C313.123 249.606 321.963 233.118 322.744 224.504C323.234 219.435 321.752 214.371 318.605 210.366L301.537 214.724Z" fill="#E63946"/>
<path d="M262.498 251.638C264.334 249.939 265.479 247.622 265.713 245.132C265.579 245.132 265.201 246.702 264.311 248.49C263.421 250.278 262.397 251.554 262.498 251.638Z" fill="#263238"/>
<path d="M299.984 215.941C299.984 216.008 300.933 215.555 302.502 214.967C306.517 213.427 310.798 212.705 315.096 212.843C316.733 212.893 317.748 213.019 317.757 212.944C317.537 212.845 317.301 212.785 317.06 212.767C316.607 212.683 315.935 212.6 315.112 212.532C310.77 212.219 306.416 212.956 302.418 214.682C301.816 214.928 301.227 215.209 300.655 215.521C300.185 215.773 299.967 215.916 299.984 215.941Z" fill="#263238"/>
<path d="M263.178 211.097C263.271 211.172 264.555 209.762 266.268 208.167C267.98 206.572 269.458 205.363 269.382 205.262C268.118 205.943 266.965 206.816 265.966 207.848C264.87 208.776 263.929 209.873 263.178 211.097V211.097Z" fill="#263238"/>
<path d="M197.519 253.149C197.712 253.115 197.9 253.058 198.081 252.981L199.676 252.427L205.494 250.295L224.644 243.108L231.142 240.64H231.192L240.948 228.24C242.123 226.721 243.08 225.503 243.769 224.613L244.507 223.631C244.675 223.404 244.759 223.278 244.743 223.27C244.634 223.363 244.536 223.467 244.449 223.581L243.651 224.521L240.738 228.064L230.873 240.296L230.957 240.237L224.451 242.697L205.351 250.009L199.575 252.268L198.014 252.906C197.842 252.971 197.676 253.053 197.519 253.149Z" fill="#263238"/>
<path d="M246.069 256.44C246.069 256.44 246.069 256.39 246.069 256.297C246.069 256.205 246.069 256.054 246.069 255.886C246.069 255.5 246.069 254.971 246.069 254.299C246.069 252.872 246.119 250.84 246.152 248.28C246.194 243.092 246.245 235.762 246.312 227.082L246.119 227.283H265.647L265.428 227.056C265.378 228.072 265.344 229.155 265.344 230.247C265.344 235.385 265.672 240.321 265.437 244.897V245.4L265.814 245.064C273.891 237.844 281.153 231.943 286.173 227.594C288.692 225.428 290.682 223.681 292.05 222.464L293.603 221.104L293.989 220.735L294.115 220.6C294.115 220.6 294.056 220.6 293.964 220.709L293.553 221.054L291.974 222.405L286.047 227.443C281.01 231.733 273.681 237.593 265.571 244.804L265.924 244.972C266.175 240.371 265.831 235.418 265.848 230.305C265.848 229.214 265.848 228.131 265.932 227.124V226.897H265.705H246.178H245.985V248.288C245.985 250.849 245.985 252.881 245.985 254.308C245.985 254.979 245.985 255.508 245.985 255.894V256.306C246.06 256.365 246.06 256.44 246.069 256.44Z" fill="#263238"/>
<path d="M229.765 184.4C230.192 183.09 230.929 181.903 231.912 180.938C232.896 179.973 234.097 179.26 235.415 178.859C238.084 178.091 240.942 178.327 243.449 179.522L242.761 181.747C241.999 181.043 241.052 180.573 240.031 180.391C239.01 180.21 237.959 180.325 237.002 180.722C235.103 181.577 233.602 183.123 232.804 185.046C232.221 186.199 232.015 187.506 232.216 188.782C232.507 189.943 233.16 190.981 234.08 191.745C234.898 192.405 235.795 192.96 236.75 193.399L235.843 195.414C235.033 195.406 234.256 195.091 233.669 194.533C232.143 193.36 230.938 191.821 230.168 190.058C229.396 188.272 229.254 186.277 229.765 184.4V184.4Z" fill="#E63946"/>
<path d="M263.539 185.751L256.386 206.429L252.961 209.317L233.064 201.14L243.885 178.204L263.539 185.751Z" fill="#E63946"/>
<path d="M262.775 192.938C262.775 192.938 263.111 203.365 262.775 205.178C262.439 206.991 262.775 214.111 262.926 217.259C263.077 220.407 262.632 226.855 262.632 226.855H249.712V214.262C248.441 212.898 247.284 211.433 246.253 209.879C244.414 207.151 240.443 198.965 240.443 198.965C240.443 198.965 234.877 197.379 232.308 196.312C231.951 196.171 231.627 195.957 231.357 195.684C231.087 195.411 230.876 195.084 230.738 194.726C230.604 194.365 230.562 194.004 230.738 193.794C231.276 193.257 240.754 195.473 240.754 195.473L238.378 192.854H234.256C233.995 192.855 233.741 192.776 233.526 192.628C233.311 192.48 233.147 192.269 233.056 192.025C232.964 191.781 232.95 191.515 233.014 191.262C233.079 191.009 233.219 190.782 233.416 190.612V190.612C234.508 189.772 240.208 189.353 240.208 189.353L240.939 189.647C240.939 189.647 240.234 187.858 241.174 187.044C242.114 186.23 244.767 186.691 245.371 187.044C245.9 187.459 246.374 187.938 246.782 188.471L244.817 185.113C244.817 185.113 238.168 181.755 238.437 179.874L239.092 178.766L248.788 182.502L256.697 193.97L258.989 197.202C259.254 195.718 259.69 194.27 260.29 192.887C260.85 192.061 261.587 191.37 262.448 190.864L262.775 192.938Z" fill="#FFBE9D"/>
<path d="M258.913 196.757C259.293 197.824 259.753 198.859 260.29 199.855C260.699 200.911 261.185 201.935 261.743 202.92C261.29 200.674 260.321 198.564 258.913 196.757V196.757Z" fill="#EB996E"/>
<path d="M241.023 189.579C240.956 189.688 241.669 190.285 242.459 191.099C243.248 191.913 243.819 192.652 243.919 192.593C243.724 191.893 243.323 191.267 242.769 190.797C242.318 190.229 241.711 189.806 241.023 189.579Z" fill="#EB996E"/>
<path d="M407.134 248.036C407.173 248.091 407.231 248.128 407.297 248.141C407.362 248.153 407.43 248.14 407.486 248.104C407.549 248.079 407.601 248.032 407.63 247.971C407.66 247.91 407.665 247.841 407.646 247.776C407.607 247.722 407.549 247.685 407.483 247.672C407.417 247.66 407.349 247.673 407.293 247.709C407.176 247.785 407.075 247.969 407.134 248.036Z" fill="#263238"/>
<path d="M129.289 282.592C130.968 279.183 133.218 274.683 136.693 273.583C162.333 265.49 178.217 266.204 204.108 261.419C219.749 258.531 235.7 258.119 251.5 256.49C267.3 254.862 283.277 251.932 297.456 244.418C311.636 236.904 323.977 224.269 328.519 208.259L347.829 209.544L329.669 246.114C329.669 246.114 297.079 271.77 249.284 281.752C201.489 291.734 141.403 296.956 141.403 296.956L123.958 293.556L129.289 282.592Z" fill="#455A64"/>
<path d="M290.287 247.633C290.287 247.717 291.731 248.011 293.964 248.901C295.263 249.432 296.521 250.061 297.725 250.782C299.186 251.682 300.567 252.704 301.856 253.837C303.121 254.997 304.284 256.264 305.332 257.624C306.181 258.742 306.939 259.927 307.598 261.167C308.732 263.282 309.177 264.718 309.277 264.684C309.216 264.34 309.121 264.002 308.992 263.677C308.88 263.28 308.737 262.893 308.564 262.518C308.37 262.007 308.146 261.508 307.892 261.024C307.262 259.747 306.52 258.527 305.676 257.38C304.628 255.985 303.453 254.689 302.166 253.51C300.863 252.361 299.458 251.333 297.969 250.437C296.74 249.718 295.451 249.109 294.115 248.616C293.607 248.418 293.088 248.247 292.562 248.103C292.167 247.982 291.767 247.881 291.362 247.801C291.011 247.704 290.651 247.648 290.287 247.633V247.633Z" fill="#263238"/>
<path d="M330.056 251.831C329.972 251.476 329.845 251.132 329.678 250.807C329.273 249.897 328.796 249.021 328.251 248.187C326.463 245.411 324.065 243.079 321.239 241.37C318.414 239.661 315.236 238.618 311.947 238.323C310.956 238.23 309.96 238.213 308.966 238.273C308.601 238.277 308.237 238.325 307.883 238.415C307.883 238.499 309.437 238.34 311.913 238.625C315.135 238.999 318.239 240.062 321.014 241.74C323.79 243.419 326.172 245.675 327.999 248.355C329.401 250.412 329.938 251.865 330.056 251.831Z" fill="#263238"/>
<path d="M324.02 238.096C323.572 237.67 323.059 237.319 322.5 237.055C321.2 236.335 319.819 235.771 318.386 235.376C316.956 234.966 315.482 234.724 313.995 234.654C313.379 234.59 312.756 234.622 312.148 234.747C314.211 234.951 316.256 235.302 318.269 235.796C320.236 236.429 322.158 237.198 324.02 238.096V238.096Z" fill="#263238"/>
<path d="M190.684 298.241C190.645 297.757 190.566 297.277 190.449 296.805C190.357 296.352 190.239 295.798 190.147 295.126C190.055 294.454 189.912 293.732 189.828 292.901C189.588 290.968 189.459 289.023 189.442 287.075C189.403 282.305 190.039 277.554 191.331 272.962C191.854 271.085 192.488 269.241 193.228 267.438C193.513 266.666 193.849 265.986 194.118 265.381C194.387 264.777 194.63 264.265 194.84 263.853C195.074 263.427 195.276 262.983 195.444 262.527C195.163 262.922 194.91 263.337 194.689 263.769C194.454 264.172 194.177 264.676 193.891 265.281C193.606 265.885 193.253 266.548 192.943 267.321C192.156 269.12 191.486 270.968 190.936 272.853C189.591 277.474 188.951 282.271 189.039 287.083C189.076 289.051 189.239 291.013 189.526 292.96C189.618 293.8 189.786 294.53 189.912 295.185C190.038 295.84 190.164 296.394 190.281 296.864C190.383 297.332 190.518 297.792 190.684 298.241V298.241Z" fill="#263238"/>
<path d="M174.859 300.86C174.843 300.726 174.806 300.596 174.75 300.474C174.649 300.188 174.515 299.844 174.364 299.424C174.144 298.875 173.953 298.315 173.793 297.745C173.6 297.082 173.331 296.343 173.155 295.495L172.844 294.169C172.743 293.707 172.685 293.212 172.592 292.708C172.399 291.709 172.324 290.618 172.206 289.484C171.857 284.504 172.537 279.506 174.204 274.801C174.615 273.734 174.976 272.702 175.438 271.787C175.656 271.325 175.841 270.872 176.068 270.452L176.723 269.26C177.117 268.479 177.562 267.841 177.932 267.253C178.301 266.666 178.637 266.179 178.931 265.792L179.586 264.877C179.671 264.776 179.741 264.663 179.795 264.542C179.795 264.542 179.686 264.634 179.518 264.827L178.796 265.666C178.41 266.119 178.054 266.595 177.73 267.094C177.27 267.731 176.844 268.392 176.454 269.075L175.766 270.276C175.531 270.687 175.337 271.115 175.111 271.61C174.631 272.598 174.203 273.61 173.826 274.641C172.982 277.013 172.375 279.462 172.013 281.954C171.693 284.459 171.625 286.99 171.811 289.509C171.896 290.605 172.039 291.695 172.24 292.775C172.332 293.279 172.399 293.774 172.517 294.236L172.861 295.571C173.054 296.335 173.287 297.089 173.558 297.829C173.738 298.402 173.954 298.962 174.204 299.508C174.389 299.92 174.548 300.255 174.674 300.541C174.727 300.652 174.788 300.759 174.859 300.86Z" fill="#263238"/>
<defs>
<clipPath id="clip0">
<rect width="35.1204" height="34.4818" fill="white" transform="matrix(-1 0 0 1 144.164 117.493)"/>
</clipPath>
</defs>
</svg>
