<svg width="391" height="413" viewBox="0 0 391 413" fill="none" xmlns="http://www.w3.org/2000/svg">
<path d="M135.7 307C136.41 300.28 138.65 293.82 140.88 287.43C148.213 266.49 155.53 245.547 162.83 224.6C164.76 219.08 166.74 213.46 170.26 208.8C173.78 204.14 179.15 200.48 185 200.52L181.67 335.66L173.31 355C162.042 353.435 151.821 347.556 144.805 338.601C137.788 329.646 134.524 318.316 135.7 307Z" fill="#E63946"/>
<path d="M260.41 223.5L311.47 170.24C311.47 170.24 354.12 180.36 363.67 192.59C370.38 201.18 365.81 269.59 365.81 269.59C365.81 269.59 329.4 377.18 326.81 387.35L333.7 412.55H162.45L177.86 329.55L165.86 188.27L245.72 168.27C244.38 172.09 260.41 223.5 260.41 223.5Z" fill="#E63946"/>
<g opacity="0.3">
<path opacity="0.3" d="M330.63 403.59C318.54 400.9 309.38 390.59 304.35 379.25C299.32 367.91 297.6 355.47 294.98 343.36C292.36 331.25 288.51 318.91 280.18 309.74C274.51 303.5 267.09 299.11 261.07 293.2C255.05 287.29 250.35 278.83 252.4 270.65L288.26 293.06C292.14 295.49 296.11 297.99 298.9 301.62C302.38 306.14 303.68 311.91 304.97 317.46C311.727 346.604 320.754 375.175 331.97 402.91" fill="black"/>
</g>
<path d="M312.76 278C312.76 278 329.61 305 331.21 307.88C332.81 310.76 354.61 339.61 354.61 339.61C354.61 339.61 361.61 362.37 350.76 371.98C339.91 381.59 326.76 383.2 324.16 383.2C321.56 383.2 307.82 355.32 307.82 355.32L290.5 306L312.76 278Z" fill="#F8B5B7"/>
<path d="M363.67 192.59C363.67 192.59 374.79 203.59 380.67 228.36C384.48 244.36 387.33 301.84 387.33 301.84C387.33 301.84 391.27 345.21 390.33 355.19C389.39 365.17 379.68 392.65 374.42 400.41C367.01 411.35 332.94 408.08 327.32 398.57C324.32 393.42 312.13 374.13 312.75 365.03C313.37 355.93 341.6 322.13 341.6 322.13L363.67 192.59Z" fill="#E63946"/>
<g opacity="0.3">
<path opacity="0.3" d="M202.7 245.65C202.85 273.09 198.17 298.54 191.88 325.25C190.17 332.51 185.61 342.96 178.88 346.12C172.15 349.28 168.16 350.12 161.63 346.84C154.23 343.09 145.96 333.44 145.96 329.14C150.06 333.43 154.27 337.79 159.55 340.48C164.83 343.17 171.55 343.92 176.55 340.87C183.55 336.68 185.12 327.39 186.25 319.29C189.65 294.9 191.91 270.1 200.4 246.99" fill="black"/>
</g>
<path d="M317.74 116.06C322.74 105.73 327.66 95.31 330.74 84.28C333.82 73.25 335.11 61.47 332.6 50.28C332.22 48.59 328.6 37.06 326.83 37C325.59 37 327.37 47.48 326.61 48.46C319.32 57.82 316.06 69.81 315.41 81.65C314.892 93.1694 315.66 104.711 317.7 116.06" fill="#263238"/>
<path d="M261.67 227.64C279.34 229.64 307.94 196.16 310.34 178.55L324.77 72.55C329.55 44.19 317.04 17.77 288.56 13.77L285.9 13.55C273.018 12.5053 260.216 16.3497 250.041 24.3179C239.866 32.286 233.064 43.7936 230.99 56.55C226.99 81.15 226.22 98.14 224.99 111.41C221.99 143.29 247.23 155.73 247.23 155.73C247.23 155.73 246.52 162.09 245.52 170.12C243.26 188.18 246.57 225.63 264.64 227.69L261.67 227.64Z" fill="#FFB8B8"/>
<path d="M247.17 156C247.17 156 264.43 158.43 283.85 148.32C283.85 148.32 273.49 167.62 246.25 162.91L247.17 156Z" fill="#F49885"/>
<path d="M271.09 113.7C270.553 112.995 269.865 112.418 269.076 112.014C268.287 111.609 267.417 111.386 266.531 111.361C265.644 111.337 264.764 111.511 263.953 111.871C263.143 112.231 262.424 112.768 261.848 113.442C261.272 114.116 260.854 114.911 260.626 115.768C260.397 116.624 260.363 117.521 260.526 118.393C260.69 119.265 261.046 120.088 261.569 120.804C262.093 121.52 262.769 122.11 263.55 122.53C265.018 123.256 266.684 123.477 268.29 123.16C269.524 123.009 270.675 122.461 271.57 121.6C272.147 120.92 272.542 120.104 272.717 119.229C272.892 118.355 272.841 117.45 272.57 116.6C272.19 115.178 271.421 113.89 270.35 112.88" fill="#F49885"/>
<path d="M241.6 79.78C241.507 80.8022 241.817 81.8204 242.463 82.6179C243.109 83.4154 244.041 83.9292 245.06 84.05C245.557 84.1307 246.064 84.1112 246.553 83.9927C247.042 83.8742 247.502 83.659 247.907 83.3598C248.311 83.0607 248.652 82.6836 248.908 82.2509C249.165 81.8181 249.332 81.3384 249.4 80.84C249.493 79.8178 249.184 78.7996 248.538 78.0021C247.891 77.2046 246.96 76.6908 245.94 76.57C245.444 76.4879 244.935 76.5063 244.446 76.6243C243.957 76.7422 243.496 76.9573 243.091 77.2566C242.686 77.556 242.346 77.9336 242.09 78.3671C241.834 78.8005 241.667 79.281 241.6 79.78Z" fill="#263238"/>
<path d="M235.68 70.51C236.12 71.06 239.28 69.1 243.5 69.45C247.72 69.8 250.66 72.17 251.16 71.69C251.4 71.48 250.98 70.52 249.71 69.42C247.981 68.0062 245.858 67.1611 243.63 67C241.434 66.8163 239.236 67.3307 237.35 68.47C236 69.37 235.46 70.26 235.68 70.51Z" fill="#263238"/>
<path d="M279.95 83.25C279.855 84.2727 280.163 85.2923 280.81 86.0904C281.456 86.8885 282.39 87.4016 283.41 87.52C283.907 87.6007 284.414 87.5812 284.903 87.4627C285.392 87.3442 285.852 87.129 286.257 86.8298C286.661 86.5307 287.002 86.1536 287.258 85.7209C287.515 85.2881 287.682 84.8084 287.75 84.31C287.831 83.2893 287.517 82.2766 286.873 81.4803C286.23 80.6841 285.305 80.165 284.29 80.03C283.793 79.9493 283.285 79.9692 282.795 80.0883C282.306 80.2075 281.845 80.4235 281.44 80.7237C281.036 81.0239 280.696 81.4021 280.44 81.836C280.184 82.2699 280.017 82.7507 279.95 83.25Z" fill="#263238"/>
<path d="M276.25 74.82C276.7 75.37 279.86 73.41 284.08 73.82C288.3 74.23 291.23 76.54 291.73 76.06C291.98 75.85 291.56 74.88 290.28 73.79C288.557 72.3706 286.436 71.5214 284.21 71.36C282.013 71.173 279.813 71.6914 277.93 72.84C276.55 73.68 276 74.57 276.25 74.82Z" fill="#263238"/>
<path d="M259.36 105C259.36 104.76 256.81 104.1 252.6 103.21C251.53 103.01 250.52 102.71 250.4 101.96C250.28 101.21 250.75 100.03 251.4 98.82L255.26 90.82C260.64 79.48 264.63 70.12 264.17 69.9C263.71 69.68 258.98 78.71 253.6 90.05C252.3 92.85 251.05 95.52 249.87 98.05C249.36 99.24 248.54 100.58 248.96 102.24C249.086 102.633 249.301 102.992 249.587 103.29C249.872 103.588 250.222 103.817 250.61 103.96C251.194 104.172 251.802 104.31 252.42 104.37C256.67 105.05 259.32 105.28 259.36 105Z" fill="#263238"/>
<path d="M271.56 109C270.88 108.9 270.5 113.49 266.3 116.43C262.1 119.37 257.3 118.43 257.18 119.1C257.09 119.38 258.18 120.1 260.26 120.3C262.947 120.554 265.637 119.845 267.85 118.3C269.981 116.829 271.458 114.588 271.97 112.05C272.3 110.15 271.88 109 271.56 109Z" fill="#263238"/>
<path d="M277.5 58.29C277.82 59.47 282.09 59.29 287 60.29C291.91 61.29 295.81 62.97 296.55 61.99C296.89 61.52 296.28 60.39 294.75 59.14C292.705 57.5988 290.334 56.5453 287.819 56.06C285.305 55.5748 282.712 55.6705 280.24 56.34C278.36 56.9 277.37 57.73 277.5 58.29Z" fill="#263238"/>
<path d="M238.31 58.67C238.98 59.67 241.97 58.93 245.48 59.17C248.99 59.41 251.89 60.34 252.65 59.39C252.99 58.93 252.6 57.93 251.38 56.92C249.73 55.6873 247.75 54.9738 245.693 54.8705C243.636 54.7672 241.595 55.2787 239.83 56.34C238.51 57.22 238 58.18 238.31 58.67Z" fill="#263238"/>
<path d="M320.83 93C321.31 92.83 340.18 89 338.05 107.7C335.92 126.4 317.53 120.45 317.56 119.91C317.59 119.37 320.83 93 320.83 93Z" fill="#F8B5B7"/>
<path d="M324.1 113.49C324.19 113.44 324.4 113.76 324.92 114.08C325.662 114.496 326.536 114.611 327.36 114.4C329.42 113.9 331.45 110.94 331.92 107.57C332.15 105.968 332.02 104.335 331.54 102.79C331.43 102.183 331.174 101.612 330.794 101.126C330.414 100.64 329.922 100.254 329.36 100C329.001 99.8606 328.605 99.8513 328.239 99.9737C327.874 100.096 327.563 100.342 327.36 100.67C327.04 101.17 327.12 101.56 327.02 101.58C326.92 101.6 326.65 101.22 326.89 100.46C327.048 100.009 327.355 99.6242 327.76 99.37C328.037 99.2037 328.344 99.0942 328.663 99.0479C328.982 99.0015 329.308 99.0192 329.62 99.1C331.06 99.36 332.21 100.84 332.71 102.39C333.322 104.106 333.504 105.947 333.24 107.75C332.7 111.51 330.36 114.83 327.56 115.31C327.04 115.399 326.507 115.369 326 115.224C325.492 115.078 325.024 114.821 324.63 114.47C324.08 114 324 113.52 324.1 113.49Z" fill="#744A3C"/>
<path d="M246.22 27.59C243.39 25.59 254.34 16.53 262.22 14.06C274.11 10.33 291.69 9.28999 301.71 13.5C313.78 18.58 323.4 26.07 328.29 38.22C333.18 50.37 333.91 63.91 331.95 76.85C331.36 80.85 330.44 84.85 327.95 87.98C324.86 91.76 319.61 93.75 319.03 99.35C318.92 101.378 318.078 103.297 316.66 104.75C312.66 108.45 308.75 104.4 307.21 100.63C303.99 92.81 304.6 84.02 305.21 75.63C305.67 69.86 306.47 61.14 308.57 55.75C309.366 53.7487 309.851 51.6378 310.01 49.49C310.354 45.983 309.688 42.4507 308.09 39.31C307.649 38.6292 307.147 37.9899 306.59 37.4C304.551 35.2585 301.99 33.6857 299.157 32.8369C296.325 31.9881 293.32 31.8926 290.44 32.56C279.36 34.98 270.1 39.92 258.44 33.38C255.86 31.93 254.79 29.53 253.69 28.09C252.05 25.94 248.35 25.72 246.27 27.44L246.22 27.59Z" fill="#263238"/>
<path d="M316.94 126.68C316.85 126.68 316.69 127.08 317.02 127.68C317.284 128.075 317.627 128.411 318.025 128.669C318.424 128.927 318.872 129.101 319.34 129.18C320.685 129.47 322.088 129.32 323.34 128.75C324.92 128.049 326.162 126.756 326.8 125.15C327.434 123.55 327.473 121.776 326.91 120.15C326.433 118.892 325.603 117.799 324.52 117C322.61 115.66 321.1 115.79 321.1 116C321.1 116.21 322.37 116.53 323.82 117.88C324.738 118.72 325.379 119.819 325.66 121.031C325.94 122.243 325.846 123.512 325.39 124.67C324.913 125.805 324.087 126.759 323.032 127.394C321.977 128.029 320.747 128.311 319.52 128.2C318.786 128.158 318.085 127.881 317.52 127.41C317.14 127 317 126.67 316.94 126.68Z" fill="#263238"/>
<path d="M287.52 230.28C287.52 230.28 289.96 235.98 292.95 237.6C295.94 239.22 305.95 249 308.69 257.14C311.43 265.28 312.76 278.04 312.76 278.04L290.5 306C290.5 306 279.42 300.69 274.15 295.9C269.34 291.52 260.38 282.9 255.15 277.9C252.017 274.898 249.592 271.236 248.05 267.18C247.65 266.1 247.42 265.27 247.58 265.03C248.12 264.22 249.48 262.59 249.48 262.59C249.48 262.59 248.66 259.06 250.02 256.89C251.38 254.72 252.19 253.36 252.19 253.36C252.19 253.36 250.1 248.93 250.91 246.76C251.582 245.274 252.613 243.979 253.91 242.99C253.91 242.99 238.69 233.82 238.42 231.11C238.15 228.4 237.75 227.66 241 227.66C244.25 227.66 263.07 234.37 268.23 237.35C273.39 240.33 284.51 245.49 284.51 245.49C284.51 245.49 279.11 231.91 287.52 230.28Z" fill="#F8B5B7"/>
<path d="M284.52 245.73C285.405 246.28 286.335 246.755 287.3 247.15L294.09 250.38L300.86 253.68C301.777 254.18 302.729 254.611 303.71 254.97C302.869 254.348 301.972 253.805 301.03 253.35C299.34 252.42 296.97 251.19 294.32 249.91C291.67 248.63 289.23 247.56 287.45 246.82C286.508 246.371 285.527 246.006 284.52 245.73Z" fill="#744A3C"/>
<path d="M252.11 241.73C252.416 242.027 252.751 242.291 253.11 242.52C253.76 243.01 254.72 243.69 255.92 244.52C258.31 246.17 261.67 248.37 265.45 250.69C269.23 253.01 272.74 254.97 275.3 256.35C276.58 257.04 277.62 257.58 278.35 257.94C278.717 258.152 279.106 258.323 279.51 258.45C279.182 258.183 278.827 257.952 278.45 257.76L275.45 256.03C272.93 254.57 269.45 252.55 265.69 250.24C261.93 247.93 258.53 245.78 256.09 244.24L253.19 242.39C252.857 242.129 252.494 241.908 252.11 241.73Z" fill="#744A3C"/>
<path d="M251.86 253.69C251.86 253.69 252.06 253.98 252.49 254.43C252.92 254.88 253.57 255.51 254.38 256.28C256.02 257.8 258.38 259.82 261.08 261.87C263.4 263.621 265.81 265.25 268.3 266.75C269.3 267.33 270.05 267.75 270.6 268.06C270.875 268.233 271.171 268.37 271.48 268.47C270.523 267.741 269.521 267.073 268.48 266.47C266.62 265.25 264.08 263.52 261.37 261.47C258.66 259.42 256.3 257.47 254.61 256.02C253.736 255.195 252.818 254.417 251.86 253.69Z" fill="#744A3C"/>
<path d="M249.62 261.08C249.486 261.395 249.438 261.74 249.48 262.08C249.538 263.031 249.834 263.953 250.34 264.76C251.108 265.928 252.084 266.945 253.22 267.76C254.46 268.7 255.82 269.7 257.22 270.76C260.1 272.87 262.72 274.76 264.63 276.12C265.63 276.79 266.37 277.33 266.91 277.69C267.182 277.9 267.477 278.078 267.79 278.22C267.57 277.955 267.315 277.723 267.03 277.53C266.53 277.12 265.78 276.53 264.85 275.82C262.99 274.4 260.41 272.45 257.53 270.34C254.65 268.23 251.84 266.51 250.61 264.54C250.085 263.797 249.742 262.94 249.61 262.04C249.6 261.45 249.66 261.08 249.62 261.08Z" fill="#744A3C"/>
<path d="M139.1 304.69L165 246H165.16L140.07 204L147.91 195.66L189 188.22C189 188.22 191.71 177.56 195.06 177.78C198.41 178 200.37 179.01 200.73 192.78C200.73 192.78 202.34 216.29 202.82 222.38C203.21 227.46 202.93 239.88 202.82 243.38C202.82 243.61 202.82 243.86 202.82 244.15V244.32C202.03 258.26 186.39 329.13 183.82 337.44C182.51 341.62 178.7 343.58 174.46 344.44C170.205 345.222 165.82 344.891 161.73 343.479C157.641 342.066 153.986 339.621 151.12 336.38C145.35 329.96 138.5 320.11 138.12 309.25L139.1 304.69ZM200.75 193.57C200.75 193.8 200.75 193.98 200.75 194.13C200.76 194 200.75 193.76 200.75 193.57Z" fill="#F8B5B7"/>
<path d="M139.87 122.96H190.57C193.691 122.96 196.22 125.49 196.22 128.61V238.78C196.22 241.9 193.691 244.43 190.57 244.43H139.87C136.75 244.43 134.22 241.9 134.22 238.78V128.61C134.22 125.49 136.75 122.96 139.87 122.96Z" fill="#263238"/>
<path d="M140.15 128.35H189.89C191.785 128.35 193.32 129.886 193.32 131.78V238.17C193.32 240.064 191.785 241.6 189.89 241.6H140.15C138.256 241.6 136.72 240.064 136.72 238.17V131.78C136.72 129.886 138.256 128.35 140.15 128.35Z" fill="white"/>
<path d="M169 236.12C169 236.393 169.081 236.66 169.233 236.887C169.384 237.114 169.6 237.291 169.852 237.395C170.104 237.499 170.382 237.527 170.649 237.473C170.917 237.42 171.163 237.289 171.356 237.096C171.549 236.903 171.68 236.657 171.734 236.389C171.787 236.122 171.76 235.844 171.655 235.592C171.551 235.34 171.374 235.124 171.147 234.973C170.92 234.821 170.653 234.74 170.38 234.74C170.199 234.739 170.019 234.773 169.851 234.842C169.683 234.911 169.53 235.013 169.401 235.141C169.273 235.27 169.171 235.422 169.103 235.59C169.034 235.758 168.999 235.938 169 236.12Z" fill="#E0E0E0"/>
<path d="M163.33 236.12C163.359 236.464 163.517 236.785 163.772 237.019C164.026 237.253 164.359 237.383 164.705 237.383C165.051 237.383 165.384 237.253 165.638 237.019C165.893 236.785 166.051 236.464 166.08 236.12C166.096 235.93 166.073 235.738 166.011 235.557C165.949 235.376 165.851 235.21 165.721 235.069C165.592 234.928 165.435 234.816 165.26 234.739C165.085 234.662 164.896 234.623 164.705 234.623C164.514 234.623 164.325 234.662 164.15 234.739C163.975 234.816 163.818 234.928 163.689 235.069C163.559 235.21 163.461 235.376 163.399 235.557C163.337 235.738 163.314 235.93 163.33 236.12Z" fill="#E0E0E0"/>
<path d="M157.68 236.12C157.709 236.464 157.867 236.785 158.122 237.019C158.376 237.253 158.709 237.383 159.055 237.383C159.401 237.383 159.734 237.253 159.988 237.019C160.243 236.785 160.401 236.464 160.43 236.12C160.446 235.93 160.423 235.738 160.361 235.557C160.299 235.376 160.201 235.21 160.072 235.069C159.942 234.928 159.785 234.816 159.61 234.739C159.435 234.662 159.246 234.623 159.055 234.623C158.864 234.623 158.675 234.662 158.5 234.739C158.325 234.816 158.168 234.928 158.039 235.069C157.909 235.21 157.811 235.376 157.749 235.557C157.687 235.738 157.664 235.93 157.68 236.12Z" fill="#E0E0E0"/>
<path d="M141.3 135.4C141.3 135.4 142.5 135.47 143.97 135.48C145.44 135.49 146.63 135.48 146.63 135.48C146.63 135.48 145.44 135.42 143.97 135.41C142.5 135.4 141.3 135.37 141.3 135.4Z" fill="#263238"/>
<path d="M141.29 136.76C141.29 136.76 142.48 136.83 143.95 136.84C145.42 136.85 146.62 136.84 146.62 136.84C146.62 136.84 145.43 136.77 143.96 136.76C142.49 136.75 141.29 136.73 141.29 136.76Z" fill="#263238"/>
<path d="M141.28 138.12C142.165 138.191 143.053 138.218 143.94 138.2C145.41 138.2 146.6 138.2 146.61 138.2C146.62 138.2 145.41 138.13 143.94 138.12C142.47 138.11 141.28 138.09 141.28 138.12Z" fill="#263238"/>
<path d="M188.45 138.94H188H186.86C186.86 138.69 186.86 138.42 186.86 138.12C186.87 137.963 186.87 137.806 186.86 137.65C186.845 137.558 186.799 137.473 186.73 137.41C186.662 137.346 186.573 137.308 186.48 137.3C186.3 137.29 186.12 137.29 185.94 137.3C185.835 137.317 185.739 137.37 185.67 137.45C185.6 137.531 185.561 137.634 185.56 137.74C185.56 138.13 185.56 138.53 185.56 138.94H185.61H184.18L184.23 138.99C184.23 138.42 184.23 137.82 184.23 137.21V136.75C184.23 136.61 184.32 136.52 184.44 136.41L185.06 135.79L185.67 135.2L185.96 134.91C186.06 134.81 186.14 134.71 186.26 134.69C186.316 134.675 186.375 134.672 186.432 134.683C186.489 134.693 186.543 134.716 186.59 134.75L186.85 135.01L187.37 135.53C187.69 135.87 188.03 136.17 188.27 136.46C188.348 136.629 188.373 136.817 188.34 137C188.34 137.18 188.34 137.35 188.34 137.5V138.32C188.34 138.53 188.34 138.7 188.34 138.84V139.03C188.34 139.03 188.34 138.97 188.34 138.85C188.34 138.73 188.34 138.55 188.34 138.34C188.34 138.13 188.34 137.83 188.34 137.52C188.34 137.36 188.34 137.19 188.34 137.01V136.72C188.337 136.615 188.31 136.512 188.26 136.42C188 136.1 187.68 135.81 187.35 135.42L186.84 134.89C186.755 134.795 186.665 134.705 186.57 134.62C186.511 134.576 186.442 134.546 186.369 134.532C186.297 134.518 186.222 134.521 186.15 134.54C186.017 134.588 185.9 134.671 185.81 134.78L185.51 135.07C185.31 135.27 185.11 135.46 184.91 135.67L184.28 136.28C184.222 136.335 184.168 136.396 184.12 136.46C184.069 136.53 184.041 136.614 184.04 136.7V137.16C184.04 137.77 184.04 138.36 184.04 138.94V139H185.59V137.74C185.591 137.657 185.62 137.577 185.673 137.513C185.726 137.45 185.799 137.406 185.88 137.39H186.4C186.475 137.399 186.544 137.43 186.6 137.48C186.656 137.531 186.694 137.597 186.71 137.67C186.71 137.82 186.71 137.98 186.71 138.13V139H188.29L188.45 138.94Z" fill="#263238"/>
<path d="M156.34 137.51C159.453 137.774 162.578 137.86 165.7 137.77C168.822 137.86 171.947 137.774 175.06 137.51C171.947 137.252 168.822 137.166 165.7 137.25C162.578 137.166 159.453 137.252 156.34 137.51Z" fill="#FF725E"/>
<path d="M155.2 126.48H173.32C173.413 126.481 173.505 126.464 173.591 126.43C173.677 126.395 173.756 126.344 173.822 126.279C173.888 126.213 173.94 126.136 173.976 126.05C174.012 125.965 174.03 125.873 174.03 125.78C174.03 125.687 174.012 125.595 173.976 125.51C173.94 125.424 173.888 125.347 173.822 125.281C173.756 125.216 173.677 125.165 173.591 125.13C173.505 125.096 173.413 125.079 173.32 125.08H155.2C155.015 125.08 154.837 125.154 154.705 125.285C154.574 125.416 154.5 125.594 154.5 125.78C154.5 125.966 154.574 126.144 154.705 126.275C154.837 126.406 155.015 126.48 155.2 126.48Z" fill="#455A64"/>
<path d="M136.44 177.55C134.964 177.334 133.457 177.568 132.116 178.221C130.774 178.875 129.661 179.918 128.922 181.213C128.182 182.509 127.85 183.998 127.969 185.485C128.089 186.972 128.654 188.389 129.59 189.55C128.556 189.984 127.657 190.687 126.984 191.584C126.312 192.482 125.891 193.542 125.765 194.657C125.638 195.771 125.811 196.899 126.266 197.924C126.72 198.95 127.44 199.835 128.35 200.49C124.59 202.24 123.42 207.69 125.76 211.11C128.1 214.53 133.1 215.56 136.86 213.82C137.6 213.539 138.267 213.094 138.81 212.52C139.354 211.945 139.761 211.254 140 210.5C140.132 209.681 140.048 208.842 139.757 208.065C139.466 207.289 138.977 206.601 138.34 206.07C137.052 205.023 135.59 204.211 134.02 203.67C135.517 203.357 136.874 202.572 137.893 201.432C138.912 200.291 139.538 198.854 139.681 197.332C139.825 195.809 139.476 194.281 138.688 192.971C137.9 191.66 136.712 190.637 135.3 190.05C136.432 189.663 137.428 188.959 138.169 188.02C138.91 187.082 139.366 185.95 139.48 184.76C139.66 182.38 138.58 178.62 136.48 177.55" fill="#F8B5B7"/>
<path d="M188.66 172.09C192.867 174.196 196.48 177.321 199.17 181.18L198.33 192.39C194.8 190.2 191.42 187.55 189.33 183.97C187.24 180.39 186.63 175.71 188.66 172.09Z" fill="#F8B5B7"/>
<path d="M172.384 168.595L173.204 166.135C173.6 164.948 173.802 163.704 173.802 162.452C173.802 160.07 172.856 157.786 171.172 156.103C169.488 154.419 167.204 153.473 164.823 153.473C162.441 153.473 160.157 154.419 158.473 156.103C156.789 157.786 155.843 160.07 155.843 162.452C155.843 163.704 156.045 164.948 156.441 166.135L157.261 168.595H172.384Z" fill="#4F4F55"/>
<path d="M164.822 153.473C166.921 153.469 168.953 154.204 170.564 155.548C169.491 155.113 168.344 154.889 167.185 154.89C164.804 154.89 162.52 155.836 160.836 157.52C159.152 159.204 158.206 161.488 158.206 163.87C158.206 165.122 158.408 166.365 158.804 167.553L159.151 168.595H157.261L156.441 166.135C156.045 164.948 155.843 163.704 155.843 162.452C155.843 160.07 156.789 157.786 158.473 156.103C160.157 154.419 162.441 153.473 164.822 153.473Z" fill="#2F2E41"/>
<path d="M159.298 177.46L162.315 179.975C163.019 180.562 163.906 180.883 164.822 180.883C165.738 180.883 166.626 180.562 167.329 179.975L170.347 177.46C170.841 177.049 171.246 176.541 171.537 175.967C171.827 175.393 171.998 174.767 172.038 174.125L172.384 168.595L171.779 162.548C171.686 161.615 171.249 160.75 170.554 160.121C169.859 159.492 168.955 159.144 168.017 159.144H161.628C160.69 159.144 159.786 159.492 159.091 160.121C158.396 160.75 157.959 161.615 157.866 162.548L157.261 168.595L157.607 174.125C157.647 174.767 157.817 175.393 158.108 175.967C158.399 176.541 158.804 177.049 159.298 177.46Z" fill="#FFB8B8"/>
<path d="M157.733 166.232H156.316C156.065 166.232 155.825 166.332 155.647 166.509C155.47 166.687 155.37 166.927 155.37 167.178V169.541C155.37 170.167 155.619 170.768 156.063 171.211C156.506 171.655 157.107 171.904 157.733 171.904V166.232Z" fill="#FFB8B8"/>
<path d="M171.911 166.232H173.329C173.579 166.232 173.82 166.332 173.997 166.509C174.174 166.687 174.274 166.927 174.274 167.178V169.541C174.274 170.167 174.025 170.768 173.582 171.211C173.139 171.655 172.538 171.904 171.911 171.904V166.232Z" fill="#FFB8B8"/>
<path d="M163.301 172.376H164.822V167.178L164.74 167.31C164.546 169.066 164.043 170.854 163.301 172.376Z" fill="#FFB8B8"/>
<path d="M167.658 175.212L165.767 174.267L164.822 174.739L163.877 174.267L161.987 175.212L163.877 176.157H165.767L167.658 175.212Z" fill="#2F2E41"/>
<path d="M161.987 175.212H162.459C162.311 175.212 162.163 175.217 162.017 175.227L161.987 175.212Z" fill="#B20D24"/>
<path d="M162.459 175.212H167.658L165.822 176.13C164.804 175.527 163.642 175.21 162.459 175.212Z" fill="#4F4F55"/>
<path d="M163.405 167.178L162.834 166.734C162.421 166.413 161.862 166.232 161.278 166.232C160.695 166.232 160.135 166.413 159.722 166.734L159.151 167.178L159.722 167.622C160.135 167.943 160.695 168.123 161.278 168.123C161.862 168.123 162.421 167.943 162.834 167.622L163.405 167.178Z" fill="#EDEDEB"/>
<path d="M159.743 166.719C160.153 166.407 160.704 166.232 161.278 166.232C161.862 166.232 162.421 166.413 162.834 166.734L163.405 167.178L163.222 167.32C162.093 166.97 160.924 166.768 159.743 166.719Z" fill="#CECECC"/>
<path d="M161.278 167.887C160.886 167.887 160.569 167.569 160.569 167.178C160.569 166.786 160.886 166.469 161.278 166.469C161.669 166.469 161.987 166.786 161.987 167.178C161.987 167.569 161.669 167.887 161.278 167.887Z" fill="#3F484F"/>
<path d="M160.684 166.791C160.759 166.676 160.865 166.585 160.99 166.53C161.115 166.474 161.254 166.456 161.389 166.478C161.524 166.499 161.65 166.559 161.752 166.651C161.854 166.743 161.927 166.862 161.962 166.994C161.543 166.907 161.117 166.839 160.684 166.791Z" fill="#2A3135"/>
<path d="M170.493 167.178L169.922 166.734C169.51 166.413 168.95 166.232 168.367 166.232C167.783 166.232 167.223 166.413 166.811 166.734L166.24 167.178L166.811 167.622C167.223 167.943 167.783 168.123 168.367 168.123C168.95 168.123 169.51 167.943 169.922 167.622L170.493 167.178Z" fill="#EDEDEB"/>
<path d="M166.847 166.707C167.29 166.392 167.823 166.226 168.367 166.232C168.95 166.232 169.51 166.413 169.922 166.734L170.493 167.178L170.289 167.337C169.186 166.933 168.022 166.72 166.847 166.707Z" fill="#CECECC"/>
<path d="M157.866 162.548C157.917 162.03 158.076 161.527 158.331 161.073C158.586 160.618 158.932 160.222 159.349 159.908C159.344 159.941 159.339 159.975 159.336 160.009L158.679 166.582L159.054 172.592C159.098 173.289 159.284 173.971 159.6 174.594C159.916 175.218 160.356 175.77 160.893 176.218L164.173 178.951C164.619 179.323 165.136 179.6 165.694 179.765C166.251 179.929 166.836 179.977 167.413 179.906L167.329 179.975C166.625 180.562 165.738 180.883 164.822 180.883C163.906 180.883 163.019 180.562 162.315 179.975L159.298 177.46C158.804 177.049 158.399 176.54 158.108 175.967C157.817 175.393 157.647 174.767 157.607 174.125L157.261 168.595L157.866 162.548Z" fill="#FFB8B8"/>
<path d="M163.405 165.287V164.342L161.514 163.87L158.679 165.287L161.987 164.815L163.405 165.287Z" fill="#2F2E41"/>
<path d="M166.24 165.287V164.342L168.131 163.87L170.966 165.287L167.658 164.815L166.24 165.287Z" fill="#2F2E41"/>
<path d="M178.055 158.198H179V153.473C179 153.347 178.95 153.227 178.862 153.138C178.773 153.05 178.653 153 178.527 153H173.802V153.945H178.055V158.198Z" fill="#E63946"/>
<path d="M150.645 158.198H151.59V153.945H155.843V153H151.117C150.992 153 150.872 153.05 150.783 153.138C150.695 153.227 150.645 153.347 150.645 153.473V158.198Z" fill="#E63946"/>
<path d="M151.117 181.355H155.843V180.41H151.59V176.157H150.645V180.883C150.645 181.008 150.695 181.128 150.783 181.217C150.872 181.306 150.992 181.355 151.117 181.355Z" fill="#E63946"/>
<path d="M173.802 181.355H178.527C178.653 181.355 178.773 181.306 178.862 181.217C178.95 181.128 179 181.008 179 180.883V176.157H178.055V180.41H173.802V181.355Z" fill="#E63946"/>
<path d="M166.24 166.941H163.405V167.414H166.24V166.941Z" fill="#B7B2A5"/>
<path d="M166.755 172.609L171.953 171.663C171.987 171.657 172.018 171.644 172.046 171.625C172.074 171.606 172.097 171.581 172.114 171.551C172.132 171.522 172.143 171.49 172.146 171.456C172.15 171.422 172.146 171.388 172.135 171.356L170.718 167.103L170.269 167.252L171.601 171.247L166.67 172.144L166.755 172.609Z" fill="#B7B2A5"/>
<path d="M162.932 172.612H166.713C166.745 172.612 166.778 172.606 166.808 172.592C166.838 172.579 166.865 172.56 166.887 172.535C166.909 172.511 166.926 172.483 166.936 172.452C166.947 172.42 166.951 172.387 166.948 172.355L166.485 167.266L168.77 164.982L168.436 164.648L166.073 167.011C166.048 167.035 166.03 167.065 166.018 167.097C166.006 167.13 166.002 167.165 166.005 167.199L166.454 172.14H163.191L163.64 167.199C163.643 167.165 163.638 167.13 163.626 167.097C163.615 167.065 163.596 167.035 163.571 167.011L161.208 164.648L160.874 164.982L163.159 167.266L162.697 172.355C162.694 172.387 162.697 172.42 162.708 172.451C162.718 172.483 162.735 172.511 162.757 172.535C162.779 172.56 162.806 172.579 162.836 172.592C162.867 172.606 162.899 172.612 162.932 172.612Z" fill="#B7B2A5"/>
<path d="M162.89 172.609L162.974 172.144L158.044 171.247L159.375 167.252L158.927 167.103L157.509 171.356C157.499 171.388 157.495 171.422 157.498 171.456C157.502 171.49 157.513 171.522 157.53 171.551C157.547 171.58 157.571 171.606 157.598 171.625C157.626 171.644 157.658 171.657 157.691 171.663L162.89 172.609Z" fill="#B7B2A5"/>
<path d="M164.822 181.119C164.866 181.119 164.909 181.107 164.946 181.084C164.984 181.061 165.014 181.028 165.034 180.988L167.869 175.317L167.446 175.106L164.822 180.354L162.198 175.106L161.775 175.317L164.611 180.988C164.631 181.028 164.661 181.061 164.698 181.084C164.735 181.107 164.778 181.119 164.822 181.119Z" fill="#B7B2A5"/>
<path d="M158.934 167.271L159.368 167.085L158.146 164.233L160.977 165.042C160.998 165.048 161.02 165.051 161.042 165.051H168.603C168.625 165.051 168.647 165.048 168.668 165.042L171.498 164.233L170.276 167.085L170.711 167.271L172.128 163.963C172.146 163.922 172.152 163.876 172.144 163.832C172.137 163.788 172.118 163.747 172.088 163.713C172.059 163.68 172.021 163.655 171.978 163.643C171.935 163.63 171.889 163.63 171.846 163.642L168.57 164.578H161.075L157.798 163.642C157.755 163.63 157.71 163.63 157.667 163.643C157.624 163.655 157.586 163.68 157.556 163.713C157.527 163.747 157.507 163.788 157.5 163.832C157.493 163.876 157.499 163.922 157.516 163.963L158.934 167.271Z" fill="#B7B2A5"/>
<path d="M172.079 171.605L171.765 171.252L167.514 175.031L167.828 175.384L172.079 171.605Z" fill="#B7B2A5"/>
<path d="M162.158 175.031L157.907 171.252L157.593 171.605L161.844 175.384L162.158 175.031Z" fill="#B7B2A5"/>
<path d="M171.91 164.342C171.649 164.342 171.438 164.131 171.438 163.87C171.438 163.609 171.649 163.397 171.91 163.397C172.171 163.397 172.383 163.609 172.383 163.87C172.383 164.131 172.171 164.342 171.91 164.342Z" fill="#2F2E41"/>
<path d="M168.603 165.287C168.342 165.287 168.131 165.076 168.131 164.815C168.131 164.554 168.342 164.342 168.603 164.342C168.864 164.342 169.076 164.554 169.076 164.815C169.076 165.076 168.864 165.287 168.603 165.287Z" fill="#2F2E41"/>
<path d="M161.042 165.287C160.781 165.287 160.569 165.076 160.569 164.815C160.569 164.554 160.781 164.342 161.042 164.342C161.303 164.342 161.514 164.554 161.514 164.815C161.514 165.076 161.303 165.287 161.042 165.287Z" fill="#2F2E41"/>
<path d="M157.733 164.342C157.472 164.342 157.261 164.131 157.261 163.87C157.261 163.609 157.472 163.397 157.733 163.397C157.994 163.397 158.206 163.609 158.206 163.87C158.206 164.131 157.994 164.342 157.733 164.342Z" fill="#2F2E41"/>
<path d="M159.151 167.65C158.89 167.65 158.678 167.439 158.678 167.178C158.678 166.917 158.89 166.705 159.151 166.705C159.412 166.705 159.624 166.917 159.624 167.178C159.624 167.439 159.412 167.65 159.151 167.65Z" fill="#2F2E41"/>
<path d="M157.733 171.904C157.472 171.904 157.261 171.692 157.261 171.431C157.261 171.17 157.472 170.958 157.733 170.958C157.994 170.958 158.206 171.17 158.206 171.431C158.206 171.692 157.994 171.904 157.733 171.904Z" fill="#2F2E41"/>
<path d="M166.24 167.65C165.979 167.65 165.768 167.439 165.768 167.178C165.768 166.917 165.979 166.705 166.24 166.705C166.501 166.705 166.713 166.917 166.713 167.178C166.713 167.439 166.501 167.65 166.24 167.65Z" fill="#2F2E41"/>
<path d="M163.404 167.65C163.143 167.65 162.932 167.439 162.932 167.178C162.932 166.917 163.143 166.705 163.404 166.705C163.665 166.705 163.877 166.917 163.877 167.178C163.877 167.439 163.665 167.65 163.404 167.65Z" fill="#2F2E41"/>
<path d="M170.493 167.65C170.232 167.65 170.021 167.439 170.021 167.178C170.021 166.917 170.232 166.705 170.493 166.705C170.754 166.705 170.966 166.917 170.966 167.178C170.966 167.439 170.754 167.65 170.493 167.65Z" fill="#2F2E41"/>
<path d="M171.911 171.904C171.65 171.904 171.439 171.692 171.439 171.431C171.439 171.17 171.65 170.958 171.911 170.958C172.172 170.958 172.384 171.17 172.384 171.431C172.384 171.692 172.172 171.904 171.911 171.904Z" fill="#2F2E41"/>
<path d="M164.822 181.3C164.561 181.3 164.35 181.088 164.35 180.827C164.35 180.566 164.561 180.354 164.822 180.354C165.083 180.354 165.295 180.566 165.295 180.827C165.295 181.088 165.083 181.3 164.822 181.3Z" fill="#2F2E41"/>
<path d="M166.934 172.476L166.512 172.265L165.567 174.154L165.989 174.365L166.934 172.476Z" fill="#B7B2A5"/>
<path d="M164.101 174.162L163.156 172.272L162.734 172.483L163.679 174.373L164.101 174.162Z" fill="#B7B2A5"/>
<path d="M162.932 172.849C162.671 172.849 162.46 172.637 162.46 172.376C162.46 172.115 162.671 171.904 162.932 171.904C163.193 171.904 163.405 172.115 163.405 172.376C163.405 172.637 163.193 172.849 162.932 172.849Z" fill="#666666"/>
<path d="M166.713 172.849C166.452 172.849 166.24 172.637 166.24 172.376C166.24 172.115 166.452 171.904 166.713 171.904C166.974 171.904 167.186 172.115 167.186 172.376C167.186 172.637 166.974 172.849 166.713 172.849Z" fill="#666666"/>
<path d="M162.093 175.423L163.933 174.503H165.712L167.552 175.423L167.764 175L165.823 174.03H163.822L161.881 175L162.093 175.423Z" fill="#B7B2A5"/>
<path d="M167.658 175.684C167.397 175.684 167.185 175.473 167.185 175.212C167.185 174.951 167.397 174.739 167.658 174.739C167.919 174.739 168.13 174.951 168.13 175.212C168.13 175.473 167.919 175.684 167.658 175.684Z" fill="#666666"/>
<path d="M163.877 174.739C163.616 174.739 163.404 174.528 163.404 174.267C163.404 174.006 163.616 173.794 163.877 173.794C164.138 173.794 164.35 174.006 164.35 174.267C164.35 174.528 164.138 174.739 163.877 174.739Z" fill="#666666"/>
<path d="M165.768 174.739C165.507 174.739 165.295 174.528 165.295 174.267C165.295 174.006 165.507 173.794 165.768 173.794C166.029 173.794 166.24 174.006 166.24 174.267C166.24 174.528 166.029 174.739 165.768 174.739Z" fill="#666666"/>
<path d="M161.987 175.684C161.726 175.684 161.514 175.473 161.514 175.212C161.514 174.951 161.726 174.739 161.987 174.739C162.248 174.739 162.459 174.951 162.459 175.212C162.459 175.473 162.248 175.684 161.987 175.684Z" fill="#666666"/>
<path d="M168.367 167.887C167.975 167.887 167.658 167.569 167.658 167.178C167.658 166.786 167.975 166.469 168.367 166.469C168.758 166.469 169.076 166.786 169.076 167.178C169.076 167.569 168.758 167.887 168.367 167.887Z" fill="#3F484F"/>
<path d="M167.794 166.762C167.871 166.655 167.976 166.572 168.098 166.522C168.22 166.472 168.353 166.457 168.483 166.478C168.613 166.5 168.734 166.557 168.833 166.643C168.932 166.73 169.006 166.842 169.044 166.968C168.632 166.874 168.215 166.805 167.794 166.762Z" fill="#2A3135"/>
<path d="M159.463 219.571C159.827 220.542 160.378 221.387 161.1 222.081C161.923 222.871 162.999 223.498 164.301 223.946C164.343 223.961 164.388 223.973 164.433 223.981C164.492 223.993 164.552 223.999 164.612 224H164.623C164.687 224 164.751 223.994 164.814 223.981C164.859 223.973 164.903 223.961 164.945 223.946C166.248 223.499 167.327 222.872 168.15 222.082C168.872 221.388 169.423 220.544 169.787 219.573C170.448 217.807 170.411 215.862 170.381 214.299L170.38 214.275C170.374 214.146 170.37 214.01 170.368 213.86C170.357 213.125 169.763 212.517 169.015 212.476C167.457 212.391 166.252 211.891 165.222 210.903L165.213 210.895C165.042 210.741 164.826 210.665 164.612 210.668C164.405 210.671 164.199 210.746 164.034 210.895L164.025 210.903C162.995 211.891 161.79 212.391 160.231 212.476C159.484 212.517 158.89 213.125 158.879 213.86C158.877 214.011 158.873 214.146 158.867 214.275L158.866 214.285C158.836 215.851 158.799 217.8 159.463 219.571Z" fill="#F88790"/>
<path d="M159.464 219.571C159.829 220.542 160.381 221.387 161.105 222.081C161.929 222.87 163.008 223.498 164.312 223.946C164.355 223.961 164.399 223.973 164.444 223.981C164.503 223.993 164.564 223.999 164.624 224V210.668C164.416 210.671 164.21 210.746 164.045 210.895L164.036 210.903C163.004 211.89 161.796 212.39 160.234 212.476C159.485 212.517 158.89 213.125 158.879 213.86C158.877 214.011 158.873 214.146 158.867 214.275L158.866 214.285C158.836 215.851 158.799 217.8 159.464 219.571Z" fill="#E63946"/>
<path d="M161.241 217.334C161.241 219.14 162.752 220.611 164.612 220.617H164.624C166.489 220.617 168.006 219.144 168.006 217.334C168.006 215.524 166.489 214.051 164.624 214.051H164.612C162.752 214.057 161.241 215.528 161.241 217.334Z" fill="white"/>
<path d="M166.29 216.903L164.665 218.391L164.314 218.713C164.231 218.788 164.122 218.826 164.013 218.826C163.904 218.826 163.796 218.788 163.713 218.713L162.957 218.021C162.792 217.869 162.792 217.623 162.957 217.471C163.123 217.319 163.392 217.319 163.558 217.471L164.013 217.888L165.689 216.354C165.855 216.202 166.125 216.202 166.29 216.354C166.456 216.505 166.456 216.752 166.29 216.903Z" fill="#2F2E41"/>
<path d="M101.209 244.741L18.0965 244.69C13.296 244.687 8.6931 242.778 5.29967 239.382C1.90623 235.987 -9.28298e-07 231.383 0 226.582L0.0394179 18.2132C0.040157 15.8348 0.509441 13.4798 1.42048 11.2828C2.33151 9.08574 3.66646 7.08972 5.34904 5.4087C7.03162 3.72769 9.02889 2.39461 11.2268 1.48563C13.4246 0.57664 15.78 0.109547 18.1585 0.111026L101.271 0.15607C106.071 0.159055 110.674 2.06816 114.068 5.4637C117.461 8.85925 119.367 13.4633 119.367 18.2639L119.328 226.639C119.327 229.017 118.858 231.372 117.947 233.569C117.036 235.766 115.701 237.762 114.018 239.443C112.336 241.124 110.338 242.457 108.141 243.366C105.943 244.275 103.587 244.742 101.209 244.741Z" fill="#263238"/>
<path d="M102.414 4.18275H85.8545C85.3142 4.19409 84.7813 4.31248 84.2865 4.53115C83.7917 4.74981 83.3446 5.06446 82.9708 5.45708C82.5971 5.8497 82.304 6.31258 82.1083 6.81924C81.9126 7.3259 81.8183 7.86639 81.8306 8.40977V11.4025C81.8538 12.4995 81.4431 13.5609 80.6885 14.3535C79.934 15.1461 78.8974 15.605 77.8065 15.6295H45.5103C44.9675 15.6204 44.4317 15.5036 43.9339 15.2857C43.436 15.0678 42.9859 14.7532 42.6093 14.3599C42.2327 13.9666 41.9371 13.5023 41.7394 12.9938C41.5417 12.4853 41.4459 11.9425 41.4574 11.3966V8.38066C41.4697 7.83699 41.3754 7.29621 41.1798 6.78922C40.9842 6.28223 40.6912 5.81896 40.3175 5.42587C39.9438 5.03279 39.4967 4.7176 39.0019 4.4983C38.507 4.27901 37.974 4.15991 37.4334 4.14781H17.1281C13.6745 4.14625 10.3611 5.52202 7.9147 7.97344C5.46825 10.4249 4.08837 13.7518 4.07764 17.2248L4.03711 227.54C4.03711 231.016 5.41005 234.35 7.85407 236.809C10.2981 239.268 13.6131 240.65 17.0702 240.652L102.367 240.704C104.08 240.706 105.777 240.367 107.36 239.709C108.943 239.051 110.381 238.085 111.593 236.867C112.804 235.65 113.765 234.204 114.421 232.612C115.076 231.02 115.413 229.315 115.412 227.592L115.453 17.283C115.45 13.8075 114.074 10.4755 111.63 8.01902C109.185 5.56258 105.87 4.18274 102.414 4.18275Z" fill="white"/>
<path d="M51.9807 220.727C51.9841 221.042 51.8939 221.351 51.7216 221.615C51.5492 221.879 51.3026 222.085 51.0127 222.209C50.7228 222.333 50.4028 222.368 50.0931 222.309C49.7834 222.251 49.4979 222.103 49.2727 221.882C49.0475 221.662 48.8927 221.379 48.828 221.071C48.7632 220.762 48.7913 220.442 48.9088 220.149C49.0263 219.857 49.2279 219.606 49.4881 219.428C49.7482 219.25 50.0553 219.153 50.3704 219.15C50.7926 219.147 51.1988 219.311 51.5005 219.607C51.8022 219.902 51.9748 220.305 51.9807 220.727Z" fill="#263238"/>
<path d="M60.8997 220.653C60.903 220.969 60.8127 221.278 60.6401 221.542C60.4676 221.806 60.2206 222.013 59.9304 222.136C59.6402 222.26 59.3199 222.294 59.01 222.236C58.7001 222.177 58.4146 222.028 58.1896 221.807C57.9646 221.586 57.8103 221.303 57.7462 220.994C57.682 220.685 57.711 220.365 57.8294 220.072C57.9477 219.78 58.1502 219.529 58.4111 219.352C58.672 219.175 58.9796 219.079 59.295 219.077C59.7166 219.074 60.1223 219.238 60.4231 219.534C60.7238 219.829 60.8952 220.232 60.8997 220.653Z" fill="#263238"/>
<path d="M69.8245 220.586C69.8278 220.901 69.7375 221.21 69.5649 221.474C69.3924 221.738 69.1454 221.945 68.8552 222.069C68.565 222.192 68.2447 222.227 67.9348 222.168C67.6249 222.11 67.3394 221.96 67.1144 221.739C66.8894 221.518 66.7351 221.236 66.671 220.927C66.6069 220.618 66.6358 220.297 66.7542 220.005C66.8725 219.712 67.075 219.462 67.3359 219.285C67.5968 219.107 67.9044 219.012 68.2198 219.009C68.6414 219.006 69.0471 219.171 69.3479 219.466C69.6486 219.762 69.82 220.164 69.8245 220.586Z" fill="#263238"/>
<path d="M101.671 28.0666C101.671 28.1117 99.5705 28.168 96.9861 28.1905C94.4017 28.213 92.3071 28.1905 92.3071 28.1398C92.3071 28.0892 94.4186 28.0216 96.9861 28.0216C99.5536 28.0216 101.665 28.0216 101.671 28.0666Z" fill="#263238"/>
<path d="M101.687 30.4596C101.687 30.5103 99.5928 30.5666 97.0083 30.5891C94.4239 30.6116 92.3237 30.5891 92.3237 30.5384C92.3237 30.4878 94.4183 30.4315 97.0083 30.4089C99.5984 30.3864 101.687 30.4089 101.687 30.4596Z" fill="#263238"/>
<path d="M101.738 32.8526C101.738 32.9033 99.6379 32.9596 97.0535 32.9821C94.4691 33.0046 92.3745 32.9821 92.3745 32.9314C92.3745 32.8807 94.4691 32.8301 97.0535 32.8075C99.6379 32.785 101.704 32.8075 101.738 32.8526Z" fill="#263238"/>
<path d="M16.52 35.589H16.7115H17.2745L19.279 35.544L19.2283 35.5947C19.2283 35.1555 19.2283 34.6712 19.2283 34.1476C19.2143 33.87 19.2143 33.5919 19.2283 33.3143C19.2578 33.1554 19.3379 33.0104 19.4566 32.9008C19.5754 32.7912 19.7264 32.7229 19.8871 32.7062C20.208 32.7062 20.4952 32.7062 20.8443 32.7062C21.0258 32.7334 21.1913 32.8253 21.3103 32.965C21.4294 33.1047 21.4938 33.2828 21.4918 33.4663C21.4918 34.142 21.4918 34.8514 21.4918 35.5834L21.4073 35.4989H23.9298L23.8453 35.5834C23.8453 34.5699 23.8453 33.517 23.8453 32.4416C23.8453 32.1769 23.8453 31.8785 23.8453 31.642C23.8409 31.5261 23.8059 31.4135 23.744 31.3154C23.6653 31.2166 23.5787 31.1243 23.485 31.0396C23.1134 30.6736 22.7474 30.3076 22.3589 29.9529L21.2947 28.9056C21.1258 28.731 20.9513 28.5621 20.7823 28.3932C20.6134 28.2243 20.467 28.0441 20.2531 28.0047C20.1567 27.9814 20.0564 27.9793 19.9591 27.9988C19.8618 28.0182 19.77 28.0587 19.69 28.1173C19.538 28.2468 19.3747 28.427 19.2227 28.579L18.3162 29.4912C17.7531 30.0542 17.1563 30.6173 16.7227 31.1353C16.5975 31.4338 16.5547 31.7605 16.5988 32.0812C16.5988 32.3965 16.5988 32.6893 16.5988 32.9708C16.5988 33.5339 16.5988 33.9956 16.5988 34.401C16.5988 34.8064 16.5988 35.0766 16.5988 35.3188C16.5988 35.5609 16.5988 35.6453 16.5988 35.6453C16.5988 35.6453 16.5988 35.544 16.5988 35.3413C16.5988 35.1386 16.5988 34.7782 16.5988 34.4404C16.5988 34.1026 16.5989 33.5508 16.5707 32.999C16.5707 32.7118 16.5707 32.4359 16.5707 32.0925C16.5707 31.9292 16.5707 31.7659 16.5707 31.597C16.57 31.413 16.6186 31.2322 16.7115 31.0733C17.1788 30.5103 17.7362 29.9979 18.3105 29.3842L19.2058 28.4664C19.3691 28.3087 19.5042 28.1455 19.69 27.9822C19.7927 27.9055 19.9113 27.853 20.0371 27.8286C20.1628 27.8043 20.2925 27.8086 20.4164 27.8414C20.6513 27.9257 20.858 28.0739 21.0132 28.2693L21.5312 28.7761L22.601 29.8234L23.7271 30.91C23.8307 31.0019 23.925 31.1038 24.0086 31.2141C24.0875 31.3392 24.1322 31.4829 24.1381 31.6308C24.1381 31.901 24.1381 32.1938 24.1381 32.4359C24.1381 33.5114 24.1381 34.5643 24.1381 35.5778V35.6622H24.048H21.5256H21.4467V35.5778C21.4467 34.8458 21.4467 34.142 21.4467 33.4663C21.4489 33.3175 21.398 33.1728 21.303 33.0583C21.2081 32.9437 21.0753 32.8668 20.9287 32.8413C20.6359 32.8413 20.2925 32.8413 20.011 32.8413C19.8761 32.8519 19.7484 32.9059 19.6468 32.9952C19.5453 33.0846 19.4755 33.2044 19.4479 33.3368C19.4479 33.5958 19.4479 33.8999 19.4479 34.142C19.4479 34.6656 19.4479 35.1498 19.4479 35.5947V35.6453H19.3972H17.3646H16.7171C16.6495 35.6339 16.5834 35.615 16.52 35.589Z" fill="#263238"/>
<path d="M76.8201 91.7101C76.8201 99.3602 70.0561 98.2031 61.7123 98.2031C53.3685 98.2031 46.6045 99.3602 46.6045 91.7101C46.6045 84.06 49.9085 70.4997 61.7123 70.4997C73.9228 70.4997 76.8201 84.06 76.8201 91.7101Z" fill="#2F2E41"/>
<path d="M69.9801 91.2038C72.4711 86.6498 70.7964 80.9399 66.2395 78.4505C61.6827 75.961 55.9692 77.6347 53.4782 82.1887C50.9871 86.7427 52.6619 92.4525 57.2188 94.942C61.7756 97.4314 67.4891 95.7578 69.9801 91.2038Z" fill="#FFB8B8"/>
<path d="M49.8711 84.3827H53.9073L55.6879 79.4828L56.0439 84.3827H57.973L59.0117 81.5244L59.2195 84.3827H73.5536C73.5536 81.5671 72.4155 78.8668 70.3896 76.8758C68.3638 74.8849 65.6161 73.7664 62.7511 73.7664H60.6736C57.8086 73.7664 55.0609 74.8849 53.0351 76.8758C51.0092 78.8668 49.8711 81.5671 49.8711 84.3827Z" fill="#2F2E41"/>
<path d="M33.7425 81.5244C34.3063 81.5244 34.7633 81.0674 34.7633 80.5036C34.7633 79.9398 34.3063 79.4828 33.7425 79.4828C33.1787 79.4828 32.7217 79.9398 32.7217 80.5036C32.7217 81.0674 33.1787 81.5244 33.7425 81.5244Z" fill="#FF949C"/>
<path d="M85.3948 92.9573C85.8458 92.9573 86.2114 92.5003 86.2114 91.9365C86.2114 91.3727 85.8458 90.9157 85.3948 90.9157C84.9437 90.9157 84.5781 91.3727 84.5781 91.9365C84.5781 92.5003 84.9437 92.9573 85.3948 92.9573Z" fill="#FF949C"/>
<path d="M32.5852 59.4298H39.2544V57.4335H31.6324C31.3797 57.4335 31.1374 57.5387 30.9587 57.7259C30.7801 57.913 30.6797 58.1669 30.6797 58.4316V66.4166H32.5852V59.4298Z" fill="#FF949C"/>
<path d="M87.3002 57.4335H79.6782V59.4298H86.3474V66.4166H88.2529V58.4316C88.2529 58.1669 88.1526 57.913 87.9739 57.7259C87.7952 57.5387 87.5529 57.4335 87.3002 57.4335Z" fill="#FF949C"/>
<path d="M32.5852 106.432H30.6797V114.054C30.6797 114.307 30.7801 114.549 30.9587 114.728C31.1374 114.906 31.3797 115.007 31.6324 115.007H39.2544V113.101H32.5852V106.432Z" fill="#FF949C"/>
<path d="M86.3474 113.101H79.6782V115.007H87.3002C87.5529 115.007 87.7952 114.906 87.9739 114.728C88.1526 114.549 88.2529 114.307 88.2529 114.054V106.432H86.3474V113.101Z" fill="#FF949C"/>
<path d="M30.6797 85.1993H32.7213V87.2409H30.6797V85.1993Z" fill="#FF949C"/>
<path d="M86.2114 85.1993H88.253V87.2409H86.2114V85.1993Z" fill="#FF949C"/>
<path d="M82.5366 81.5244H88.2531V83.566H82.5366V81.5244Z" fill="#FF949C"/>
<path d="M82.5366 77.8495H84.5782V79.4828H82.5366V77.8495Z" fill="#FF949C"/>
<path d="M86.2114 77.8495H88.253V79.4828H86.2114V77.8495Z" fill="#FF949C"/>
<path d="M30.6797 89.2825H36.3962V90.9158H30.6797V89.2825Z" fill="#FF949C"/>
<path d="M30.6797 92.9574H32.7213V94.999H30.6797V92.9574Z" fill="#FF949C"/>
<path d="M34.7632 92.9574H36.3965V94.999H34.7632V92.9574Z" fill="#FF949C"/>
<path d="M34.7632 85.1993H36.3965V87.2409H34.7632V85.1993Z" fill="#FF949C"/>
<path d="M82.5366 85.1993H84.5782V87.2409H82.5366V85.1993Z" fill="#FF949C"/>
<g clip-path="url(#clip0)">
<path d="M65.9723 120.735C65.601 120.735 65.2999 121.031 65.2999 121.396C65.2999 123.448 63.5991 125.118 61.5084 125.118C59.4177 125.118 57.7168 123.448 57.7168 121.396C57.7168 121.031 57.4158 120.735 57.0444 120.735C56.6731 120.735 56.3721 121.031 56.3721 121.396C56.3721 124.176 58.6762 126.439 61.5084 126.439C64.3405 126.439 66.6447 124.176 66.6447 121.396C66.6447 121.031 66.3436 120.735 65.9723 120.735Z" fill="#E63946"/>
<path d="M61.5083 115.278C60.1212 115.278 58.9927 116.386 58.9927 117.748V121.553C58.9927 122.915 60.1212 124.023 61.5083 124.023C62.8954 124.023 64.0239 122.915 64.0239 121.553V117.748C64.0239 116.386 62.8954 115.278 61.5083 115.278ZM62.6792 121.553C62.6792 122.187 62.1539 122.702 61.5083 122.702C60.8627 122.702 60.3374 122.187 60.3374 121.553V117.748C60.3374 117.114 60.8627 116.599 61.5083 116.599C62.1539 116.599 62.6792 117.114 62.6792 117.748V121.553Z" fill="#E63946"/>
<path d="M61.5078 125.118C61.1365 125.118 60.8354 125.414 60.8354 125.778V127.821C60.8354 128.186 61.1365 128.481 61.5078 128.481C61.8792 128.481 62.1802 128.186 62.1802 127.821V125.778C62.1802 125.414 61.8792 125.118 61.5078 125.118Z" fill="#E63946"/>
<path d="M65.8073 114.287C64.659 113.16 63.1324 112.539 61.5084 112.539C59.8845 112.539 58.3578 113.16 57.2096 114.287C56.9471 114.545 56.9471 114.963 57.2096 115.221C57.4722 115.479 57.8979 115.479 58.1605 115.221C59.0547 114.343 60.2438 113.859 61.5084 113.859C62.7731 113.859 63.9621 114.343 64.8564 115.221C64.9877 115.35 65.1597 115.414 65.3319 115.414C65.5039 115.414 65.676 115.35 65.8073 115.221C66.0698 114.963 66.0698 114.545 65.8073 114.287Z" fill="#E63946"/>
<path d="M68.0716 112.064C64.4525 108.51 58.5636 108.51 54.9445 112.064C54.6819 112.321 54.6819 112.739 54.9445 112.997C55.207 113.255 55.6328 113.255 55.8953 112.997C58.9902 109.959 64.0258 109.959 67.1207 112.997C67.252 113.126 67.424 113.191 67.5962 113.191C67.7683 113.191 67.9403 113.126 68.0716 112.997C68.3342 112.739 68.3342 112.322 68.0716 112.064Z" fill="#E63946"/>
<path d="M70.2051 109.969C67.882 107.688 64.7933 106.432 61.5079 106.432C58.2225 106.432 55.1338 107.688 52.8107 109.969C52.5481 110.227 52.5481 110.645 52.8107 110.902C53.0733 111.16 53.499 111.16 53.7615 110.902C58.0329 106.709 64.9829 106.709 69.2543 110.902C69.3855 111.031 69.5576 111.096 69.7297 111.096C69.9018 111.096 70.0738 111.031 70.2051 110.902C70.4677 110.645 70.4677 110.227 70.2051 109.969Z" fill="#E63946"/>
</g>
<path d="M46.625 186.915C47.4692 189.149 48.7459 191.093 50.4201 192.69C52.3259 194.508 54.8213 195.952 57.8372 196.982C57.9362 197.016 58.0395 197.044 58.1432 197.064C58.2803 197.09 58.4197 197.105 58.558 197.107H58.5851C58.7324 197.107 58.8805 197.092 59.0274 197.064C59.1312 197.044 59.233 197.016 59.3315 196.983C62.351 195.954 64.8496 194.511 66.7572 192.693C68.4322 191.096 69.7087 189.154 70.5517 186.919C72.0845 182.855 71.9973 178.379 71.9271 174.782L71.9259 174.727C71.9118 174.43 71.9027 174.118 71.8976 173.773C71.872 172.082 70.4951 170.682 68.7631 170.588C65.152 170.391 62.3584 169.24 59.9715 166.968L59.9507 166.949C59.5544 166.594 59.055 166.42 58.558 166.427C58.0788 166.433 57.6014 166.607 57.2192 166.949L57.1989 166.968C54.8115 169.24 52.0179 170.391 48.4068 170.588C46.6748 170.682 45.2979 172.082 45.2723 173.773C45.2673 174.12 45.2581 174.432 45.244 174.727L45.2433 174.75C45.1733 178.354 45.0866 182.839 46.625 186.915Z" fill="#F88790"/>
<path d="M46.628 186.915C47.4739 189.149 48.7532 191.093 50.4309 192.69C52.3405 194.508 54.8411 195.952 57.8632 196.982C57.9624 197.016 58.0658 197.044 58.1698 197.064C58.3072 197.09 58.4469 197.105 58.5854 197.107V166.427C58.1052 166.433 57.6269 166.607 57.2439 166.949L57.2235 166.968C54.8313 169.24 52.032 170.391 48.4135 170.588C46.6779 170.682 45.2982 172.081 45.2725 173.773C45.2675 174.12 45.2584 174.431 45.2442 174.727L45.2435 174.75C45.1734 178.354 45.0864 182.839 46.628 186.915Z" fill="#E63946"/>
<path d="M50.719 181.767C50.719 185.878 54.2332 189.225 58.5578 189.24H58.5855C62.9228 189.24 66.4521 185.887 66.4521 181.767C66.4521 177.646 62.9228 174.294 58.5855 174.294H58.5578C54.2332 174.308 50.719 177.655 50.719 181.767Z" fill="white"/>
<path d="M62.2451 180.628L58.6753 184.248L57.9039 185.03C57.7217 185.215 57.4827 185.307 57.2439 185.307C57.0049 185.307 56.7661 185.215 56.5837 185.03L54.9252 183.348C54.5607 182.978 54.5607 182.38 54.9252 182.01C55.2892 181.641 55.8802 181.641 56.2447 182.01L57.2439 183.023L60.9256 179.291C61.29 178.921 61.8811 178.921 62.2451 179.291C62.6095 179.66 62.6095 180.259 62.2451 180.628Z" fill="#2F2E41"/>
<defs>
<clipPath id="clip0">
<rect width="22.4576" height="22.0493" fill="white" transform="translate(50.2793 106.432)"/>
</clipPath>
</defs>
</svg>
