<svg width="359" height="352" viewBox="0 0 359 352" fill="none" xmlns="http://www.w3.org/2000/svg">
<path d="M279.085 255.646C278.417 251.681 278.475 247.628 279.255 243.684C280.168 239.78 282.294 236.038 285.632 233.815C286.884 236.749 286.343 240.128 285.462 243.191C284.092 247.937 281.957 252.428 279.141 256.486" fill="#E0E0E0"/>
<path d="M287.749 270.412C286.052 266.092 285.458 261.416 286.023 256.808C286.587 252.2 288.292 247.806 290.982 244.023C293.447 252.784 292.542 262.669 287.749 270.412Z" fill="#E0E0E0"/>
<path d="M296.858 281.024C294.834 274.505 294.711 267.543 296.502 260.956C297.205 258.377 298.393 255.654 300.778 254.449C300.874 254.385 300.983 254.342 301.097 254.321C301.211 254.3 301.328 254.303 301.44 254.328C301.633 254.433 301.78 254.606 301.853 254.813C302.656 256.62 303.003 258.596 302.863 260.568C302.719 262.531 302.416 264.48 301.958 266.395C301.206 269.959 300.802 273.782 298.854 276.854C298.392 277.595 297.976 278.364 297.609 279.157C297.238 279.965 297.238 280.208 296.898 280.83" fill="#E0E0E0"/>
<path d="M300.64 225.959C297.052 218.685 297.278 210.239 300.382 202.771C302.572 206.093 302.806 210.336 302.435 214.296C302.063 218.257 300.818 222.338 300.754 226.315" fill="#E0E0E0"/>
<path d="M290.925 215.63C286.981 213.043 282.924 210.409 278.333 209.342C273.742 208.275 268.408 209.059 265.199 212.526C268.925 214.708 273.435 214.951 277.751 214.951C282.067 214.951 287.353 214.902 291.418 216.341" fill="#E0E0E0"/>
<path d="M290.949 215.84C284.2 209.212 281.646 197.307 284.354 188.247C289.684 196.402 292.015 206.156 290.949 215.84Z" fill="#E0E0E0"/>
<path d="M306.152 200.976C304.019 198.075 301.594 194.139 298.749 192.013C295.904 189.887 292.178 188.546 288.694 189.378C290.5 192.541 293.018 195.24 296.048 197.26C299.079 199.28 302.538 200.567 306.152 201.017" fill="#E0E0E0"/>
<path d="M306.823 197.307C305.441 193.799 304.051 190.251 303.493 186.525C302.936 182.799 303.275 178.815 305.182 175.557C308.884 182.565 310.072 190.106 307.009 197.38" fill="#E0E0E0"/>
<path d="M309.62 169.883C309.887 165.406 310.161 160.863 311.616 156.628C313.071 152.393 315.884 148.409 319.965 146.55C320.652 151.068 318.664 155.569 316.256 159.481C313.847 163.393 310.954 167.046 309.507 171.379" fill="#E0E0E0"/>
<path d="M309.507 172.963C307.769 167.903 307.592 161.478 304.561 157.073C302.443 153.994 299.057 151.892 297.23 148.627C296.129 151.757 296.282 155.193 297.658 158.213C299.039 161.196 300.935 163.913 303.259 166.238C305.506 168.663 307.422 170.433 309.507 172.963Z" fill="#E0E0E0"/>
<path d="M309.539 321.945C309.41 321.945 309.289 288.201 309.281 246.577C309.273 204.953 309.37 171.201 309.507 171.201C309.644 171.201 309.758 204.945 309.766 246.577C309.774 288.21 309.677 321.945 309.539 321.945Z" fill="#E0E0E0"/>
<path d="M309.571 239.343C309.271 239.056 309 238.739 308.763 238.398L306.686 235.747C304.948 233.492 302.539 230.38 299.84 226.985C297.14 223.591 294.659 220.519 292.865 218.321L290.739 215.702C290.462 215.395 290.218 215.059 290.012 214.7C290.331 214.961 290.623 215.254 290.885 215.573C291.426 216.163 292.194 217.028 293.123 218.103C294.99 220.253 297.52 223.276 300.22 226.678C302.919 230.081 305.287 233.233 306.96 235.569C307.769 236.725 308.464 237.662 308.916 238.325C309.168 238.642 309.387 238.983 309.571 239.343Z" fill="#E0E0E0"/>
<path d="M303.106 231.043C301.803 229.597 300.874 227.854 300.398 225.967C299.888 224.312 299.68 222.579 299.784 220.851H299.994C299.897 221.239 299.832 221.441 299.792 221.441C299.752 221.441 299.792 221.215 299.792 220.811H300.01C300.111 222.497 300.401 224.167 300.875 225.789C301.74 228.844 303.211 230.954 303.106 231.043Z" fill="#E0E0E0"/>
<path d="M294.756 220.536C294.173 220.094 293.538 219.725 292.865 219.437C291.162 218.935 289.372 218.794 287.611 219.024C285.829 219.164 284.062 219.448 282.326 219.873C281.613 220.096 280.887 220.271 280.151 220.398C280.797 220.01 281.497 219.721 282.229 219.542C283.969 219.007 285.764 218.668 287.579 218.531C289.405 218.291 291.263 218.493 292.994 219.121C293.727 219.375 294.35 219.875 294.756 220.536Z" fill="#E0E0E0"/>
<path d="M292.776 217.99C292.776 218.071 291.677 217.553 289.883 216.939C285.188 215.334 280.162 214.951 275.278 215.824C273.411 216.155 272.279 216.511 272.255 216.43C272.492 216.28 272.751 216.168 273.023 216.099C273.738 215.852 274.466 215.647 275.205 215.484C280.14 214.409 285.282 214.803 289.996 216.616C290.705 216.884 291.396 217.197 292.065 217.553C292.321 217.666 292.56 217.813 292.776 217.99Z" fill="#E0E0E0"/>
<path d="M309.507 207.232C308.65 204.833 307.945 202.382 307.397 199.893C306.354 195.804 305.619 192.458 305.781 192.425C305.942 192.393 306.856 195.658 307.89 199.772C308.925 203.886 309.676 207.2 309.507 207.232Z" fill="#E0E0E0"/>
<path d="M309.676 207.232C309.531 207.281 308.917 205.082 307.333 202.835C306.342 201.505 305.181 200.309 303.881 199.279C304.374 199.4 304.83 199.636 305.215 199.966C306.193 200.68 307.043 201.554 307.729 202.552C308.774 203.916 309.445 205.529 309.676 207.232Z" fill="#E0E0E0"/>
<path d="M309.539 303.954C309.491 303.954 309.386 303.146 309.006 301.715C308.45 299.697 307.695 297.739 306.751 295.872C304.423 291.103 300.18 285.065 294.789 279.012C292.114 275.957 289.527 273.079 287.321 270.323C285.35 267.898 283.566 265.325 281.986 262.629C280.926 260.805 280.026 258.893 279.295 256.914C279.044 256.211 278.867 255.662 278.761 255.298C278.696 255.109 278.65 254.914 278.624 254.716C278.673 254.716 278.915 255.484 279.473 256.866C280.268 258.801 281.208 260.673 282.285 262.467C283.897 265.124 285.698 267.66 287.676 270.056C289.883 272.788 292.477 275.649 295.153 278.705C300.56 284.774 304.795 290.893 307.066 295.734C307.986 297.635 308.699 299.629 309.192 301.683C309.326 302.242 309.426 302.809 309.491 303.38C309.527 303.569 309.543 303.761 309.539 303.954Z" fill="#E0E0E0"/>
<path d="M319.157 289.632C319.003 289.543 320.337 287.514 321.363 284.783C322.39 282.051 322.559 279.602 322.737 279.634C322.808 280.172 322.792 280.718 322.689 281.251C322.532 282.517 322.234 283.761 321.8 284.96C321.353 286.161 320.778 287.31 320.086 288.387C319.845 288.849 319.531 289.27 319.157 289.632Z" fill="#E0E0E0"/>
<path d="M320.58 265.021C320.442 264.948 321.631 263.203 321.905 260.705C322.18 258.208 321.461 256.244 321.606 256.203C321.752 256.163 321.93 256.64 322.156 257.456C322.438 258.534 322.517 259.655 322.39 260.762C322.265 261.868 321.93 262.941 321.404 263.922C320.992 264.674 320.628 265.053 320.58 265.021Z" fill="#E0E0E0"/>
<path d="M286.237 308.795C286.965 321.687 290.852 334.805 296.833 348.068H322.826C328.524 334.942 332.145 321.84 332.792 308.795H286.237Z" fill="#E0E0E0"/>
<path d="M328.565 329.664C328.565 329.801 320.006 329.907 309.45 329.907C298.895 329.907 290.335 329.801 290.335 329.664C290.335 329.527 298.895 329.422 309.45 329.422C320.006 329.422 328.565 329.527 328.565 329.664Z" fill="#FAFAFA"/>
<path d="M327.991 334.336C327.991 334.473 319.965 334.578 310.064 334.578C300.163 334.578 292.146 334.473 292.146 334.336C292.146 334.198 300.171 334.093 310.064 334.093C319.957 334.093 327.991 334.198 327.991 334.336Z" fill="#FAFAFA"/>
<path d="M297.246 317.29C297.569 321.276 297.569 325.282 297.246 329.268C297.108 329.268 296.995 326.593 296.995 323.279C296.995 319.965 297.108 317.29 297.246 317.29Z" fill="#FAFAFA"/>
<path d="M311.172 317.29C311.309 317.29 311.414 320.07 311.414 323.497C311.414 326.924 311.309 329.696 311.172 329.696C311.034 329.696 310.929 326.916 310.929 323.497C310.929 320.078 311.034 317.29 311.172 317.29Z" fill="#FAFAFA"/>
<path d="M324.225 317.153C324.548 321.365 324.548 325.597 324.225 329.81C324.087 329.81 323.982 326.973 323.982 323.481C323.982 319.99 324.112 317.153 324.225 317.153Z" fill="#FAFAFA"/>
<path d="M331.959 317.29C331.959 317.427 321.921 317.541 309.539 317.541C297.156 317.541 287.118 317.427 287.118 317.29C287.118 317.153 297.148 317.048 309.539 317.048C321.929 317.048 331.959 317.128 331.959 317.29Z" fill="#FAFAFA"/>
<path d="M287.967 48.8256C287.641 49.2991 287.264 49.7355 286.843 50.1268C286.116 50.9351 285.09 51.9373 283.95 53.0607C282.81 54.1842 281.752 55.1945 280.976 55.9138C280.582 56.3297 280.14 56.6961 279.658 57.0049C279.976 56.5276 280.35 56.0906 280.774 55.7037C281.501 54.9358 282.527 53.8932 283.675 52.7617C284.823 51.6301 285.882 50.6279 286.658 49.9086C287.047 49.4942 287.487 49.1303 287.967 48.8256Z" fill="#E0E0E0"/>
<path d="M71.335 94.8871C70.9753 95.5407 70.553 96.1578 70.0742 96.7299C69.266 97.8291 68.0698 99.3324 66.7362 100.957C65.4026 102.582 64.1417 104.028 63.2203 105.047C62.7475 105.632 62.2227 106.173 61.6523 106.663C62.0523 106.032 62.5066 105.437 63.0102 104.885L66.4371 100.731L69.856 96.5763C70.3033 95.9748 70.7979 95.41 71.335 94.8871Z" fill="#E0E0E0"/>
<path d="M62.5737 186.557C65.2302 190.784 68.3594 194.694 71.9008 198.212L62.5737 186.557Z" fill="white"/>
<path d="M0 197.897L9.31899 186.404L0 197.897Z" fill="white"/>
<path d="M37.1788 23.6248C30.0244 26.5638 24.3278 32.2204 21.3383 39.3538C18.3489 46.4872 18.3107 54.5151 21.2322 61.6766L39.3448 105.887L47.4272 102.565L29.3227 58.3467C27.2734 53.3414 27.2964 47.7271 29.3866 42.7388C31.4768 37.7505 35.463 33.7969 40.4683 31.7476C45.4735 29.6983 51.0879 29.7213 56.0762 31.8115C61.0645 33.9017 65.0181 37.8879 67.0674 42.8932L75.1902 39.5632C72.2528 32.4175 66.6027 26.7275 59.4777 23.74C52.3528 20.7524 44.3342 20.711 37.1788 23.6248Z" fill="#E63946"/>
<g opacity="0.3">
<path opacity="0.3" d="M37.1788 23.6248C30.0244 26.5638 24.3278 32.2204 21.3383 39.3538C18.3489 46.4872 18.3107 54.5151 21.2322 61.6766L39.3448 105.887L47.4272 102.565L29.3227 58.3467C27.2734 53.3414 27.2964 47.7271 29.3866 42.7388C31.4768 37.7505 35.463 33.7969 40.4683 31.7476C45.4735 29.6983 51.0879 29.7213 56.0762 31.8115C61.0645 33.9017 65.0181 37.8879 67.0674 42.8932L75.1902 39.5632C72.2528 32.4175 66.6027 26.7275 59.4777 23.74C52.3528 20.7524 44.3342 20.711 37.1788 23.6248Z" fill="black"/>
</g>
<path d="M90.3327 62.0402L26.2557 88.2808C23.8557 89.2637 22.7069 92.006 23.6898 94.406L39.2498 132.402C40.2326 134.802 42.9749 135.951 45.375 134.968L109.452 108.727C111.852 107.744 113.001 105.002 112.018 102.602L96.4578 64.6061C95.475 62.2061 92.7327 61.0573 90.3327 62.0402Z" fill="#E63946"/>
<g opacity="0.5">
<path opacity="0.5" d="M71.432 89.9327C70.9727 88.7986 70.2058 87.8152 69.2178 87.0934C68.2298 86.3716 67.0598 85.9399 65.8397 85.8472C64.6196 85.7544 63.3979 86.0041 62.312 86.5683C61.2262 87.1324 60.3195 87.9885 59.694 89.0402C59.0685 90.0918 58.749 91.2972 58.7716 92.5206C58.7942 93.744 59.158 94.9368 59.8219 95.9647C60.4859 96.9925 61.4236 97.8145 62.5295 98.3381C63.6354 98.8618 64.8656 99.0662 66.0814 98.9284L69.7993 108.021L73.1212 106.663L69.3952 97.5706C70.5207 96.6934 71.3288 95.4725 71.6965 94.0937C72.0641 92.715 71.9713 91.2538 71.432 89.9327Z" fill="black"/>
</g>
<path d="M43.0872 130.732C42.9175 130.805 39.5957 123.07 35.6676 113.469C31.7396 103.867 28.6764 96.0267 28.8461 95.954C29.0158 95.8813 32.3377 103.616 36.2657 113.226C40.1937 122.836 43.2489 130.668 43.0872 130.732Z" fill="#FAFAFA"/>
<path d="M63.7783 102.177C63.4827 102.198 63.186 102.159 62.9054 102.064C62.1209 101.856 61.3719 101.531 60.6827 101.103C59.513 100.413 58.5104 99.473 57.7471 98.3501C56.9837 97.2272 56.4784 95.9492 56.2674 94.6079C56.0565 93.2665 56.1452 91.8951 56.527 90.5921C56.9089 89.2891 57.5746 88.0868 58.4762 87.0715C58.9927 86.4395 59.6066 85.8939 60.2948 85.455C60.7797 85.156 61.103 85.0428 61.103 85.0752C60.2924 85.7681 59.5358 86.522 58.8399 87.3301C58.039 88.3214 57.4547 89.4695 57.1249 90.7004C56.7951 91.9314 56.727 93.2178 56.925 94.4767C57.123 95.7356 57.5827 96.939 58.2745 98.0092C58.9663 99.0795 59.8748 99.9928 60.9413 100.69C61.8483 101.257 62.7966 101.754 63.7783 102.177Z" fill="#FAFAFA"/>
<path d="M227.285 351.155L107.981 351.082C101.09 351.078 94.4825 348.338 89.6113 343.464C84.7402 338.589 82.0039 331.98 82.0039 325.09L82.0605 25.9849C82.0615 22.5707 82.7352 19.1903 84.0429 16.0365C85.3507 12.8828 87.2669 10.0176 89.6822 7.60459C92.0975 5.19156 94.9645 3.278 98.1194 1.97318C101.274 0.668373 104.655 -0.00211835 108.07 5.02761e-06L227.374 0.0646625C234.265 0.0689479 240.872 2.80938 245.743 7.68353C250.614 12.5577 253.35 19.1666 253.35 26.0576L253.294 325.17C253.293 328.584 252.619 331.965 251.311 335.119C250.004 338.272 248.087 341.138 245.672 343.551C243.257 345.964 240.39 347.877 237.235 349.182C234.08 350.487 230.699 351.157 227.285 351.155Z" fill="#263238"/>
<path d="M227.236 10.6444H204.12C203.366 10.6602 202.622 10.8245 201.931 11.1281C201.241 11.4316 200.617 11.8684 200.095 12.4134C199.573 12.9584 199.164 13.601 198.891 14.3043C198.618 15.0077 198.486 15.7579 198.503 16.5123V20.6666C198.536 22.1894 197.962 23.6628 196.909 24.7631C195.856 25.8634 194.409 26.5005 192.886 26.5344H147.802C147.044 26.5218 146.297 26.3596 145.602 26.0572C144.907 25.7547 144.278 25.318 143.753 24.772C143.227 24.226 142.814 23.5816 142.538 22.8757C142.262 22.1697 142.129 21.4163 142.145 20.6585V16.4718C142.162 15.7171 142.03 14.9664 141.757 14.2627C141.484 13.5589 141.075 12.9158 140.553 12.3701C140.032 11.8244 139.408 11.3869 138.717 11.0825C138.026 10.7781 137.282 10.6127 136.527 10.5959H108.182C103.361 10.5938 98.7362 12.5036 95.3211 15.9065C91.906 19.3095 89.9798 23.9279 89.9648 28.749L89.9082 320.701C89.9082 325.527 91.8248 330.155 95.2365 333.568C98.6482 336.982 103.276 338.9 108.102 338.902L227.171 338.975C229.563 338.977 231.931 338.508 234.14 337.594C236.35 336.68 238.358 335.34 240.049 333.649C241.741 331.959 243.082 329.951 243.997 327.742C244.912 325.533 245.382 323.165 245.381 320.773L245.437 28.8298C245.433 24.0053 243.514 19.3798 240.101 15.9698C236.688 12.5599 232.061 10.6444 227.236 10.6444Z" fill="white"/>
<g clip-path="url(#clip0)">
<path d="M174.009 236.622C173.394 236.622 172.895 237.109 172.895 237.711C172.895 241.096 170.08 243.851 166.618 243.851C163.157 243.851 160.341 241.096 160.341 237.711C160.341 237.109 159.843 236.622 159.228 236.622C158.614 236.622 158.115 237.109 158.115 237.711C158.115 242.297 161.93 246.029 166.618 246.029C171.307 246.029 175.122 242.297 175.122 237.711C175.122 237.109 174.623 236.622 174.009 236.622Z" fill="#E63946"/>
<path d="M166.618 227.62C164.322 227.62 162.454 229.447 162.454 231.694V237.969C162.454 240.216 164.322 242.044 166.618 242.044C168.915 242.044 170.783 240.216 170.783 237.969V231.694C170.783 229.447 168.915 227.62 166.618 227.62ZM168.557 237.969C168.557 239.015 167.687 239.866 166.618 239.866C165.549 239.866 164.68 239.015 164.68 237.969V231.694C164.68 230.648 165.549 229.797 166.618 229.797C167.687 229.797 168.557 230.648 168.557 231.694V237.969Z" fill="#E63946"/>
<path d="M166.618 243.851C166.004 243.851 165.505 244.338 165.505 244.94V248.309C165.505 248.91 166.004 249.398 166.618 249.398C167.233 249.398 167.732 248.91 167.732 248.309V244.94C167.732 244.338 167.233 243.851 166.618 243.851Z" fill="#E63946"/>
<path d="M173.735 225.985C171.834 224.125 169.307 223.101 166.619 223.101C163.93 223.101 161.403 224.125 159.502 225.985C159.067 226.41 159.067 227.1 159.502 227.525C159.936 227.95 160.641 227.95 161.076 227.525C162.556 226.077 164.525 225.279 166.619 225.279C168.712 225.279 170.681 226.077 172.161 227.525C172.378 227.737 172.663 227.844 172.948 227.844C173.233 227.844 173.518 227.737 173.735 227.525C174.17 227.1 174.17 226.41 173.735 225.985Z" fill="#E63946"/>
<path d="M177.484 222.317C171.492 216.456 161.743 216.456 155.752 222.317C155.317 222.743 155.317 223.432 155.752 223.857C156.186 224.283 156.891 224.282 157.326 223.857C162.45 218.845 170.786 218.845 175.91 223.857C176.127 224.07 176.412 224.176 176.697 224.176C176.982 224.176 177.267 224.07 177.484 223.857C177.919 223.432 177.919 222.743 177.484 222.317Z" fill="#E63946"/>
<path d="M181.017 218.862C177.171 215.099 172.057 213.027 166.618 213.027C161.179 213.027 156.066 215.099 152.22 218.862C151.785 219.287 151.785 219.976 152.22 220.402C152.655 220.827 153.36 220.827 153.794 220.402C160.865 213.484 172.371 213.484 179.443 220.402C179.66 220.614 179.945 220.721 180.23 220.721C180.515 220.721 180.799 220.614 181.017 220.402C181.452 219.976 181.452 219.287 181.017 218.862Z" fill="#E63946"/>
</g>
<path d="M156.62 316.684C156.625 317.136 156.496 317.58 156.248 317.959C156.001 318.338 155.647 318.634 155.231 318.812C154.815 318.989 154.355 319.04 153.911 318.956C153.466 318.873 153.056 318.659 152.733 318.343C152.41 318.026 152.188 317.621 152.095 317.178C152.002 316.735 152.042 316.275 152.211 315.855C152.379 315.436 152.669 315.075 153.042 314.82C153.416 314.565 153.856 314.426 154.309 314.421C154.915 314.417 155.498 314.652 155.931 315.076C156.364 315.5 156.612 316.078 156.62 316.684Z" fill="#263238"/>
<path d="M169.423 316.579C169.427 317.031 169.298 317.475 169.05 317.854C168.802 318.233 168.448 318.53 168.031 318.708C167.615 318.885 167.155 318.935 166.71 318.85C166.265 318.766 165.855 318.552 165.532 318.235C165.21 317.917 164.988 317.511 164.896 317.068C164.804 316.625 164.845 316.164 165.015 315.745C165.185 315.325 165.476 314.965 165.85 314.711C166.225 314.456 166.666 314.319 167.119 314.316C167.724 314.311 168.307 314.547 168.738 314.971C169.17 315.396 169.416 315.974 169.423 316.579Z" fill="#263238"/>
<path d="M182.233 316.482C182.238 316.935 182.108 317.379 181.861 317.757C181.613 318.136 181.258 318.433 180.842 318.611C180.425 318.788 179.965 318.838 179.521 318.753C179.076 318.669 178.666 318.455 178.343 318.138C178.02 317.82 177.799 317.414 177.706 316.971C177.614 316.528 177.656 316.067 177.826 315.648C177.996 315.228 178.286 314.868 178.661 314.614C179.035 314.36 179.477 314.222 179.93 314.219C180.535 314.214 181.117 314.45 181.549 314.874C181.981 315.299 182.227 315.877 182.233 316.482Z" fill="#263238"/>
<path d="M227.947 40.1291C227.947 40.1938 224.933 40.2746 221.223 40.3069C217.513 40.3393 214.506 40.3069 214.506 40.2342C214.506 40.1614 217.537 40.0645 221.223 40.0645C224.908 40.0645 227.939 40.0645 227.947 40.1291Z" fill="#263238"/>
<path d="M227.972 43.564C227.972 43.6368 224.965 43.7176 221.255 43.7499C217.545 43.7823 214.531 43.7499 214.531 43.6772C214.531 43.6044 217.537 43.5236 221.255 43.4913C224.973 43.459 227.972 43.4913 227.972 43.564Z" fill="#263238"/>
<path d="M228.045 46.9991C228.045 47.0718 225.03 47.1527 221.32 47.185C217.61 47.2173 214.604 47.185 214.604 47.1122C214.604 47.0395 217.61 46.9668 221.32 46.9344C225.03 46.9021 227.996 46.9344 228.045 46.9991Z" fill="#263238"/>
<path d="M105.717 50.9271H105.992H106.8L109.678 50.8625L109.605 50.9352C109.605 50.3048 109.605 49.6097 109.605 48.858C109.585 48.4595 109.585 48.0603 109.605 47.6618C109.647 47.4338 109.762 47.2256 109.933 47.0682C110.103 46.9109 110.32 46.8129 110.551 46.7889C111.011 46.7889 111.423 46.7889 111.925 46.7889C112.185 46.8279 112.423 46.9599 112.594 47.1605C112.764 47.361 112.857 47.6166 112.854 47.8801C112.854 48.8499 112.854 49.8683 112.854 50.919L112.733 50.7978H116.354L116.232 50.919C116.232 49.4642 116.232 47.9528 116.232 46.4091C116.232 46.0292 116.232 45.6008 116.232 45.2614C116.226 45.095 116.176 44.9333 116.087 44.7926C115.974 44.6507 115.85 44.5182 115.715 44.3965C115.182 43.8712 114.656 43.3458 114.099 42.8366L112.571 41.3333C112.329 41.0828 112.078 40.8403 111.836 40.5978C111.593 40.3554 111.383 40.0967 111.076 40.0401C110.938 40.0066 110.794 40.0037 110.654 40.0317C110.514 40.0596 110.383 40.1176 110.268 40.2018C110.049 40.3877 109.815 40.6463 109.597 40.8645L108.296 42.1739C107.487 42.9821 106.631 43.7904 106.008 44.5339C105.828 44.9625 105.767 45.4314 105.83 45.8918C105.83 46.3444 105.83 46.7647 105.83 47.1688C105.83 47.977 105.83 48.6398 105.83 49.2217C105.83 49.8037 105.83 50.1916 105.83 50.5392C105.83 50.8867 105.83 51.0079 105.83 51.0079C105.83 51.0079 105.83 50.8625 105.83 50.5715C105.83 50.2805 105.83 49.7633 105.83 49.2783C105.83 48.7934 105.83 48.0013 105.79 47.2092C105.79 46.797 105.79 46.401 105.79 45.908C105.79 45.6736 105.79 45.4392 105.79 45.1967C105.789 44.9326 105.859 44.6731 105.992 44.445C106.663 43.6368 107.463 42.9013 108.287 42.0203L109.573 40.7029C109.807 40.4766 110.001 40.2422 110.268 40.0078C110.415 39.8978 110.585 39.8224 110.766 39.7874C110.946 39.7524 111.133 39.7587 111.31 39.8058C111.648 39.9267 111.944 40.1395 112.167 40.42L112.911 41.1474L114.446 42.6508L116.063 44.2107C116.211 44.3426 116.347 44.4888 116.467 44.6471C116.58 44.8267 116.644 45.033 116.653 45.2452C116.653 45.6332 116.653 46.0534 116.653 46.401C116.653 47.9447 116.653 49.4561 116.653 50.9109V51.0322H116.523H112.903H112.789V50.9109C112.789 49.8602 112.789 48.8499 112.789 47.8801C112.793 47.6665 112.719 47.4588 112.583 47.2943C112.447 47.1299 112.256 47.0194 112.046 46.9829C111.626 46.9829 111.132 46.9829 110.728 46.9829C110.535 46.9981 110.351 47.0756 110.206 47.2038C110.06 47.3321 109.96 47.5041 109.92 47.6942C109.92 48.066 109.92 48.5024 109.92 48.8499C109.92 49.6016 109.92 50.2967 109.92 50.9352V51.0079H109.847H106.93H106C105.903 50.9916 105.808 50.9645 105.717 50.9271Z" fill="#263238"/>
<path d="M133.861 119.732C133.861 122.537 131.759 124.283 128.397 124.283H125.867V127.742H122.974V115.174H128.413C131.759 115.174 133.861 116.92 133.861 119.732ZM130.911 119.732C130.911 118.35 130.013 117.542 128.235 117.542H125.867V121.907H128.235C130.013 121.907 130.911 121.098 130.911 119.732Z" fill="#263238"/>
<path d="M144.182 122.23V127.742H141.563V126.538C141.239 127.006 140.795 127.378 140.277 127.616C139.759 127.853 139.187 127.947 138.621 127.888C136.358 127.888 135.008 126.635 135.008 124.962C135.008 123.289 136.213 122.068 139.155 122.068H141.385C141.385 120.864 140.666 120.169 139.155 120.169C138.155 120.16 137.18 120.475 136.374 121.066L135.364 119.11C136.607 118.313 138.059 117.905 139.534 117.938C142.476 117.954 144.182 119.304 144.182 122.23ZM141.385 124.695V123.709H139.462C138.152 123.709 137.74 124.186 137.74 124.832C137.74 125.479 138.33 126.037 139.316 126.037C139.76 126.066 140.201 125.951 140.574 125.709C140.946 125.468 141.231 125.112 141.385 124.695Z" fill="#263238"/>
<path d="M145.782 126.845L146.72 124.832C147.733 125.441 148.892 125.765 150.074 125.77C151.367 125.77 151.852 125.43 151.852 124.889C151.852 123.272 146.017 124.889 146.017 121.066C146.017 119.231 147.633 117.938 150.486 117.938C151.776 117.913 153.053 118.204 154.204 118.787L153.275 120.775C152.423 120.299 151.462 120.051 150.486 120.056C149.233 120.056 148.692 120.452 148.692 120.961C148.692 122.577 154.527 121.009 154.527 124.816C154.527 126.61 152.854 127.887 149.969 127.887C148.506 127.917 147.061 127.558 145.782 126.845Z" fill="#263238"/>
<path d="M155.303 126.845L156.233 124.832C157.249 125.44 158.411 125.764 159.595 125.77C160.888 125.77 161.373 125.43 161.373 124.889C161.373 123.272 155.538 124.889 155.538 121.066C155.538 119.231 157.154 117.938 160.007 117.938C161.297 117.914 162.573 118.205 163.725 118.787L162.788 120.775C161.939 120.297 160.981 120.049 160.007 120.056C158.746 120.056 158.213 120.452 158.213 120.961C158.213 122.577 164.048 121.009 164.048 124.816C164.048 126.61 162.375 127.887 159.49 127.887C158.026 127.919 156.581 127.559 155.303 126.845Z" fill="#263238"/>
<path d="M181.118 118.084L177.618 127.782H174.927L172.753 121.785L170.506 127.782H167.815L164.331 118.084H166.974L169.253 124.622L171.621 118.084H173.989L176.293 124.622L178.645 118.084H181.118Z" fill="#263238"/>
<path d="M181.45 122.917C181.45 120.007 183.689 117.938 186.76 117.938C189.831 117.938 192.062 120.007 192.062 122.917C192.062 125.827 189.831 127.888 186.76 127.888C183.689 127.888 181.45 125.827 181.45 122.917ZM189.225 122.917C189.186 122.438 189.008 121.981 188.713 121.601C188.418 121.222 188.019 120.937 187.565 120.78C187.11 120.624 186.62 120.603 186.154 120.721C185.688 120.839 185.267 121.09 184.941 121.443C184.616 121.796 184.4 122.237 184.321 122.711C184.241 123.185 184.302 123.672 184.495 124.112C184.688 124.552 185.005 124.926 185.407 125.189C185.809 125.452 186.279 125.592 186.76 125.592C187.106 125.603 187.45 125.54 187.77 125.407C188.089 125.274 188.377 125.074 188.613 124.82C188.849 124.567 189.027 124.266 189.137 123.938C189.247 123.609 189.285 123.261 189.249 122.917H189.225Z" fill="#263238"/>
<path d="M199.926 117.954V120.541C199.691 120.541 199.514 120.541 199.295 120.541C197.752 120.541 196.725 121.349 196.725 123.232V127.791H193.929V118.092H196.604V119.369C197.002 118.881 197.512 118.498 198.09 118.252C198.669 118.005 199.299 117.903 199.926 117.954Z" fill="#263238"/>
<path d="M211.346 114.422V127.742H208.647V126.635C208.272 127.059 207.806 127.392 207.284 127.609C206.762 127.826 206.197 127.921 205.632 127.887C204.347 127.836 203.133 127.289 202.242 126.362C201.351 125.434 200.854 124.198 200.854 122.913C200.854 121.627 201.351 120.391 202.242 119.464C203.133 118.537 204.347 117.99 205.632 117.938C206.169 117.912 206.706 118.003 207.204 118.205C207.703 118.408 208.151 118.716 208.518 119.11V114.422H211.346ZM208.598 122.917C208.559 122.436 208.38 121.978 208.083 121.597C207.786 121.217 207.385 120.932 206.928 120.777C206.472 120.622 205.98 120.604 205.513 120.725C205.046 120.846 204.625 121.101 204.301 121.458C203.977 121.816 203.765 122.26 203.69 122.736C203.615 123.213 203.682 123.701 203.881 124.14C204.08 124.579 204.403 124.951 204.81 125.209C205.218 125.467 205.692 125.6 206.174 125.592C206.514 125.594 206.852 125.524 207.163 125.387C207.475 125.25 207.755 125.048 207.983 124.796C208.212 124.543 208.385 124.246 208.491 123.922C208.597 123.598 208.634 123.256 208.598 122.917Z" fill="#263238"/>
<path d="M127.419 171.241L129.949 172.607L128.809 174.515L126.255 173.003L126.303 175.816H124.121V172.979L121.559 174.515L120.468 172.615L122.973 171.241L120.436 169.843L121.551 167.944L124.113 169.471V166.642H126.295L126.247 169.471L128.801 167.944L129.94 169.843L127.419 171.241Z" fill="#E63946"/>
<path d="M156.451 171.241L158.981 172.607L157.841 174.515L155.303 173.003V175.848H153.113V173.011L150.559 174.547L149.5 172.615L152.07 171.241L149.54 169.843L150.656 167.944L153.21 169.471V166.642H155.303L155.255 169.471L157.809 167.944L158.948 169.843L156.451 171.241Z" fill="#E63946"/>
<path d="M184.707 171.241L187.236 172.607L186.097 174.515L183.543 173.003L183.591 175.848H181.409V173.011L178.847 174.547L177.756 172.615L180.294 171.25L177.756 169.851L178.871 167.952L181.433 169.479V166.651H183.591L183.543 169.479L186.097 167.952L187.236 169.851L184.707 171.241Z" fill="#E63946"/>
<path d="M212.082 171.241L214.612 172.607L213.496 174.515L210.942 173.003L210.991 175.816H208.808V172.979L206.254 174.515L205.131 172.615L207.669 171.25L205.131 169.851L206.246 167.952L208.8 169.479V166.651H210.983L210.934 169.479L213.488 167.952L214.628 169.851L212.082 171.241Z" fill="#E63946"/>
<path d="M131.92 188.846H119.676C118.161 188.844 116.709 188.241 115.637 187.17C114.566 186.099 113.964 184.646 113.961 183.132V161.39C113.964 159.876 114.567 158.425 115.638 157.355C116.709 156.285 118.162 155.684 119.676 155.684H131.92C133.435 155.684 134.887 156.285 135.958 157.355C137.03 158.425 137.633 159.876 137.635 161.39V183.124C137.635 184.64 137.033 186.094 135.962 187.167C134.89 188.24 133.437 188.844 131.92 188.846ZM119.676 156.088C118.269 156.088 116.919 156.646 115.924 157.64C114.928 158.634 114.368 159.983 114.366 161.39V183.124C114.368 184.531 114.928 185.881 115.923 186.876C116.919 187.871 118.268 188.432 119.676 188.434H131.92C133.329 188.434 134.679 187.874 135.675 186.878C136.671 185.883 137.231 184.532 137.231 183.124V161.382C137.228 159.975 136.668 158.626 135.672 157.632C134.677 156.638 133.327 156.08 131.92 156.08L119.676 156.088Z" fill="#263238"/>
<path d="M160.362 188.845H148.118C147.364 188.848 146.617 188.702 145.92 188.416C145.223 188.13 144.59 187.709 144.056 187.177C143.522 186.646 143.098 186.014 142.809 185.318C142.52 184.622 142.371 183.876 142.371 183.123V161.381C142.373 159.867 142.976 158.415 144.048 157.346C145.119 156.276 146.571 155.675 148.085 155.675H160.33C161.844 155.675 163.296 156.276 164.368 157.346C165.439 158.415 166.042 159.867 166.044 161.381V183.123C166.044 184.633 165.447 186.083 164.383 187.155C163.318 188.227 161.873 188.834 160.362 188.845ZM148.118 156.087C146.711 156.087 145.361 156.645 144.366 157.639C143.37 158.634 142.81 159.982 142.808 161.389V183.123C142.81 184.53 143.37 185.88 144.365 186.875C145.361 187.87 146.71 188.431 148.118 188.433H160.362C161.771 188.433 163.121 187.873 164.117 186.877C165.113 185.882 165.673 184.531 165.673 183.123V161.381C165.67 159.974 165.11 158.625 164.114 157.631C163.119 156.637 161.769 156.079 160.362 156.079L148.118 156.087Z" fill="#263238"/>
<path d="M188.029 188.845H175.776C174.261 188.843 172.809 188.24 171.738 187.169C170.666 186.098 170.064 184.646 170.062 183.131V161.389C170.064 159.875 170.667 158.424 171.738 157.354C172.809 156.284 174.262 155.683 175.776 155.683H188.029C189.541 155.685 190.992 156.287 192.061 157.357C193.131 158.426 193.733 159.876 193.735 161.389V183.123C193.736 183.873 193.589 184.616 193.303 185.31C193.017 186.004 192.597 186.634 192.067 187.166C191.537 187.697 190.908 188.119 190.215 188.407C189.522 188.695 188.779 188.844 188.029 188.845ZM175.776 156.087C174.369 156.087 173.019 156.645 172.024 157.64C171.028 158.634 170.468 159.982 170.466 161.389V183.123C170.468 184.53 171.028 185.88 172.023 186.875C173.019 187.871 174.368 188.431 175.776 188.433H188.029C189.436 188.431 190.784 187.87 191.778 186.875C192.772 185.879 193.331 184.53 193.331 183.123V161.381C193.331 159.975 192.772 158.626 191.778 157.632C190.783 156.638 189.435 156.079 188.029 156.079L175.776 156.087Z" fill="#263238"/>
<path d="M216.002 188.845H203.749C202.234 188.843 200.782 188.24 199.711 187.169C198.64 186.098 198.037 184.646 198.035 183.131V161.389C198.037 159.875 198.64 158.424 199.711 157.354C200.783 156.284 202.235 155.683 203.749 155.683H216.002C217.515 155.685 218.965 156.287 220.034 157.357C221.104 158.426 221.706 159.876 221.708 161.389V183.123C221.709 183.873 221.562 184.616 221.276 185.31C220.99 186.004 220.57 186.634 220.04 187.166C219.51 187.697 218.881 188.119 218.188 188.407C217.495 188.695 216.752 188.844 216.002 188.845ZM203.749 156.087C202.342 156.087 200.993 156.645 199.997 157.64C199.001 158.634 198.441 159.982 198.439 161.389V183.123C198.441 184.53 199.001 185.88 199.996 186.875C200.992 187.871 202.341 188.431 203.749 188.433H216.002C217.409 188.431 218.757 187.87 219.751 186.875C220.745 185.879 221.304 184.53 221.304 183.123V161.381C221.304 159.975 220.745 158.626 219.751 157.632C218.757 156.638 217.408 156.079 216.002 156.079L203.749 156.087Z" fill="#263238"/>
<path d="M214.323 267.179H119.722C115.715 267.179 112.466 271.265 112.466 276.304V282.091C112.466 287.131 115.715 291.216 119.722 291.216H214.323C218.33 291.216 221.578 287.131 221.578 282.091V276.304C221.578 271.265 218.33 267.179 214.323 267.179Z" fill="#E63946"/>
<path d="M153.248 274.365H156.185C158.299 274.365 159.751 275.981 159.751 278.406C159.751 280.83 158.299 282.447 156.185 282.447H153.248V274.365ZM156.108 280.952C156.64 280.952 157.149 280.686 157.526 280.213C157.902 279.74 158.113 279.099 158.113 278.43C158.113 277.761 157.902 277.12 157.526 276.647C157.149 276.174 156.64 275.908 156.108 275.908H154.739V280.952H156.108Z" fill="white"/>
<path d="M160.406 279.375C160.373 278.687 160.505 278.002 160.784 277.409C161.064 276.816 161.479 276.342 161.975 276.049C162.472 275.756 163.027 275.657 163.568 275.765C164.11 275.873 164.613 276.183 165.013 276.655C165.413 277.127 165.69 277.74 165.81 278.412C165.93 279.085 165.887 279.788 165.685 280.43C165.484 281.071 165.134 281.622 164.681 282.01C164.228 282.399 163.692 282.607 163.144 282.608C162.793 282.637 162.44 282.575 162.109 282.425C161.778 282.276 161.474 282.042 161.217 281.739C160.961 281.436 160.756 281.07 160.617 280.663C160.477 280.257 160.406 279.818 160.406 279.375ZM164.41 279.375C164.41 278.947 164.275 278.536 164.034 278.232C163.793 277.929 163.466 277.759 163.125 277.759C162.784 277.759 162.457 277.929 162.216 278.232C161.975 278.536 161.84 278.947 161.84 279.375C161.84 279.804 161.975 280.215 162.216 280.518C162.457 280.822 162.784 280.992 163.125 280.992C163.466 280.992 163.793 280.822 164.034 280.518C164.275 280.215 164.41 279.804 164.41 279.375Z" fill="white"/>
<path d="M171.91 278.923V282.495H170.47V279.198C170.47 278.187 170.098 277.727 169.461 277.727C168.825 277.727 168.272 278.26 168.272 279.408V282.495H166.833V276.248H168.208V276.983C168.422 276.711 168.679 276.499 168.963 276.36C169.246 276.221 169.549 276.158 169.853 276.175C171.023 276.159 171.91 277.015 171.91 278.923Z" fill="white"/>
<path d="M178.111 279.885H174.352C174.43 280.273 174.617 280.612 174.877 280.842C175.138 281.072 175.455 281.177 175.772 281.138C176.002 281.15 176.231 281.103 176.446 280.999C176.66 280.894 176.855 280.735 177.019 280.531L177.79 281.582C177.528 281.929 177.208 282.199 176.854 282.373C176.5 282.548 176.119 282.623 175.74 282.592C174.018 282.592 172.899 281.235 172.899 279.359C172.893 278.924 172.958 278.491 173.09 278.088C173.222 277.685 173.418 277.32 173.667 277.017C173.916 276.714 174.212 276.478 174.537 276.325C174.861 276.172 175.207 276.104 175.553 276.126C175.895 276.106 176.237 276.175 176.556 276.33C176.876 276.485 177.166 276.723 177.408 277.027C177.65 277.332 177.839 277.696 177.962 278.098C178.085 278.5 178.141 278.929 178.124 279.359C178.137 279.537 178.118 279.731 178.111 279.885ZM174.332 278.85H176.781C176.734 278.485 176.585 278.152 176.36 277.912C176.136 277.672 175.851 277.541 175.557 277.541C175.262 277.541 174.977 277.672 174.753 277.912C174.529 278.152 174.38 278.485 174.332 278.85Z" fill="white"/>
<path d="M165.851 103.188C179.264 103.188 190.138 92.3139 190.138 78.9002C190.138 65.4866 179.264 54.6127 165.851 54.6127C152.437 54.6127 141.563 65.4866 141.563 78.9002C141.563 92.3139 152.437 103.188 165.851 103.188Z" fill="#E63946"/>
<path d="M161.558 74.4791H161.154V72.216C161.154 70.9599 161.653 69.7552 162.542 68.867C163.43 67.9787 164.634 67.4797 165.891 67.4797C167.147 67.4797 168.351 67.9787 169.24 68.867C170.128 69.7552 170.627 70.9599 170.627 72.216V74.0588H170.223V72.216C170.223 71.0671 169.766 69.9652 168.954 69.1527C168.141 68.3403 167.04 67.8839 165.891 67.8839C164.742 67.8839 163.64 68.3403 162.827 69.1527C162.015 69.9652 161.558 71.0671 161.558 72.216V74.4791Z" fill="white"/>
<path d="M171.872 90.3206H159.829C159.3 90.3185 158.794 90.1075 158.42 89.7336C158.046 89.3596 157.835 88.8531 157.833 88.3243V76.2734C157.835 75.7446 158.046 75.2381 158.42 74.8642C158.794 74.4902 159.3 74.2792 159.829 74.2771H171.872C172.4 74.2792 172.907 74.4902 173.281 74.8642C173.655 75.2381 173.866 75.7446 173.868 76.2734V88.3243C173.866 88.8531 173.655 89.3596 173.281 89.7336C172.907 90.1075 172.4 90.3185 171.872 90.3206ZM159.829 74.6812C159.4 74.6812 158.989 74.8515 158.686 75.1547C158.383 75.4578 158.212 75.869 158.212 76.2977V88.3485C158.212 88.7772 158.383 89.1884 158.686 89.4915C158.989 89.7947 159.4 89.965 159.829 89.965H171.872C172.3 89.965 172.711 89.7947 173.015 89.4915C173.318 89.1884 173.488 88.7772 173.488 88.3485V76.2734C173.488 75.8447 173.318 75.4336 173.015 75.1304C172.711 74.8273 172.3 74.657 171.872 74.657L159.829 74.6812Z" fill="white"/>
<path d="M165.907 82.6909C165.533 82.6909 165.167 82.58 164.856 82.3721C164.545 82.1643 164.303 81.8689 164.16 81.5234C164.016 81.1778 163.979 80.7975 164.052 80.4306C164.125 80.0638 164.305 79.7268 164.57 79.4623C164.834 79.1978 165.171 79.0176 165.538 78.9447C165.905 78.8717 166.285 78.9091 166.631 79.0523C166.976 79.1954 167.272 79.4378 167.479 79.7489C167.687 80.0599 167.798 80.4255 167.798 80.7996C167.798 81.3012 167.599 81.7823 167.244 82.1369C166.89 82.4916 166.409 82.6909 165.907 82.6909ZM165.907 79.3205C165.612 79.3205 165.325 79.408 165.08 79.5717C164.835 79.7355 164.645 79.9682 164.532 80.2405C164.42 80.5127 164.391 80.8121 164.449 81.1008C164.507 81.3895 164.649 81.6545 164.858 81.8621C165.067 82.0698 165.333 82.2108 165.622 82.2672C165.911 82.3237 166.21 82.2931 166.482 82.1793C166.753 82.0655 166.985 81.8736 167.147 81.628C167.31 81.3824 167.396 81.0941 167.394 80.7996C167.397 80.6023 167.361 80.4063 167.288 80.223C167.215 80.0398 167.106 79.873 166.967 79.7323C166.829 79.5916 166.664 79.4799 166.482 79.4037C166.3 79.3274 166.104 79.2882 165.907 79.2882V79.3205Z" fill="white"/>
<path d="M166.052 82.4081H165.648V85.8188H166.052V82.4081Z" fill="white"/>
<path d="M336.598 334.077L321.347 298.895L303.849 310.129L322.406 342.289L331.709 338.118L336.598 334.077Z" fill="#FFBE9D"/>
<path d="M336.259 332.113L336.76 333.115C336.76 333.115 357.087 331.378 358.89 334.498L325.235 351.236L320.119 339.808C326.277 339.646 331.644 337.302 336.259 332.113Z" fill="#E63A47"/>
<g opacity="0.6">
<path opacity="0.6" d="M325.308 341.707C325.033 341.966 324.863 342.317 324.832 342.693C324.801 343.069 324.91 343.443 325.138 343.744C325.386 344.028 325.735 344.206 326.111 344.241C326.487 344.276 326.862 344.164 327.158 343.93C327.449 343.655 327.627 343.282 327.658 342.883C327.689 342.485 327.572 342.089 327.328 341.772C327.042 341.498 326.661 341.344 326.265 341.344C325.869 341.344 325.488 341.498 325.203 341.772" fill="white"/>
</g>
<g opacity="0.6">
<path opacity="0.6" d="M325.235 351.236L324.006 348.488L356.708 333.455C356.708 333.455 358.534 333.366 358.89 334.506L325.235 351.236Z" fill="white"/>
</g>
<path d="M336.93 333.148C337.002 333.317 336.218 333.794 335.677 334.764C335.135 335.734 335.038 336.599 334.869 336.607C334.699 336.615 334.456 335.548 335.135 334.433C335.814 333.317 336.889 332.978 336.93 333.148Z" fill="#263238"/>
<path d="M341.197 332.849C341.318 332.994 340.745 333.657 340.534 334.594C340.324 335.532 340.534 336.389 340.357 336.462C340.179 336.534 339.621 335.653 339.912 334.449C340.203 333.245 341.1 332.695 341.197 332.849Z" fill="#263238"/>
<path d="M345.295 336.074C345.158 336.187 344.487 335.476 344.487 334.368C344.487 333.261 345.053 332.517 345.19 332.622C345.327 332.727 345.093 333.431 345.125 334.352C345.158 335.273 345.449 335.977 345.295 336.074Z" fill="#263238"/>
<path d="M307.914 340.188L308.496 301.837L287.926 304.876L291.596 341.828L301.796 341.853L307.914 340.188Z" fill="#FFBE9D"/>
<path d="M308.407 338.256L308.463 339.371C308.463 339.371 327.7 346.16 328.055 349.741L290.488 351.147L290.529 338.628C296.211 341.004 302.07 341.077 308.407 338.256Z" fill="#E63A47"/>
<g opacity="0.6">
<path opacity="0.6" d="M294.481 342.483C294.124 342.608 293.826 342.86 293.643 343.191C293.459 343.522 293.404 343.908 293.487 344.277C293.598 344.639 293.843 344.944 294.172 345.131C294.501 345.317 294.889 345.37 295.257 345.279C295.637 345.148 295.954 344.88 296.147 344.527C296.339 344.174 296.394 343.763 296.299 343.372C296.141 343.011 295.849 342.725 295.484 342.574C295.119 342.424 294.711 342.42 294.343 342.564" fill="white"/>
</g>
<g opacity="0.6">
<path opacity="0.6" d="M290.488 351.147V348.141L326.487 347.89C326.487 347.89 328.193 348.553 328.047 349.741L290.488 351.147Z" fill="white"/>
</g>
<path d="M308.593 339.468C308.593 339.654 307.68 339.775 306.799 340.398C305.918 341.02 305.473 341.804 305.295 341.739C305.117 341.675 305.36 340.608 306.435 339.872C307.51 339.137 308.625 339.299 308.593 339.468Z" fill="#263238"/>
<path d="M312.594 340.955C312.642 341.125 311.866 341.473 311.268 342.273C310.67 343.073 310.525 343.889 310.339 343.889C310.153 343.889 310.007 342.855 310.759 341.869C311.511 340.883 312.586 340.777 312.594 340.955Z" fill="#263238"/>
<path d="M315.011 345.579C314.849 345.619 314.558 344.714 315.011 343.696C315.463 342.677 316.288 342.241 316.377 342.386C316.465 342.532 315.948 343.097 315.568 343.938C315.188 344.779 315.197 345.579 315.011 345.579Z" fill="#263238"/>
<path d="M293.115 183.842L292.347 153.646L262.96 155.19L261.99 158.762C260.41 164.294 259.125 169.906 258.142 175.574C256.17 188.223 256.405 199.732 261.375 213.254C266.346 226.776 274.113 252.486 274.113 252.486L303.266 333.01L337.212 321.849L293.115 183.842Z" fill="#263238"/>
<path d="M310.888 152.668L313.451 161.033C317.217 163.458 323.303 175.339 323.861 180.205C324.418 185.07 325.477 201.728 324.37 221.255C323.424 237.315 315.479 331.313 315.479 331.313L283.36 333.01L286.706 181.013L288.12 153.872L310.888 152.668Z" fill="#263238"/>
<path d="M255.848 178.354C256.206 178.506 256.58 178.617 256.963 178.685C257.992 178.915 259.038 179.055 260.091 179.106C263.598 179.295 267.094 178.576 270.241 177.019C273.389 175.461 276.081 173.118 278.058 170.215C278.659 169.348 279.182 168.428 279.618 167.467C279.798 167.124 279.937 166.76 280.03 166.384C279.949 166.344 279.343 167.895 277.799 170.037C275.791 172.833 273.128 175.094 270.044 176.623C266.96 178.152 263.548 178.901 260.107 178.807C258.681 178.728 257.259 178.577 255.848 178.354Z" fill="#455A64"/>
<path d="M309.676 162.205C309.699 162.448 309.762 162.686 309.862 162.909C310.071 163.527 310.319 164.132 310.606 164.719C312.481 168.65 315.414 171.98 319.076 174.337C319.624 174.693 320.194 175.014 320.781 175.299C320.99 175.424 321.216 175.516 321.452 175.574C321.493 175.501 320.596 175.016 319.254 174.07C315.747 171.622 312.878 168.368 310.889 164.582C310.105 163.135 309.733 162.181 309.676 162.205Z" fill="#455A64"/>
<path d="M294.538 187.875C294.538 187.875 294.619 188.077 294.756 188.498L295.346 190.348C295.864 191.965 296.615 194.39 297.577 197.469C299.501 203.676 302.281 212.632 305.716 223.696C312.683 245.81 321.533 276.612 333.398 309.952C334.756 313.944 336.103 317.886 337.439 321.776L337.504 321.986L337.302 322.051L303.356 333.196L303.17 333.261L303.105 333.075L283.586 278.923L278.034 263.413C277.395 261.619 276.91 260.229 276.571 259.283C276.409 258.82 276.288 258.464 276.207 258.216L276.086 257.852C276.086 257.852 276.143 257.966 276.231 258.208C276.32 258.451 276.458 258.806 276.636 259.259L278.155 263.365C279.472 266.978 281.388 272.255 283.813 278.842L303.469 332.914L303.227 332.792L337.173 321.622L337.035 321.889C335.71 317.999 334.363 314.057 332.994 310.065C321.129 276.717 312.327 245.907 305.433 223.769C302.055 212.68 299.323 203.709 297.423 197.501C296.494 194.398 295.767 191.997 295.274 190.348C295.031 189.54 294.845 188.918 294.724 188.49C294.603 188.061 294.538 187.875 294.538 187.875Z" fill="#455A64"/>
<path d="M323.416 100.238C323.416 100.238 321.881 91.6462 317.476 87.5323C313.071 83.4184 294.716 78.7629 294.716 78.7629C294.716 78.7629 294.934 85.1399 290.828 86.8453C286.48 88.6638 282.131 88.0496 278.704 84.4206C276.64 82.1651 275.199 79.4098 274.526 76.4271C274.526 76.4271 252.768 79.6035 249.673 85.5036C246.577 91.4038 243.336 113.792 243.336 113.792L263.049 116.904L262.41 155.198L314.218 152.474L311.293 116.742L325.501 118.011L323.416 100.238Z" fill="#E63946"/>
<path d="M266.977 117.979C267.008 117.694 267.008 117.407 266.977 117.122C266.977 116.564 266.928 115.764 266.872 114.77C266.767 112.798 266.597 110.066 266.371 107.051C266.144 104.037 265.926 101.305 265.74 99.3327C265.643 98.3466 265.562 97.5464 265.498 96.9968C265.485 96.7084 265.433 96.4229 265.344 96.1482C265.303 96.4323 265.303 96.7209 265.344 97.0049C265.344 97.5626 265.393 98.3628 265.449 99.3488C265.554 101.329 265.724 104.061 265.95 107.076C266.177 110.09 266.395 112.822 266.581 114.794C266.67 115.78 266.759 116.58 266.823 117.13C266.831 117.419 266.883 117.705 266.977 117.979Z" fill="#263238"/>
<path d="M315.221 99.6882C315.099 99.6882 314.089 103.592 312.957 108.474C312.201 111.405 311.591 114.372 311.131 117.364C312.033 114.476 312.788 111.544 313.394 108.579C314.151 105.648 314.76 102.68 315.221 99.6882Z" fill="#263238"/>
<path d="M251.758 84.0488C251.758 84.1297 252.695 84.2509 254.183 84.7197C256.07 85.3326 257.836 86.2678 259.404 87.4839C260.962 88.7139 262.298 90.2008 263.356 91.8807C264.164 93.1819 264.504 94.071 264.585 94.0387C264.556 93.8149 264.494 93.5967 264.399 93.3921C264.189 92.8144 263.932 92.2548 263.631 91.719C261.597 88.1514 258.231 85.5356 254.271 84.4449C253.682 84.2764 253.079 84.1601 252.469 84.0973C252.237 84.037 251.996 84.0206 251.758 84.0488Z" fill="#263238"/>
<path d="M317.888 89.262C317.475 90.1268 317.203 91.0516 317.08 92.0019C316.821 92.9188 316.71 93.8708 316.748 94.8226C317.143 93.957 317.402 93.0355 317.516 92.0908C317.788 91.1733 317.914 90.2186 317.888 89.262Z" fill="#263238"/>
<path d="M246.827 114.366C246.827 114.366 254.231 143.713 255.031 146.219C255.831 148.724 257.27 155.497 264.414 156.532C274.065 157.938 311.486 154.632 311.486 154.632L303.945 146.049L270.654 138.581L264.996 117.243L246.827 114.366Z" fill="#FFBE9D"/>
<path d="M304.301 141.013C304.175 141.229 304.092 141.468 304.059 141.717C303.896 142.37 303.803 143.04 303.784 143.713C303.702 145.961 304.287 148.182 305.465 150.098C306.094 151.155 306.87 152.119 307.768 152.959C308.514 153.646 309.395 154.169 310.355 154.495C311.001 154.702 311.673 154.817 312.351 154.834C312.598 154.862 312.848 154.84 313.087 154.77C312.198 154.659 311.321 154.467 310.468 154.196C309.565 153.848 308.741 153.323 308.043 152.652C307.195 151.819 306.457 150.882 305.845 149.864C304.718 148.009 304.115 145.883 304.099 143.713C304.091 142.048 304.382 141.03 304.301 141.013Z" fill="#EB996E"/>
<g opacity="0.3">
<path opacity="0.3" d="M294.166 117.243L291.022 121.915C288.896 124.573 285.924 126.424 282.6 127.16C284.057 127.671 285.622 127.79 287.139 127.505C288.655 127.22 290.071 126.541 291.242 125.536C292.414 124.532 293.301 123.237 293.814 121.781C294.327 120.325 294.449 118.76 294.166 117.243Z" fill="black"/>
</g>
<path d="M303.485 68.5469C306.486 68.809 309.498 68.1971 312.158 66.7849C308.246 64.3602 305.781 60.1088 304.585 55.6716C303.388 51.2344 301.853 43.6693 301.812 39.0785L294.651 70.8988C298.426 71.7514 302.37 71.4443 305.967 70.0178C305.465 69.9905 304.978 69.8424 304.546 69.5863C304.114 69.3302 303.75 68.9737 303.485 68.5469Z" fill="#263238"/>
<path d="M283.053 72.394C281.496 68.8187 280.9 64.8986 281.323 61.0221L266.888 55.5503C266.224 59.4769 264.646 63.1923 262.281 66.3968C261.4 67.593 260.35 68.9832 260.762 70.438C260.942 70.921 261.242 71.3502 261.633 71.6853C262.025 72.0204 262.496 72.2503 263.001 72.3536C264.017 72.5274 265.055 72.5274 266.072 72.3536L264.229 74.3661C270.436 73.1727 276.734 72.5129 283.053 72.394Z" fill="#263238"/>
<path d="M284.273 24.8373C279.723 24.3685 275.875 26.3649 272.246 29.1452C268.63 32.0059 265.973 35.9031 264.633 40.3151C263.124 44.9367 263.158 49.9233 264.73 54.5239C265.533 56.8043 266.79 58.8982 268.425 60.6791C270.06 62.46 272.039 63.891 274.243 64.8855C280.288 67.4719 287.716 65.9443 292.695 61.6525C297.674 57.3608 300.236 50.6039 300.058 44.0168C300.001 39.4478 298.505 35.013 295.782 31.3436C294.409 29.5346 292.679 28.0272 290.699 26.9149C288.72 25.8026 286.532 25.1092 284.273 24.8777" fill="#263238"/>
<path d="M272.497 40.9859C273.038 39.224 272.658 37.3165 272.796 35.4737C273.111 31.4325 276.142 27.9814 279.779 26.1709C283.174 24.4817 287.449 24.5544 291.733 25.6052C294.706 26.2954 297.421 27.8209 299.557 30.002C300.924 31.486 301.916 33.2761 302.449 35.2224C302.982 37.1687 303.04 39.2144 302.62 41.188L281.856 39.5715C280.129 41.3915 278.113 42.9152 275.891 44.0815C275.24 44.4241 274.51 44.5913 273.774 44.5664C273.395 44.5464 273.031 44.4154 272.726 44.1898C272.421 43.9641 272.19 43.6538 272.06 43.2975C271.818 42.5539 272.23 41.7537 272.497 40.9859Z" fill="#263238"/>
<path d="M292.526 31.2548L274.817 36.2335C273.983 36.3439 273.221 36.7629 272.681 37.4078C272.141 38.0527 271.862 38.8766 271.899 39.717L274.664 78.569C274.853 81.2212 275.91 83.7373 277.67 85.73L279.529 87.8234C283.764 92.6081 291.653 91.5817 294.255 85.7543C294.413 85.4227 294.527 85.0723 294.595 84.7116C294.653 84.4182 294.691 84.1212 294.708 83.8226C294.891 81.8561 294.866 79.8758 294.635 77.9144C294.587 74.447 294.546 73.0245 294.546 73.0649C294.546 73.1053 301.82 71.6505 303.097 62.0648C303.728 57.2881 303.283 49.5129 302.709 43.152C302.2 37.4297 298.216 30.495 292.526 31.2548Z" fill="#FFBE9D"/>
<path d="M299.306 49.2622C299.315 49.5822 299.2 49.8932 298.984 50.1299C298.769 50.3665 298.47 50.5104 298.15 50.5312C297.996 50.5479 297.839 50.5333 297.69 50.4884C297.541 50.4434 297.402 50.369 297.282 50.2695C297.162 50.17 297.064 50.0475 296.992 49.9092C296.921 49.7709 296.877 49.6196 296.865 49.4643C296.852 49.1459 296.964 48.8348 297.177 48.5977C297.39 48.3606 297.687 48.2162 298.005 48.1954C298.161 48.1775 298.319 48.1911 298.469 48.2355C298.62 48.2798 298.76 48.3539 298.881 48.4534C299.003 48.5529 299.103 48.6758 299.176 48.8147C299.249 48.9537 299.293 49.1058 299.306 49.2622Z" fill="#263238"/>
<path d="M301.133 47.2417C300.979 47.4034 300.034 46.7406 298.708 46.781C297.383 46.8214 296.445 47.5084 296.283 47.3468C296.122 47.1851 296.356 46.9831 296.768 46.6679C297.327 46.2584 297.999 46.0325 298.692 46.0213C299.38 45.9995 300.056 46.1977 300.624 46.587C301.06 46.8861 301.206 47.169 301.133 47.2417Z" fill="#263238"/>
<path d="M286.827 49.9169C286.839 50.2361 286.725 50.5471 286.511 50.784C286.296 51.0208 285.998 51.165 285.68 51.1858C285.524 51.2025 285.367 51.188 285.218 51.1431C285.068 51.0983 284.929 51.024 284.808 50.9246C284.688 50.8252 284.589 50.7027 284.516 50.5644C284.444 50.426 284.4 50.2746 284.386 50.1189C284.375 49.7997 284.489 49.4887 284.703 49.2518C284.917 49.0149 285.215 48.8708 285.534 48.85C285.689 48.8333 285.847 48.8478 285.996 48.8926C286.146 48.9375 286.285 49.0118 286.405 49.1112C286.526 49.2106 286.625 49.3331 286.698 49.4714C286.77 49.6098 286.814 49.7612 286.827 49.9169Z" fill="#263238"/>
<path d="M288.177 47.8317C288.032 47.9933 287.086 47.3387 285.753 47.371C284.419 47.4033 283.489 48.0984 283.328 47.9368C283.166 47.7751 283.401 47.5811 283.821 47.2578C284.38 46.8484 285.052 46.6225 285.744 46.6112C286.429 46.5912 287.103 46.7893 287.668 47.177C288.104 47.4761 288.25 47.7589 288.177 47.8317Z" fill="#263238"/>
<path d="M293.22 57.482C293.91 57.2445 294.627 57.0951 295.354 57.0375C295.694 57.0375 296.009 56.9163 296.057 56.69C296.075 56.341 295.988 55.9947 295.807 55.6958L294.74 53.158C293.261 49.5451 292.186 46.5708 292.315 46.5142C292.445 46.4577 293.778 49.335 295.257 52.9802L296.276 55.5342C296.5 55.9344 296.574 56.4014 296.486 56.8516C296.443 56.9736 296.371 57.0836 296.277 57.1722C296.183 57.2608 296.069 57.3255 295.944 57.3608C295.76 57.4149 295.57 57.4448 295.378 57.4497C294.663 57.5517 293.938 57.5625 293.22 57.482Z" fill="#263238"/>
<path d="M294.546 73.0568C290.053 73.2427 285.596 72.1795 281.671 69.9855C281.671 69.9855 285.057 76.5079 294.603 75.3603L294.546 73.0568Z" fill="#EB996E"/>
<path d="M292.751 60.6745C292.491 60.3685 292.157 60.1337 291.781 59.9923C291.405 59.8509 290.999 59.8075 290.601 59.8663C290.313 59.8935 290.033 59.9792 289.779 60.1181C289.524 60.2571 289.301 60.4464 289.122 60.6745C288.944 60.9035 288.842 61.1825 288.831 61.4724C288.819 61.7622 288.898 62.0485 289.058 62.291C289.278 62.5187 289.559 62.6768 289.868 62.7458C290.177 62.8147 290.5 62.7915 290.795 62.6789C291.415 62.4434 291.981 62.0861 292.46 61.6282C292.602 61.5166 292.725 61.3829 292.824 61.2322C292.872 61.1588 292.897 61.0732 292.897 60.9857C292.897 60.8982 292.872 60.8125 292.824 60.7392" fill="#EB996E"/>
<path d="M289.373 58.4923C289.583 58.4923 289.624 59.9067 290.877 60.917C292.129 61.9273 293.649 61.7253 293.665 61.9031C293.681 62.0809 293.334 62.186 292.687 62.2183C291.849 62.2541 291.025 61.9937 290.359 61.4828C289.724 60.9892 289.306 60.2671 289.195 59.4703C289.123 58.8479 289.268 58.4923 289.373 58.4923Z" fill="#263238"/>
<path d="M288.298 43.8389C288.177 44.2026 286.852 44.0652 285.316 44.2996C283.78 44.534 282.536 44.9785 282.318 44.6633C282.221 44.5097 282.431 44.1703 282.924 43.8066C283.587 43.3699 284.342 43.0932 285.13 42.9983C285.92 42.8836 286.727 42.9584 287.482 43.2166C288.056 43.3944 288.347 43.6692 288.298 43.8389Z" fill="#263238"/>
<path d="M300.591 41.487C300.373 41.7941 299.452 41.487 298.361 41.487C297.27 41.487 296.348 41.7456 296.13 41.4385C296.033 41.2849 296.17 40.9859 296.566 40.6868C297.099 40.3306 297.724 40.1405 298.365 40.1405C299.005 40.1405 299.631 40.3306 300.163 40.6868C300.559 41.0344 300.697 41.3415 300.591 41.487Z" fill="#263238"/>
<path d="M268.997 38.4481C270.501 32.8551 278.138 24.8778 283.925 25.0152L293.39 30.1232C293.161 31.7081 292.509 33.2018 291.502 34.4466C290.495 35.6914 289.17 36.6411 287.668 37.1953C286.051 37.7692 284.111 38.0036 283.206 39.4342C282.301 40.8647 282.956 42.9662 282.099 44.4856C280.919 46.5871 277.427 46.6517 276.57 48.9067C276.191 49.8847 276.465 51.0324 276.069 52.0103C275.552 53.3116 272.392 55.0816 271.034 54.7179C269.676 54.3542 269.571 52.075 269.078 50.9031C268.465 49.5809 268.328 48.0876 268.69 46.676C269.151 43.9441 268.278 41.0991 268.997 38.4481Z" fill="#263238"/>
<path d="M275.035 55.6474C275.035 54.9362 274.146 53.2793 273.418 53.2227C271.535 52.9802 268.165 53.2227 268.254 57.9832C268.391 64.4976 274.897 63.0266 274.905 62.8327C274.914 62.6387 275.099 58.1045 275.035 55.6474Z" fill="#FFBE9D"/>
<path d="M272.885 60.3755C272.885 60.3755 272.772 60.4563 272.586 60.5533C272.314 60.6626 272.01 60.6626 271.738 60.5533C271.043 60.3189 270.445 59.2359 270.388 58.0639C270.359 57.5106 270.456 56.9579 270.671 56.4475C270.724 56.2449 270.825 56.0582 270.965 55.9034C271.106 55.7485 271.283 55.6301 271.479 55.5584C271.609 55.5198 271.749 55.5287 271.873 55.5835C271.998 55.6382 272.099 55.7353 272.158 55.8574C272.247 56.0353 272.215 56.1646 272.247 56.1807C272.279 56.1969 272.384 56.0676 272.328 55.8009C272.286 55.6404 272.192 55.4983 272.061 55.3967C271.972 55.329 271.87 55.2803 271.762 55.2539C271.653 55.2275 271.541 55.2238 271.431 55.2432C271.165 55.3037 270.919 55.4302 270.716 55.6111C270.512 55.7919 270.358 56.0212 270.267 56.2777C270 56.8453 269.878 57.47 269.911 58.0963C269.976 59.4137 270.671 60.626 271.617 60.8766C271.792 60.9253 271.977 60.9331 272.156 60.8995C272.336 60.8659 272.505 60.7917 272.651 60.6826C272.877 60.5371 272.91 60.3917 272.885 60.3755Z" fill="#EB996E"/>
<path d="M267.494 36.8316C267.381 34.7948 264.762 33.5986 262.75 33.2996C260.705 33.0833 258.651 33.6176 256.971 34.8029C255.969 35.4414 254.966 36.3224 254.813 37.5024C254.659 38.6825 255.872 39.9999 256.955 39.5069C256.429 39.7237 255.957 40.0541 255.573 40.4745C255.19 40.8948 254.904 41.3947 254.736 41.9385C254.568 42.4822 254.522 43.0563 254.602 43.6198C254.681 44.1832 254.884 44.7221 255.197 45.198C255.509 45.6738 255.922 46.0748 256.407 46.3722C256.892 46.6697 257.437 46.8564 258.003 46.9188C258.569 46.9812 259.141 46.918 259.679 46.7335C260.218 46.549 260.709 46.2478 261.117 45.8515C260.674 47.7722 259.588 49.4835 258.038 50.701C259.733 50.8259 261.432 50.5028 262.964 49.7641C264.495 49.0253 265.806 47.8969 266.764 46.492C267.722 45.0871 268.293 43.4551 268.421 41.7596C268.55 40.064 268.23 38.3646 267.494 36.8316Z" fill="#263238"/>
<path d="M256.155 64.732C256.155 64.4248 257.003 64.2793 258.159 63.9237C259.635 63.5141 261.02 62.8285 262.241 61.9031C263.437 60.9433 264.438 59.7637 265.191 58.4277C265.813 57.3851 266.145 56.6334 266.452 56.6819C266.759 56.7304 266.937 57.5952 266.613 58.9854C266.132 60.816 265.065 62.4389 263.575 63.6064C262.085 64.7739 260.254 65.4218 258.361 65.4513C256.931 65.427 256.122 65.0148 256.155 64.732Z" fill="#263238"/>
<path d="M263.663 47.46C263.43 46.842 263.304 46.1887 263.292 45.5283C263.064 42.3194 263.917 39.1268 265.716 36.4598C266.056 35.8916 266.491 35.3858 267.001 34.9646C265.755 36.7773 264.793 38.7697 264.148 40.8728C263.653 43.0312 263.49 45.2524 263.663 47.46Z" fill="#FF725E"/>
<path d="M291.377 28.2643C292.145 30.8668 296.389 33.9947 298.288 35.9426C301.909 39.6443 302.66 40.9051 303.202 49.6826C304.592 46.5466 305.627 43.4915 305.263 40.0807C304.96 36.6275 303.409 33.4032 300.899 31.0123C299.634 29.8453 298.116 28.9887 296.463 28.5104C294.811 28.032 293.069 27.945 291.377 28.2562" fill="#263238"/>
<path d="M333.842 104.263C333.842 104.263 329.494 122.335 327.708 130.127C325.841 138.427 321.686 157.259 310.662 154.511C302.272 152.442 304.14 141.579 304.14 141.579L311.292 116.742L317.92 117.494L324.006 102.509L330.569 95.5986L333.842 104.263Z" fill="#FFBE9D"/>
<path d="M307.066 142.226C306.697 140.911 306.622 139.531 306.848 138.185C307.125 136.742 307.65 135.358 308.399 134.095C309.364 132.554 310.445 131.09 311.632 129.714C312.826 128.317 313.907 126.828 314.865 125.261C315.628 123.97 316.282 122.619 316.821 121.22C317.181 120.277 317.483 119.313 317.726 118.334C317.835 117.98 317.903 117.613 317.928 117.243C317.777 117.58 317.653 117.929 317.557 118.286C317.338 118.957 317.015 119.902 316.522 121.098C315.95 122.464 315.277 123.785 314.51 125.051C313.537 126.586 312.457 128.05 311.277 129.431C310.076 130.826 308.995 132.318 308.044 133.893C307.284 135.203 306.772 136.641 306.532 138.136C306.377 139.148 306.421 140.18 306.662 141.175C306.729 141.451 306.818 141.721 306.928 141.983C307.001 142.145 307.05 142.234 307.066 142.226Z" fill="#EB996E"/>
<path d="M323.497 103.915C323.497 103.592 323.659 98.3303 323.764 96.9563C323.848 96.0867 324.092 95.2401 324.483 94.4589C324.634 94.1728 324.848 93.925 325.109 93.7344C325.37 93.5438 325.671 93.4155 325.989 93.3593C326.308 93.3031 326.635 93.3206 326.945 93.4103C327.256 93.5 327.541 93.6597 327.781 93.8769L327.902 93.982C328.525 92.7608 329.411 91.6926 330.496 90.8541C332.04 89.8438 333.309 89.1568 334.635 89.9489C334.997 90.1281 335.305 90.3995 335.53 90.7357C335.754 91.0719 335.885 91.4612 335.912 91.8644C335.912 91.8644 337.876 91.5977 338.724 92.3898C339.573 93.1819 338.724 95.5742 338.724 95.5742C338.724 95.5742 340.47 95.0408 340.898 96.3178C341.112 97.2009 340.979 98.1324 340.527 98.9203C340.527 98.9203 341.901 99.3406 342.062 100.351C342.224 101.361 340.688 102.469 340.688 102.469L335.895 106.283C335.257 108.275 333.953 109.988 332.202 111.133C328.872 112.41 323.497 103.915 323.497 103.915Z" fill="#FFBE9D"/>
<path d="M327.15 98.1849C327.199 98.1849 327.191 98.387 327.045 98.6294C326.865 98.9519 326.58 99.2029 326.237 99.3407C325.88 99.4602 325.494 99.4602 325.138 99.3407C324.871 99.2518 324.742 99.1224 324.766 99.0659C324.79 99.0093 325.421 99.1548 326.083 98.8961C326.746 98.6375 327.037 98.1283 327.15 98.1849Z" fill="#EB996E"/>
<path d="M330.949 93.4809C330.876 93.5779 330.416 93.2546 330.335 92.6242C330.254 91.9938 330.602 91.5654 330.699 91.6382C330.796 91.7109 330.699 92.0989 330.763 92.5676C330.828 93.0364 331.038 93.4082 330.949 93.4809Z" fill="#EB996E"/>
<path d="M338.959 95.5258C338.959 95.5258 338.619 96.0188 337.9 96.6411C336.95 97.4268 335.954 98.1555 334.917 98.8234C334.359 99.2637 333.706 99.5681 333.01 99.7124C332.711 99.7627 332.404 99.7331 332.12 99.6266C331.836 99.5202 331.586 99.3407 331.394 99.1063C331.271 98.9378 331.195 98.7404 331.172 98.5334C331.149 98.3265 331.181 98.1172 331.264 97.9262C331.394 97.6676 331.555 97.6029 331.571 97.6272C331.588 97.6514 331.482 97.7565 331.418 97.9909C331.381 98.1535 331.381 98.3224 331.419 98.4848C331.457 98.6473 331.531 98.799 331.636 98.9284C331.81 99.1018 332.025 99.2282 332.261 99.2961C332.497 99.3639 332.746 99.3709 332.986 99.3164C333.613 99.1591 334.2 98.8698 334.707 98.4677C335.912 97.6595 336.987 96.9563 337.738 96.3987C338.116 96.0689 338.525 95.7766 338.959 95.5258Z" fill="#EB996E"/>
<path d="M340.494 98.8961C339.04 99.7987 337.512 100.577 335.927 101.224C335.319 101.563 334.642 101.762 333.947 101.806C333.639 101.821 333.333 101.745 333.069 101.587C332.804 101.428 332.592 101.195 332.46 100.917C332.412 100.804 332.387 100.683 332.387 100.561C332.387 100.439 332.412 100.318 332.46 100.205C332.531 100.04 332.653 99.9012 332.808 99.8094C333.074 99.6639 333.244 99.7448 333.236 99.7609C333.228 99.7771 333.082 99.7609 332.905 99.9468C332.795 100.047 332.721 100.18 332.693 100.325C332.666 100.471 332.686 100.622 332.751 100.755C332.872 100.961 333.05 101.128 333.264 101.235C333.477 101.343 333.717 101.387 333.955 101.361C334.589 101.296 335.202 101.1 335.758 100.787C337.282 100.03 338.866 99.397 340.494 98.8961Z" fill="#EB996E"/>
<path d="M338.167 103.204C338.167 103.253 337.908 103.455 337.358 103.584C337.046 103.657 336.726 103.69 336.405 103.681C335.993 103.689 335.585 103.598 335.217 103.414C335.1 103.344 335.006 103.242 334.945 103.12C334.883 102.999 334.857 102.863 334.869 102.727C334.897 102.51 334.987 102.305 335.128 102.137C335.329 101.887 335.56 101.662 335.815 101.466C336.251 101.143 336.574 101.038 336.623 101.086C336.671 101.135 336.397 101.337 336.041 101.701C335.833 101.907 335.644 102.132 335.475 102.372C335.289 102.638 335.225 102.913 335.475 103.05C335.783 103.192 336.115 103.271 336.453 103.285C336.746 103.313 337.041 103.313 337.334 103.285C337.835 103.236 338.142 103.147 338.167 103.204Z" fill="#EB996E"/>
<path d="M333.616 104.004C333.642 103.27 333.461 102.544 333.094 101.908C332.726 101.273 332.188 100.753 331.539 100.409C330.89 100.066 330.158 99.9112 329.425 99.964C328.693 100.017 327.99 100.275 327.398 100.708C326.805 101.141 326.346 101.733 326.074 102.415C325.802 103.097 325.727 103.841 325.858 104.564C325.989 105.286 326.32 105.957 326.815 106.5C327.309 107.043 327.947 107.436 328.654 107.633L328.613 108.724L329.68 109.533L328.557 110.163L328.508 111.529L329.575 112.337L328.452 112.968L328.411 114.139L329.058 114.624L328.379 115.004V115.691L329.187 116.613L330.804 115.651L331.111 107.569C331.834 107.289 332.458 106.801 332.904 106.167C333.35 105.532 333.598 104.78 333.616 104.004ZM329.809 100.998C330.031 101.006 330.246 101.079 330.426 101.209C330.606 101.34 330.744 101.52 330.821 101.728C330.899 101.936 330.913 102.163 330.862 102.379C330.81 102.595 330.696 102.791 330.534 102.943C330.371 103.094 330.167 103.194 329.948 103.229C329.729 103.265 329.504 103.234 329.302 103.142C329.1 103.05 328.929 102.9 328.813 102.711C328.696 102.522 328.638 102.303 328.646 102.081C328.651 101.933 328.685 101.788 328.746 101.654C328.808 101.519 328.895 101.398 329.003 101.298C329.111 101.197 329.238 101.119 329.376 101.067C329.515 101.016 329.662 100.992 329.809 100.998Z" fill="#263238"/>
<path d="M329.809 100.998C329.809 100.998 329.712 100.998 329.543 101.046C329.301 101.104 329.085 101.24 328.928 101.434C328.808 101.592 328.733 101.781 328.712 101.978C328.691 102.176 328.725 102.376 328.811 102.556C328.896 102.736 329.029 102.888 329.196 102.997C329.362 103.106 329.556 103.167 329.754 103.174C329.953 103.18 330.15 103.132 330.323 103.034C330.496 102.935 330.639 102.792 330.736 102.618C330.832 102.444 330.879 102.247 330.871 102.048C330.863 101.849 330.801 101.656 330.69 101.491C330.549 101.285 330.345 101.132 330.108 101.054C329.947 101.006 329.842 101.006 329.842 100.989H329.882C329.952 100.98 330.023 100.98 330.092 100.989C330.343 101.056 330.563 101.207 330.715 101.418C330.829 101.576 330.902 101.76 330.926 101.954C330.95 102.147 330.924 102.344 330.852 102.525C330.767 102.74 330.617 102.924 330.424 103.05C330.22 103.191 329.976 103.261 329.729 103.253C329.479 103.243 329.239 103.156 329.042 103.002C328.86 102.855 328.726 102.658 328.654 102.436C328.598 102.25 328.589 102.054 328.627 101.864C328.665 101.673 328.749 101.495 328.872 101.345C329.043 101.147 329.277 101.013 329.535 100.965C329.602 100.959 329.669 100.959 329.737 100.965L329.809 100.998Z" fill="#263238"/>
<path d="M333.616 104.004V104.085V104.319C333.585 104.617 333.52 104.91 333.422 105.192C333.261 105.649 333.014 106.072 332.695 106.437C332.261 106.941 331.704 107.325 331.078 107.552C330.997 109.646 330.9 112.402 330.787 115.635L329.171 116.605L328.363 115.683C328.363 115.465 328.363 115.231 328.363 114.996L329.042 114.616V114.697L328.387 114.204C328.387 113.841 328.387 113.396 328.427 113.032L329.551 112.41V112.491L328.484 111.683V111.19C328.484 110.85 328.484 110.519 328.524 110.187L329.648 109.557V109.638L328.581 108.829C328.581 108.458 328.581 108.094 328.621 107.738V107.787C328.02 107.614 327.466 107.304 327.005 106.882C326.78 106.678 326.582 106.447 326.415 106.195C326.012 105.606 325.777 104.919 325.736 104.207C325.694 103.494 325.848 102.785 326.18 102.153C326.477 101.577 326.912 101.084 327.446 100.716C327.98 100.349 328.596 100.119 329.241 100.048C329.885 99.977 330.537 100.066 331.138 100.308C331.739 100.55 332.271 100.937 332.687 101.434C333.031 101.837 333.287 102.308 333.438 102.816L333.487 102.962V103.107C333.487 103.204 333.527 103.285 333.535 103.374C333.543 103.463 333.576 103.673 333.576 103.786V103.915C333.58 103.942 333.58 103.969 333.576 103.996V103.657C333.576 103.544 333.576 103.406 333.527 103.245C333.515 103.157 333.496 103.07 333.471 102.986V102.84L333.422 102.695C333.27 102.194 333.014 101.732 332.671 101.337C332.215 100.805 331.627 100.403 330.965 100.173C330.266 99.9388 329.515 99.9085 328.799 100.086C328.084 100.263 327.433 100.64 326.924 101.174C326.416 101.707 326.069 102.375 325.926 103.098C325.783 103.821 325.849 104.57 326.116 105.257C326.217 105.542 326.352 105.814 326.52 106.065C326.685 106.312 326.88 106.538 327.102 106.736C327.55 107.151 328.09 107.453 328.678 107.617H328.718C328.718 107.981 328.718 108.345 328.678 108.708L329.753 109.516H329.809L329.745 109.557L328.621 110.179V110.139C328.621 110.47 328.621 110.81 328.621 111.141V111.505L329.688 112.313L329.745 112.361H329.68L328.557 112.992C328.557 113.396 328.557 113.8 328.516 114.164L329.171 114.649L329.227 114.697H329.163L328.484 115.085C328.484 115.32 328.484 115.554 328.484 115.764L329.292 116.686H329.236L330.852 115.724V115.764C330.981 112.531 331.086 109.751 331.167 107.682C331.771 107.456 332.31 107.084 332.735 106.599C333.049 106.236 333.295 105.82 333.463 105.37C333.564 105.088 333.634 104.795 333.673 104.497V104.271C333.677 104.179 333.657 104.087 333.616 104.004Z" fill="#263238"/>
<path d="M333.212 103.786C333.24 103.05 333.06 102.321 332.693 101.682C332.325 101.044 331.786 100.522 331.135 100.176C330.485 99.8301 329.75 99.6745 329.016 99.727C328.281 99.7795 327.576 100.038 326.981 100.473C326.386 100.908 325.926 101.501 325.654 102.185C325.381 102.87 325.306 103.617 325.439 104.342C325.571 105.066 325.905 105.739 326.402 106.282C326.899 106.826 327.54 107.219 328.25 107.415L328.209 108.498L329.276 109.306L328.153 109.929L328.104 111.295L329.171 112.103L328.047 112.725L327.999 113.897L328.654 114.39L327.967 114.77V115.449L328.775 116.37L330.391 115.408L330.698 107.326C331.42 107.05 332.044 106.567 332.491 105.937C332.939 105.307 333.19 104.558 333.212 103.786ZM329.405 100.779C329.553 100.785 329.698 100.819 329.832 100.88C329.967 100.941 330.087 101.029 330.188 101.137C330.289 101.245 330.367 101.372 330.418 101.51C330.47 101.648 330.494 101.796 330.488 101.943C330.482 102.091 330.448 102.236 330.386 102.37C330.324 102.504 330.236 102.624 330.128 102.725C330.019 102.825 329.892 102.903 329.754 102.954C329.615 103.005 329.468 103.028 329.32 103.022C329.173 103.016 329.028 102.982 328.894 102.92C328.76 102.858 328.639 102.77 328.539 102.662C328.439 102.553 328.361 102.426 328.31 102.288C328.259 102.149 328.236 102.002 328.241 101.854C328.254 101.558 328.384 101.278 328.602 101.077C328.82 100.875 329.109 100.768 329.405 100.779Z" fill="#E63946"/>
<path d="M329.405 100.779C329.314 100.775 329.222 100.775 329.13 100.779C328.891 100.838 328.677 100.974 328.524 101.167C328.41 101.308 328.333 101.475 328.301 101.653C328.268 101.831 328.281 102.014 328.338 102.186C328.407 102.396 328.538 102.581 328.714 102.715C328.89 102.85 329.103 102.927 329.324 102.937C329.544 102.941 329.759 102.879 329.944 102.759C330.128 102.64 330.272 102.468 330.359 102.267C330.417 102.126 330.446 101.975 330.443 101.823C330.439 101.671 330.404 101.521 330.339 101.383C330.275 101.245 330.182 101.122 330.067 101.023C329.952 100.923 329.817 100.848 329.672 100.804C329.584 100.778 329.495 100.756 329.405 100.739H329.478C329.545 100.731 329.613 100.731 329.68 100.739C329.934 100.802 330.158 100.954 330.31 101.167C330.485 101.421 330.553 101.733 330.499 102.036C330.444 102.339 330.272 102.608 330.019 102.784C329.813 102.925 329.566 102.996 329.316 102.986C329.068 102.973 328.831 102.882 328.637 102.727C328.478 102.619 328.35 102.472 328.266 102.299C328.217 102.144 328.201 101.981 328.22 101.821C328.238 101.66 328.291 101.505 328.373 101.365C328.455 101.226 328.566 101.105 328.698 101.011C328.83 100.917 328.98 100.852 329.138 100.82C329.208 100.808 329.279 100.808 329.349 100.82L329.405 100.779Z" fill="#263238"/>
<path d="M333.212 103.786V103.867V104.093C333.18 104.393 333.115 104.688 333.018 104.974C332.85 105.428 332.604 105.849 332.291 106.219C331.852 106.718 331.297 107.101 330.674 107.334C330.602 109.428 330.505 112.184 330.391 115.417L328.775 116.378L327.967 115.457C327.967 115.247 327.967 115.012 327.967 114.778L328.646 114.39V114.471L327.999 113.986C327.999 113.614 327.999 113.218 328.04 112.814L329.163 112.184V112.264L328.096 111.456V111.093C328.096 110.761 328.096 110.422 328.136 110.09L329.26 109.468V109.549L328.193 108.741C328.193 108.377 328.193 108.013 328.233 107.649V107.698C327.629 107.532 327.074 107.222 326.617 106.793C326.39 106.589 326.189 106.358 326.019 106.106C325.85 105.854 325.712 105.582 325.607 105.297C325.414 104.799 325.324 104.267 325.342 103.733C325.36 103.198 325.487 102.674 325.713 102.189C325.94 101.705 326.262 101.272 326.66 100.916C327.059 100.56 327.525 100.288 328.031 100.117C328.86 99.8405 329.756 99.8405 330.585 100.117C331.232 100.291 331.823 100.624 332.307 101.087C332.648 101.492 332.904 101.962 333.059 102.469L333.107 102.622V102.768C333.107 102.857 333.148 102.945 333.156 103.026C333.164 103.107 333.196 103.333 333.196 103.438V103.786C333.198 103.756 333.198 103.727 333.196 103.697V103.447C333.196 103.333 333.196 103.196 333.156 103.026C333.115 102.857 333.115 102.865 333.099 102.768V102.63L333.051 102.477C332.892 101.977 332.633 101.516 332.291 101.119C331.839 100.585 331.249 100.185 330.585 99.9631C329.773 99.6878 328.892 99.6878 328.08 99.9631C327.141 100.294 326.362 100.966 325.898 101.846C325.644 102.336 325.498 102.873 325.467 103.423C325.436 103.974 325.522 104.524 325.72 105.039C325.828 105.322 325.966 105.593 326.132 105.847C326.297 106.094 326.492 106.32 326.714 106.518C327.163 106.931 327.703 107.233 328.29 107.399H328.266V107.439C328.266 107.795 328.266 108.159 328.266 108.53V108.49C328.621 108.749 328.977 109.023 329.333 109.298L329.397 109.347H329.333L328.209 109.977V109.937C328.209 110.268 328.209 110.599 328.169 110.939C328.169 111.06 328.169 111.181 328.169 111.295L329.236 112.103H329.3L329.236 112.143L328.112 112.766C328.112 113.17 328.112 113.574 328.064 113.937L328.718 114.431L328.775 114.471H328.71L328.023 114.851C328.023 115.085 328.023 115.32 328.023 115.53L328.832 116.459H328.775L330.391 115.497V115.538C330.513 112.305 330.626 109.525 330.707 107.455C331.312 107.223 331.853 106.849 332.283 106.364C332.594 105.999 332.84 105.584 333.01 105.136C333.112 104.856 333.182 104.566 333.22 104.271V104.037C333.197 103.999 333.184 103.956 333.183 103.912C333.181 103.868 333.191 103.825 333.212 103.786Z" fill="#263238"/>
<path d="M332.743 103.818C332.732 103.547 332.699 103.277 332.646 103.01C332.58 102.687 332.462 102.376 332.299 102.089C332.096 101.706 331.822 101.366 331.491 101.086C331.048 100.719 330.518 100.471 329.952 100.366C329.386 100.262 328.803 100.304 328.258 100.488C327.944 100.585 327.646 100.729 327.377 100.917C327.237 101.012 327.105 101.118 326.981 101.232C326.856 101.351 326.74 101.478 326.633 101.612C326.177 102.18 325.916 102.879 325.889 103.607C325.861 104.335 326.068 105.052 326.48 105.653C326.58 105.796 326.688 105.933 326.803 106.065C326.919 106.187 327.043 106.3 327.175 106.405C327.417 106.61 327.689 106.776 327.983 106.898C328.548 107.127 329.165 107.202 329.769 107.116C330.293 107.044 330.792 106.847 331.224 106.542C331.584 106.289 331.893 105.971 332.137 105.605C332.317 105.327 332.456 105.025 332.549 104.707C332.624 104.443 332.678 104.172 332.711 103.899V104.125C332.711 104.198 332.711 104.287 332.711 104.392C332.711 104.497 332.671 104.61 332.63 104.748C332.542 105.072 332.403 105.381 332.218 105.661C331.978 106.037 331.668 106.363 331.305 106.623C330.863 106.937 330.354 107.142 329.818 107.221C329.201 107.314 328.57 107.241 327.991 107.011C327.678 106.887 327.386 106.715 327.126 106.502C326.991 106.392 326.862 106.276 326.738 106.154C326.619 106.023 326.511 105.883 326.415 105.734C325.994 105.12 325.781 104.387 325.809 103.643C325.837 102.9 326.103 102.184 326.568 101.604C326.678 101.464 326.797 101.332 326.924 101.208C327.054 101.093 327.192 100.988 327.336 100.892C327.731 100.618 328.179 100.43 328.651 100.341C329.123 100.252 329.609 100.264 330.076 100.375C330.606 100.492 331.1 100.736 331.515 101.086C331.847 101.374 332.121 101.723 332.323 102.113C332.48 102.408 332.594 102.723 332.663 103.05C332.689 103.17 332.705 103.292 332.711 103.414C332.718 103.503 332.718 103.592 332.711 103.681V103.899L332.743 103.818Z" fill="#263238"/>
<path d="M330.69 101.959C330.68 101.853 330.664 101.748 330.642 101.644C330.581 101.358 330.421 101.103 330.189 100.925C330.033 100.799 329.851 100.711 329.656 100.666C329.432 100.619 329.201 100.633 328.985 100.707C328.743 100.779 328.531 100.926 328.379 101.127C328.212 101.337 328.119 101.595 328.112 101.862C328.101 102.126 328.173 102.386 328.318 102.607C328.463 102.827 328.674 102.996 328.92 103.091C329.119 103.17 329.334 103.2 329.546 103.177C329.759 103.154 329.963 103.081 330.141 102.962C330.38 102.795 330.556 102.553 330.642 102.275C330.673 102.171 330.697 102.066 330.714 101.959C330.714 101.959 330.714 101.959 330.714 102.048C330.709 102.13 330.695 102.211 330.674 102.291C330.596 102.584 330.419 102.841 330.173 103.018C330 103.141 329.801 103.221 329.591 103.252C329.338 103.292 329.08 103.259 328.845 103.158C328.61 103.056 328.409 102.89 328.265 102.679C328.1 102.442 328.015 102.159 328.023 101.87C328.034 101.576 328.139 101.293 328.322 101.062C328.49 100.851 328.718 100.696 328.977 100.618C329.212 100.549 329.461 100.549 329.696 100.618C329.9 100.666 330.091 100.76 330.254 100.892C330.496 101.099 330.654 101.386 330.698 101.701C330.709 101.781 330.709 101.863 330.698 101.943C330.69 101.935 330.69 101.959 330.69 101.959Z" fill="#263238"/>
<path d="M329.882 115.594C329.882 115.594 329.882 113.744 329.987 111.472C330.092 109.201 330.165 107.35 330.189 107.35C330.214 107.35 330.189 109.193 330.084 111.472C329.979 113.752 329.882 115.594 329.882 115.594Z" fill="#263238"/>
<path d="M329.745 101.167C329.663 101.207 329.573 101.228 329.482 101.228C329.391 101.228 329.301 101.207 329.219 101.167V96.1967L329.745 96.2371V101.167Z" fill="#E0E0E0"/>
<path d="M329.478 101.248C329.386 101.246 329.295 101.224 329.211 101.184V96.1805L329.777 96.221V101.184C329.684 101.228 329.582 101.251 329.478 101.248ZM329.244 101.151C329.318 101.187 329.4 101.206 329.482 101.206C329.565 101.206 329.646 101.187 329.721 101.151V96.2533H329.236L329.244 101.151Z" fill="#263238"/>
<path d="M327.457 93.7557C327.897 94.1319 328.365 94.475 328.855 94.7822C329.1 94.941 329.305 95.1542 329.453 95.4051C329.602 95.6561 329.691 95.9381 329.712 96.229C329.669 96.5256 329.552 96.8065 329.371 97.0454C329.19 97.2844 328.952 97.4734 328.678 97.5949C328.303 97.7962 327.893 97.9219 327.471 97.9646C327.048 98.0074 326.621 97.9664 326.214 97.8441C325.807 97.7217 325.429 97.5204 325.1 97.2516C324.771 96.9828 324.498 96.6517 324.297 96.2774" fill="#FFBE9D"/>
<path d="M324.329 96.2775C324.667 96.6366 325.035 96.9665 325.428 97.2635C325.866 97.5421 326.366 97.7087 326.883 97.7484C327.512 97.7959 328.142 97.6583 328.694 97.3524C328.959 97.2331 329.181 97.0328 329.326 96.7803C329.471 96.5277 329.532 96.2357 329.502 95.9461C329.34 95.467 329.025 95.0549 328.605 94.7741C327.837 94.2569 327.408 93.8042 327.473 93.7557C327.538 93.7072 327.95 94.0548 328.774 94.5236C329.291 94.8106 329.684 95.2762 329.882 95.8329C329.967 96.2023 329.906 96.5903 329.712 96.916C329.514 97.2486 329.236 97.5264 328.904 97.7242C328.275 98.077 327.551 98.224 326.835 98.1445C326.249 98.0828 325.691 97.8651 325.218 97.5141C324.466 96.9079 324.289 96.2855 324.329 96.2775Z" fill="#EB996E"/>
<path d="M332.436 91.6947C331.497 92.7853 330.683 93.9782 330.011 95.251C329.796 95.6409 329.671 96.0748 329.648 96.5199C329.638 96.7437 329.688 96.966 329.791 97.1647C329.895 97.3633 330.049 97.5311 330.238 97.6514C330.411 97.7334 330.6 97.776 330.791 97.776C330.983 97.776 331.172 97.7334 331.345 97.6514C331.686 97.4848 331.997 97.2637 332.266 96.9968C333.377 95.9837 334.384 94.8629 335.273 93.6507C335.504 93.3689 335.685 93.0489 335.806 92.705C335.871 92.5339 335.898 92.3512 335.887 92.1687C335.876 91.9863 335.826 91.8083 335.742 91.6462" fill="#FFBE9D"/>
<path d="M335.75 91.6382C335.75 91.6382 335.952 91.7998 335.976 92.2363C335.95 92.8358 335.715 93.4075 335.313 93.8528C334.823 94.5539 334.283 95.2184 333.697 95.841C333.373 96.1966 333.018 96.5604 332.638 96.916C332.255 97.3379 331.786 97.6739 331.264 97.902C330.962 97.9991 330.637 97.9991 330.334 97.902C330.027 97.8008 329.772 97.5832 329.623 97.2959C329.509 97.0416 329.451 96.7662 329.451 96.4876C329.451 96.2091 329.509 95.9337 329.623 95.6794C329.959 94.882 330.393 94.1299 330.916 93.4406C331.352 92.7882 331.868 92.1935 332.452 91.6705C332.064 92.3458 331.635 92.9963 331.167 93.6184C330.698 94.3025 330.308 95.0372 330.003 95.8087C329.911 96.0105 329.864 96.2296 329.864 96.4512C329.864 96.6729 329.911 96.892 330.003 97.0938C330.114 97.2854 330.291 97.4293 330.502 97.498C330.712 97.5666 330.94 97.5551 331.143 97.4656C331.601 97.2557 332.014 96.9562 332.355 96.5846C332.735 96.2371 333.09 95.8895 333.414 95.5501C334.068 94.8631 334.618 94.2165 335.03 93.6507C335.417 93.2567 335.676 92.7554 335.774 92.212C335.784 92.0204 335.775 91.8283 335.75 91.6382Z" fill="#EB996E"/>
<defs>
<clipPath id="clip0">
<rect width="37.179" height="36.3707" fill="white" transform="translate(148.029 213.027)"/>
</clipPath>
</defs>
</svg>
