<svg width="374" height="298" viewBox="0 0 374 298" fill="none" xmlns="http://www.w3.org/2000/svg">
<path d="M13.46 275.22C13.5386 275.069 13.6055 274.912 13.66 274.75C13.8 274.4 13.96 273.95 14.17 273.4C14.61 272.22 15.17 270.49 15.91 268.4C17.32 264.13 19.09 258.17 20.97 251.56C22.85 244.95 24.56 238.99 25.9 234.7C26.57 232.6 27.11 230.88 27.51 229.62C27.69 229.06 27.83 228.62 27.94 228.24C28.0014 228.082 28.045 227.918 28.07 227.75C27.9808 227.894 27.9102 228.048 27.86 228.21C27.73 228.57 27.56 229.02 27.35 229.57C26.91 230.75 26.35 232.47 25.62 234.57C24.2 238.84 22.43 244.8 20.56 251.41C18.69 258.02 17 264 15.62 268.27C14.96 270.37 14.41 272.09 14.02 273.34C13.84 273.91 13.7 274.34 13.58 274.73C13.5241 274.889 13.4839 275.053 13.46 275.22Z" fill="#E0E0E0"/>
<path d="M150.61 0.313859L78.3096 22.0601L92.9674 70.7934L165.268 49.0472L150.61 0.313859Z" fill="white"/>
<path d="M165.28 49C165.28 49 165.17 48.69 164.99 48.11C164.81 47.53 164.54 46.65 164.19 45.53C163.5 43.27 162.48 39.96 161.19 35.74C158.61 27.27 154.92 15.12 150.42 0.330032L150.68 0.470032L78.4 22.3L78.58 21.97L93.22 70.71L92.92 70.55L145 55L159.91 50.59L163.91 49.42L164.91 49.12L165.27 49.03L164.95 49.14L163.95 49.46L160.03 50.66L145.21 55.19L93.05 71L92.82 71.07L92.75 70.84C88.28 55.99 83.3 39.48 78.07 22.11L78 21.86L78.24 21.79L150.55 0.0900269L150.75 0.0300293L150.81 0.230034C155.24 15.1 158.87 27.31 161.41 35.82C162.65 40.04 163.63 43.34 164.29 45.61C164.62 46.71 164.86 47.56 165.04 48.16C165.22 48.76 165.28 49 165.28 49Z" fill="#E0E0E0"/>
<path d="M150.62 0.300015C150.593 0.376273 150.56 0.449913 150.52 0.520008L150.18 1.14001C149.85 1.71001 149.4 2.50001 148.84 3.50001L143.79 12.17L126.85 40.9L126.73 41.09L126.53 41.01L124.32 40.16L91.7498 27.45L81.8998 23.55L79.2398 22.46L78.5498 22.17C78.4673 22.1425 78.3896 22.102 78.3198 22.05C78.4068 22.0576 78.4916 22.0813 78.5698 22.12L79.2698 22.36L81.9798 23.36L91.8798 27.11L124.5 39.67L126.72 40.53L126.4 40.64C133.1 29.39 139.12 19.31 143.48 11.98L148.67 3.40001C149.27 2.40001 149.75 1.65001 150.09 1.08001L150.48 0.49001C150.56 0.36001 150.61 0.290015 150.62 0.300015Z" fill="#E0E0E0"/>
<path d="M288.81 257.64C289.292 258.591 289.699 259.577 290.03 260.59C290.72 262.44 291.64 265 292.63 267.84C293.62 270.68 294.48 273.26 295.09 275.13C295.466 276.13 295.757 277.161 295.96 278.21C295.47 277.246 295.062 276.242 294.74 275.21C294.05 273.37 293.13 270.81 292.14 267.97C291.15 265.13 290.28 262.55 289.68 260.67C289.306 259.686 289.015 258.673 288.81 257.64Z" fill="#E0E0E0"/>
<path d="M316.86 96.6125L314.49 174.166L371.164 175.898L373.533 98.344L316.86 96.6125Z" fill="#F5F5F5"/>
<path d="M306.426 106.922L304.057 184.476L360.73 186.207L363.1 108.654L306.426 106.922Z" fill="white"/>
<path d="M360.72 186.19C360.713 186.063 360.713 185.937 360.72 185.81C360.72 185.55 360.72 185.19 360.72 184.72C360.72 183.72 360.77 182.32 360.82 180.48C360.92 176.77 361.06 171.38 361.24 164.55C361.63 150.9 362.18 131.55 362.83 108.64L363.06 108.88L306.39 107.17L306.66 106.92C305.75 135.92 304.92 162.71 304.24 184.47L304.03 184.25L345.19 185.62L356.64 186.02L359.64 186.14L360.69 186.19H359.69L356.69 186.12L345.29 185.83L304 184.68H303.79V184.47C304.44 162.7 305.24 135.88 306.11 106.91V106.65H306.38L363.04 108.41H363.28V108.65C362.53 131.65 361.9 151.03 361.45 164.71C361.22 171.51 361.03 176.89 360.91 180.58C360.84 182.4 360.79 183.8 360.75 184.77C360.75 185.23 360.75 185.59 360.7 185.84C360.65 186.09 360.72 186.19 360.72 186.19Z" fill="#E0E0E0"/>
<path d="M341 124.86C341 125.01 334.83 124.93 327.23 124.7C319.63 124.47 313.46 124.16 313.46 124.02C313.46 123.88 319.64 123.95 327.24 124.18C334.84 124.41 341 124.72 341 124.86Z" fill="#E0E0E0"/>
<path d="M355.64 132.06C355.64 132.2 346.14 132.06 334.42 131.67C322.7 131.28 313.2 130.9 313.21 130.76C313.22 130.62 322.71 130.76 334.44 131.15C346.17 131.54 355.65 131.91 355.64 132.06Z" fill="#E0E0E0"/>
<path d="M355.43 139.09C355.43 139.23 345.92 139.09 334.2 138.7C322.48 138.31 312.99 137.93 312.99 137.79C312.99 137.65 322.5 137.79 334.22 138.18C345.94 138.57 355.43 138.94 355.43 139.09Z" fill="#E0E0E0"/>
<path d="M355.21 146.12C355.21 146.26 345.71 146.12 333.99 145.73C322.27 145.34 312.78 144.96 312.78 144.82C312.78 144.68 322.29 144.82 334.01 145.21C345.73 145.6 355.22 146 355.21 146.12Z" fill="#E0E0E0"/>
<path d="M355 153.15C355 153.29 345.49 153.15 333.78 152.76C322.07 152.37 312.56 151.99 312.56 151.85C312.56 151.71 322.07 151.85 333.79 152.24C345.51 152.63 355 153 355 153.15Z" fill="#E0E0E0"/>
<path d="M354.79 160.18C354.79 160.32 345.28 160.18 333.56 159.79C321.84 159.4 312.35 159.02 312.35 158.88C312.35 158.74 321.86 158.88 333.58 159.27C345.3 159.66 354.79 160 354.79 160.18Z" fill="#E0E0E0"/>
<path d="M354.57 167.21C354.57 167.35 345.06 167.21 333.35 166.82C321.64 166.43 312.13 166.05 312.14 165.91C312.15 165.77 321.64 165.91 333.36 166.3C345.08 166.69 354.58 167.06 354.57 167.21Z" fill="#E0E0E0"/>
<path d="M334.73 173.64C334.73 173.78 329.62 173.74 323.32 173.55C317.02 173.36 311.92 173.08 311.92 172.94C311.92 172.8 317.03 172.84 323.33 173.03C329.63 173.22 334.73 173.49 334.73 173.64Z" fill="#E0E0E0"/>
<path d="M192.854 35.9666L175.12 80.5061L230.827 102.686L248.56 58.1463L192.854 35.9666Z" fill="white"/>
<path d="M248.55 58.15L248.28 58.05L247.5 57.75L244.5 56.55L233.07 52L192.81 36L192.93 35.95L175.21 80.48L175.15 80.34L230.85 102.54H230.74C236.1 89.12 240.55 78 243.65 70.23C245.21 66.35 246.43 63.3 247.26 61.23L248.26 58.86L248.59 58.04L248.28 58.85C248.07 59.39 247.76 60.18 247.35 61.21C246.53 63.29 245.35 66.34 243.79 70.21C240.7 77.99 236.27 89.14 230.94 102.59V102.67H230.86L175.08 80.6H174.98V80.5C181.39 64.42 187.44 49.22 192.72 35.97V35.88H192.8L233.16 52L244.53 56.56L247.53 57.76L248.3 58.07L248.55 58.15Z" fill="#E0E0E0"/>
<path d="M193.616 39.5846L178.117 78.5126L229.912 99.135L245.411 60.2071L193.616 39.5846Z" fill="#EBEBEB"/>
<path d="M178.32 78.63L206.05 61.63L211.23 81.23L222.05 76.17L230.12 99.25L178.32 78.63Z" fill="#E0E0E0"/>
<path d="M223.19 65.0001C222.869 65.807 222.316 66.5006 221.6 66.993C220.885 67.4854 220.039 67.7545 219.171 67.7663C218.302 67.7781 217.45 67.532 216.721 67.0592C215.993 66.5865 215.421 65.9082 215.078 65.1103C214.735 64.3123 214.636 63.4306 214.795 62.5767C214.953 61.7227 215.361 60.9349 215.967 60.3128C216.573 59.6908 217.35 59.2626 218.2 59.0823C219.05 58.902 219.934 58.9778 220.74 59.3001C221.276 59.5127 221.764 59.829 222.177 60.2308C222.591 60.6325 222.921 61.112 223.148 61.6415C223.376 62.171 223.497 62.7403 223.504 63.3166C223.511 63.8929 223.404 64.465 223.19 65.0001Z" fill="#E0E0E0"/>
<path d="M49.4498 126.86C49.8262 127.015 50.2337 127.08 50.6398 127.05C51.1264 126.994 51.5787 126.772 51.9198 126.42C52.3154 125.872 52.6665 125.294 52.9698 124.69L59.4598 113.37L61.6198 109.63L62.7698 107.63C62.9699 107.311 63.1438 106.977 63.2898 106.63C63.3949 106.285 63.3949 105.916 63.2898 105.57C63.1998 105.214 63.0004 104.896 62.7198 104.66C62.3994 104.433 62.0654 104.226 61.7198 104.04L59.4898 102.8L54.8498 100.2L34.1898 88.61C33.7822 88.392 33.3083 88.3327 32.8596 88.4435C32.4109 88.5543 32.0191 88.8274 31.7598 89.21L30.2098 91.87C29.2098 93.63 28.2098 95.38 27.2098 97.09L21.4098 107C21.1798 107.39 20.9498 107.78 20.7298 108.17C20.507 108.508 20.3919 108.905 20.3998 109.31C20.4155 109.705 20.5595 110.084 20.8098 110.39C21.0938 110.684 21.4338 110.919 21.8098 111.08L26.1798 113.56L33.9998 118L45.3198 124.47L48.3898 126.25L49.1798 126.72C49.3598 126.83 49.4498 126.89 49.4398 126.9L49.1598 126.77L48.3398 126.34L45.2298 124.64L33.8198 118.32L25.9998 113.89L21.6198 111.44C21.1954 111.253 20.8115 110.984 20.4898 110.65C20.1773 110.264 19.9984 109.787 19.9798 109.29C19.9583 108.795 20.0911 108.306 20.3598 107.89C20.5798 107.5 20.8098 107.11 21.0398 106.72L26.7698 96.83L29.7698 91.61L31.3398 88.92C31.6708 88.4294 32.1721 88.079 32.7466 87.9368C33.3212 87.7945 33.9281 87.8705 34.4498 88.15L55.0898 99.78L59.7298 102.4L61.9398 103.66C62.3214 103.854 62.689 104.075 63.0398 104.32C63.3885 104.618 63.6365 105.016 63.7498 105.46C63.8699 105.885 63.8699 106.335 63.7498 106.76C63.5904 107.139 63.3997 107.503 63.1798 107.85L62.0098 109.85L59.8298 113.58C57.0398 118.3 54.7798 122.13 53.1998 124.82C52.8717 125.425 52.4973 126.003 52.0798 126.55C51.7075 126.915 51.2193 127.138 50.6998 127.18C50.3856 127.203 50.0703 127.152 49.7798 127.03C49.6625 126.989 49.5514 126.932 49.4498 126.86Z" fill="#E0E0E0"/>
<path d="M44.17 106.36L46.69 110.83L41.49 110.93L36.29 111.02L38.97 106.45L41.65 101.88L44.17 106.36Z" fill="#E0E0E0"/>
<path d="M61.8101 233.49L31.6201 203.16L46.8001 175.28C61.9801 155.84 94.1201 157.09 94.1201 157.09C109.976 156.012 125.905 156.99 141.51 160C167.04 165 164.98 181.86 164.98 181.86L168.4 244.43L172.07 295.38L77.9201 297.28L61.8101 233.53" fill="#E63946"/>
<path d="M112.53 294.3L28.1999 295.3C23.5543 295.354 18.9712 294.226 14.8811 292.023C10.791 289.82 7.32808 286.613 4.8176 282.703C2.30712 278.794 0.831469 274.311 0.529252 269.675C0.227036 265.039 1.10817 260.402 3.08989 256.2L39.1499 189.33L71.9999 211.53L49.5899 258L117.85 259.22L112.53 294.3Z" fill="#E63946"/>
<path d="M162 171.66L229.67 276.14L190.19 278.72C190.19 278.72 166.61 241.57 167.14 242.33C168.08 243.73 162 171.66 162 171.66Z" fill="#E63946"/>
<path d="M211.74 261.34C211.382 261.068 211.048 260.767 210.74 260.44L208 257.8L198.59 248.58L199.01 248.41C198.93 250.87 198.85 253.53 198.76 256.3C198.67 259.07 198.56 261.82 198.47 264.3V264.88L198.06 264.47L188.9 255.12L186.28 252.39C185.954 252.081 185.654 251.746 185.38 251.39C185.736 251.664 186.07 251.965 186.38 252.29L189.1 254.92L198.4 264.14L197.97 264.31C198.05 261.81 198.14 259.11 198.23 256.31C198.32 253.51 198.43 250.88 198.52 248.42V247.85L198.92 248.25L208.19 257.61L210.84 260.35C211.167 260.654 211.468 260.986 211.74 261.34Z" fill="#E0E0E0"/>
<path d="M115.36 270.57C115.36 270.57 132.18 265.72 137.75 264.3C139.92 263.75 149.21 268.65 155.63 272.73C155.63 272.73 164.47 277.97 163.76 279.58C162.97 281.36 159.76 281 154.51 278.58C154.51 278.58 156.33 283.85 152.76 283.73C152.76 283.73 154.53 289.43 151.19 290.02C147.85 290.61 147.07 283.34 144.13 282.95C141.19 282.56 135.13 282.16 135.13 282.16C135.13 282.16 130.06 290.56 126.13 291.16C122.2 291.76 113.13 290.69 113.13 290.69L115.36 270.57Z" fill="#FFBE9D"/>
<path d="M144.07 271.73C145.716 272.463 147.29 273.351 148.77 274.38C150.34 275.268 151.82 276.306 153.19 277.48C149.969 275.867 146.914 273.941 144.07 271.73Z" fill="#EB996E"/>
<path d="M143.08 275C145.001 275.605 146.868 276.371 148.66 277.29C150.513 278.043 152.299 278.949 154 280C152.078 279.402 150.211 278.639 148.42 277.72C146.564 276.971 144.777 276.061 143.08 275Z" fill="#EB996E"/>
<path d="M144.88 282.81C147.42 282.801 149.95 283.137 152.4 283.81C149.86 283.817 147.33 283.481 144.88 282.81Z" fill="#EB996E"/>
<path d="M93.4699 97C93.668 97.6481 93.6708 98.34 93.478 98.9896C93.2853 99.6392 92.9055 100.218 92.3861 100.653C91.8667 101.088 91.2307 101.361 90.5574 101.437C89.884 101.513 89.2033 101.389 88.5999 101.08C86.3199 99.93 86.0299 96.7801 86.4799 94.2701C86.9299 91.7601 87.7799 89.0701 86.7299 86.7401C85.9199 84.9601 84.1699 83.83 82.8099 82.43C81.6098 81.2132 80.708 79.7347 80.1754 78.1107C79.6427 76.4867 79.4937 74.7613 79.7399 73.0701C80.0282 71.3838 80.7764 69.8099 81.9021 68.5218C83.0279 67.2337 84.4875 66.2815 86.1199 65.7701C89.4699 64.8401 93.5999 65.8701 96.1199 63.4401C97.9299 61.6801 98.0399 58.8101 99.4399 56.7101C101.61 53.4501 106.2 52.9301 110.08 53.4601C113.96 53.9901 117.9 55.24 121.7 54.29C124.87 53.5 127.47 51.29 130.45 49.93C133.698 48.4454 137.328 48.0129 140.834 48.6931C144.34 49.3733 147.545 51.132 150.002 53.7235C152.459 56.3149 154.045 59.6095 154.538 63.1464C155.03 66.6833 154.405 70.2858 152.75 73.45C151.646 75.7657 149.768 77.6227 147.44 78.7" fill="#263238"/>
<path d="M112.77 179.61C115.32 179.605 117.844 179.094 120.195 178.106C122.546 177.119 124.677 175.674 126.466 173.857C128.255 172.039 129.665 169.885 130.615 167.518C131.565 165.151 132.036 162.62 132 160.07L131.75 141.69C131.75 141.69 147.19 140.14 148.21 124.84C149.23 109.54 148.5 74.23 148.5 74.23C140.004 70.0153 130.538 68.1428 121.078 68.8055C111.617 69.4682 102.505 72.6421 94.6798 78L92.3198 79.63L93.4698 160.57C93.5304 165.646 95.5915 170.493 99.2052 174.058C102.819 177.623 107.694 179.618 112.77 179.61Z" fill="#FFB8B8"/>
<path d="M144.46 102C143.902 101.936 143.386 101.669 143.012 101.249C142.638 100.829 142.432 100.287 142.432 99.7251C142.432 99.163 142.638 98.6206 143.012 98.2011C143.386 97.7816 143.902 97.5143 144.46 97.45C144.581 97.42 144.708 97.42 144.83 97.45C145.388 97.5143 145.904 97.7816 146.278 98.2011C146.652 98.6206 146.858 99.163 146.858 99.7251C146.858 100.287 146.652 100.829 146.278 101.249C145.904 101.669 145.388 101.936 144.83 102C144.707 102.02 144.583 102.02 144.46 102Z" fill="#263238"/>
<path d="M147.46 97.06C147.21 97.32 145.77 96.06 143.66 95.95C141.55 95.84 139.96 96.8301 139.75 96.5501C139.54 96.2701 139.9 95.9601 140.6 95.4901C141.535 94.8898 142.639 94.6057 143.748 94.6796C144.856 94.7534 145.912 95.1812 146.76 95.9C147.39 96.46 147.59 97 147.46 97.06Z" fill="#263238"/>
<path d="M123.07 97.58C123.433 97.8312 123.713 98.1844 123.875 98.5948C124.037 99.0053 124.073 99.4546 123.98 99.8858C123.886 100.317 123.667 100.711 123.35 101.017C123.032 101.324 122.631 101.53 122.197 101.608C121.763 101.686 121.315 101.634 120.91 101.458C120.506 101.282 120.162 100.99 119.924 100.618C119.685 100.247 119.563 99.8135 119.571 99.3723C119.579 98.9311 119.718 98.5023 119.97 98.14C120.307 97.6552 120.823 97.324 121.404 97.219C121.985 97.114 122.584 97.2439 123.07 97.58Z" fill="#263238"/>
<path d="M124.46 97.67C124.2 97.93 122.76 96.67 120.66 96.56C118.56 96.45 116.96 97.44 116.74 97.16C116.63 97.03 116.9 96.57 117.59 96.1C118.525 95.4998 119.629 95.2157 120.738 95.2895C121.847 95.3633 122.903 95.7912 123.75 96.51C124.38 97.07 124.58 97.56 124.46 97.67Z" fill="#263238"/>
<path d="M132 115.53C132 115.37 133.31 115.17 135.45 114.99C136 114.99 136.45 114.86 136.5 114.57C136.54 114.019 136.433 113.466 136.19 112.97C135.72 111.54 135.25 110.1 134.75 108.59C132.75 102.36 131.44 97.23 131.75 97.13C132.06 97.03 133.92 102 135.89 108.23C136.35 109.75 136.8 111.23 137.23 112.63C137.547 113.358 137.611 114.172 137.41 114.94C137.321 115.148 137.183 115.331 137.01 115.475C136.836 115.619 136.63 115.72 136.41 115.77C136.098 115.84 135.778 115.863 135.46 115.84C133.3 115.8 132 115.7 132 115.53Z" fill="#263238"/>
<path d="M125 117.49C128.214 119.14 131.639 120.341 135.18 121.06C134.404 122.126 133.289 122.898 132.018 123.251C130.747 123.603 129.394 123.515 128.18 123C123.67 121.07 125 117.49 125 117.49Z" fill="white"/>
<path d="M131.81 141.47C124.731 141.218 117.887 138.864 112.15 134.71C112.15 134.71 116.27 145.98 131.62 145.44L131.81 141.47Z" fill="#E18E8E"/>
<path d="M148.63 78.1C148.63 78.1 139.38 82.8 127.13 76.98C119.13 73.16 109.76 71.39 107.74 73.04C105.72 74.69 105.45 82.89 97.6101 85.44C97.6101 85.44 98.4601 101.1 92.2001 100.66C85.9401 100.22 89.3801 75.89 89.3801 75.89L104.51 68.13L121.12 64.66L136.87 66.57L149.09 69.66L148.63 78.1Z" fill="#263238"/>
<path d="M93.34 95.63C93.09 95.5 82.99 91.94 82.76 102.43C82.53 112.92 93.1 110.99 93.12 110.69C93.14 110.39 93.34 95.63 93.34 95.63Z" fill="#FFB8B8"/>
<path d="M89.9999 106.64C89.9999 106.64 89.8099 106.77 89.4999 106.9C89.0607 107.078 88.5692 107.078 88.1299 106.9C87.0299 106.47 86.1299 104.69 86.1299 102.8C86.1286 101.899 86.3231 101.008 86.6999 100.19C86.8076 99.8652 86.992 99.5711 87.2374 99.3326C87.4828 99.0942 87.7821 98.9183 88.1099 98.82C88.3216 98.7816 88.54 98.8123 88.7327 98.9078C88.9255 99.0033 89.0823 99.1584 89.1799 99.35C89.3099 99.64 89.2399 99.85 89.2899 99.87C89.3399 99.89 89.5199 99.7 89.4499 99.27C89.3949 99.0084 89.2542 98.7726 89.0499 98.6C88.7668 98.3775 88.4082 98.2735 88.0499 98.31C87.6169 98.3847 87.2103 98.5692 86.8689 98.8458C86.5275 99.1224 86.2628 99.4819 86.0999 99.89C85.6381 100.79 85.398 101.788 85.3999 102.8C85.3999 104.91 86.4599 106.92 87.9599 107.39C88.2404 107.476 88.5363 107.499 88.8266 107.457C89.117 107.416 89.3946 107.311 89.6399 107.15C89.9999 106.9 89.9999 106.66 89.9999 106.64Z" fill="#EB996E"/>
<path d="M88 62.8001C89.1966 62.4491 90.4747 62.4951 91.6428 62.9314C92.811 63.3677 93.8064 64.1707 94.48 65.2201C93.5476 64.5139 92.5418 63.9104 91.48 63.4201C90.3447 63.093 89.1784 62.8853 88 62.8001Z" fill="#263238"/>
<path d="M94.3099 56.52C94.4999 56.52 94.2099 58.73 94.5699 61.35C94.8811 62.9252 95.3744 64.4588 96.0399 65.92C96.0399 65.92 95.5999 65.55 95.1599 64.77C94.5953 63.7319 94.2226 62.6005 94.0599 61.43C93.7686 59.7956 93.8541 58.1163 94.3099 56.52Z" fill="#263238"/>
<path d="M137.4 92C137.34 91.88 137.79 91.51 138.64 91.17C140.896 90.2974 143.401 90.3224 145.64 91.24C146.48 91.6 146.93 91.97 146.87 92.09C146.74 92.37 144.72 91.58 142.13 91.58C139.54 91.58 137.52 92.31 137.4 92Z" fill="#263238"/>
<path d="M114 89.82C113.94 89.7 114.39 89.34 115.24 88.99C116.359 88.5575 117.55 88.3436 118.75 88.36C119.955 88.3597 121.148 88.5976 122.26 89.06C123.1 89.42 123.54 89.79 123.49 89.92C123.44 90.05 121.34 89.41 118.74 89.4C116.14 89.39 114.14 90.1 114 89.82Z" fill="#263238"/>
<path d="M135.59 93.68C135.612 93.886 135.612 94.0939 135.59 94.3C135.59 94.74 135.59 95.3 135.64 95.99C135.69 96.68 135.64 97.61 135.7 98.61C135.662 99.7641 135.831 100.916 136.2 102.01C136.682 103.43 137.517 104.704 138.625 105.713C139.734 106.722 141.081 107.433 142.54 107.78C143.377 107.984 144.24 108.059 145.1 108C145.994 107.96 146.875 107.774 147.71 107.45C149.489 106.783 151.004 105.559 152.03 103.96C153 102.433 153.488 100.649 153.43 98.84C153.43 97.05 153.43 95.33 153.43 93.68L153.67 93.92L140.67 93.8L136.9 93.73H135.9H135.53C135.958 93.6824 136.389 93.6624 136.82 93.67L140.53 93.6L153.67 93.48H154V93.73C154 95.38 154 97.1 154 98.89C154.067 100.797 153.554 102.68 152.53 104.29C151.442 105.983 149.835 107.278 147.95 107.98C147.064 108.32 146.128 108.513 145.18 108.55C144.276 108.604 143.368 108.519 142.49 108.3C140.96 107.93 139.551 107.173 138.399 106.101C137.246 105.029 136.389 103.679 135.91 102.18C135.551 101.036 135.401 99.8369 135.47 98.64C135.47 97.64 135.47 96.71 135.52 95.95C135.57 95.19 135.52 94.72 135.57 94.28C135.56 94.0798 135.567 93.8791 135.59 93.68Z" fill="#263238"/>
<path d="M111.08 93.16C111.08 93.16 111.08 93.39 111.08 93.78V95.47C111.08 96.21 111.08 97.09 111.13 98.1C111.104 99.2534 111.273 100.403 111.63 101.5C112.091 102.817 112.847 104.011 113.84 104.99C114.987 106.105 116.414 106.889 117.97 107.26C119.691 107.675 121.496 107.56 123.15 106.93C124.924 106.264 126.435 105.044 127.46 103.45C128.434 101.924 128.926 100.14 128.87 98.33C128.87 96.54 128.87 94.81 128.87 93.16L129.11 93.4L116.11 93.28L112.35 93.22H111.35H110.98C111.405 93.1726 111.833 93.1526 112.26 93.16L115.97 93.1L129.11 92.98H129.35V93.22C129.35 94.87 129.35 96.6 129.35 98.39C129.41 100.298 128.895 102.18 127.87 103.79C126.783 105.477 125.18 106.768 123.3 107.47C122.414 107.809 121.478 108.002 120.53 108.04C119.623 108.093 118.712 108.009 117.83 107.79C116.196 107.388 114.702 106.547 113.51 105.36C112.479 104.324 111.704 103.06 111.25 101.67C110.891 100.526 110.742 99.3269 110.81 98.13C110.81 97.13 110.81 96.2 110.87 95.44C110.93 94.68 110.87 94.21 110.87 93.77C110.907 93.5566 110.977 93.3506 111.08 93.16Z" fill="#263238"/>
<path d="M135.81 94.4101C133.523 94.7571 131.197 94.7571 128.91 94.4101C131.196 94.0502 133.524 94.0502 135.81 94.4101Z" fill="#263238"/>
<path d="M92 94.54C95.1793 94.2749 98.3704 94.1781 101.56 94.25C104.752 94.1595 107.946 94.2362 111.13 94.48C107.951 94.7574 104.76 94.8543 101.57 94.77C98.3782 94.872 95.1832 94.7952 92 94.54Z" fill="#263238"/>
<path d="M194.87 283.25C197.117 287.421 200.521 290.854 204.672 293.137C208.823 295.42 213.545 296.456 218.27 296.12C223.853 295.729 229.136 293.447 233.246 289.649C237.357 285.851 240.05 280.765 240.88 275.23L246.68 208.84L223.45 203.1L213.96 255.1C213.96 255.1 209 276.89 194.87 283.25Z" fill="#FFBE9D"/>
<path d="M223.24 207.91L224.01 196.26C224.01 196.26 227.3 170.12 227.3 167.56C227.3 164.62 228.71 163.9 229.8 163.98C231.49 164.09 232.69 166.18 232.8 168.71C232.8 169.58 232.72 183.4 232.72 183.4C233.519 182.094 234.411 180.848 235.39 179.67C237.39 177.08 242.23 175.6 247.16 175.76C252.09 175.92 253.44 176.4 253.47 178.31C253.452 178.675 253.353 179.032 253.18 179.353C253.007 179.675 252.765 179.954 252.47 180.17C251.56 180.929 250.404 181.327 249.22 181.29C241.33 181.15 239.22 185.36 239.22 185.36L239.12 186.89C239.12 186.89 243.91 183.46 247.73 184.89C248.294 185.099 248.811 185.418 249.25 185.83C250.325 185.834 251.381 186.12 252.312 186.658C253.244 187.196 254.018 187.969 254.559 188.898C255.099 189.828 255.388 190.883 255.395 191.959C255.402 193.034 255.128 194.093 254.6 195.03C254.394 195.511 254.046 195.917 253.603 196.194C253.16 196.471 252.642 196.606 252.12 196.58C251.591 196.421 251.112 196.129 250.73 195.73C250.506 195.54 250.269 195.366 250.02 195.21L249.14 199.44C249.14 199.44 246.65 208.84 246.03 213.06" fill="#FFBE9D"/>
<path d="M225.51 207C226.95 207.4 228.44 206.34 229.22 205.06C230 203.78 230.33 202.27 231.01 200.93C233.07 196.93 238.01 195.03 239.9 190.93C240.16 190.36 240.3 189.58 239.8 189.2C239.3 188.82 238.68 189.13 238.17 189.41L225.17 196.61" fill="#FFBE9D"/>
<path d="M225.16 196.59C225.564 196.231 226.011 195.922 226.49 195.67C227.37 195.12 228.66 194.36 230.26 193.43L235.91 190.2L237.54 189.28C238.147 188.8 238.92 188.58 239.69 188.67C239.927 188.747 240.136 188.894 240.288 189.093C240.44 189.291 240.527 189.531 240.54 189.78C240.566 190.191 240.494 190.602 240.33 190.98C240.029 191.647 239.653 192.278 239.21 192.86C237.41 195.2 235.08 196.67 233.4 198.38C232.583 199.154 231.888 200.048 231.34 201.03C230.85 201.95 230.54 202.91 230.16 203.78C229.926 204.506 229.537 205.173 229.018 205.732C228.5 206.292 227.866 206.731 227.16 207.02C226.09 207.34 225.49 207.02 225.53 206.96C226.048 206.976 226.564 206.891 227.05 206.71C227.675 206.391 228.227 205.945 228.672 205.401C229.116 204.857 229.442 204.227 229.63 203.55C229.95 202.581 230.32 201.63 230.74 200.7C231.291 199.635 232.01 198.666 232.87 197.83C234.59 196.03 236.87 194.52 238.55 192.35C238.945 191.826 239.281 191.259 239.55 190.66C239.8 190.09 239.76 189.52 239.44 189.46C239.12 189.4 238.49 189.67 237.94 189.98L236.28 190.88L230.55 194C228.91 194.87 227.55 195.55 226.65 196C226.183 196.266 225.682 196.465 225.16 196.59Z" fill="#EB996E"/>
<path d="M238.94 187C239.028 186.054 239.34 185.142 239.85 184.34C240.442 183.517 241.284 182.907 242.25 182.6C243.46 182.202 244.726 182 246 182C247.308 182.013 248.614 181.899 249.9 181.66C250.977 181.44 251.978 180.94 252.8 180.21C253.073 179.958 253.285 179.647 253.421 179.3C253.556 178.954 253.61 178.581 253.58 178.21C253.565 177.937 253.475 177.674 253.32 177.45C253.27 177.45 253.32 177.74 253.37 178.22C253.365 178.555 253.288 178.885 253.143 179.188C252.998 179.49 252.789 179.757 252.53 179.97C251.73 180.599 250.79 181.025 249.79 181.21C248.531 181.417 247.256 181.511 245.98 181.49C244.658 181.476 243.344 181.682 242.09 182.1C241.041 182.465 240.144 183.169 239.54 184.1C239.148 184.727 238.921 185.442 238.88 186.18C238.823 186.454 238.844 186.738 238.94 187Z" fill="#EB996E"/>
<path d="M232.73 167.73C232.645 168.645 232.645 169.565 232.73 170.48C232.73 172.36 232.73 174.61 232.8 177.09C232.87 179.57 232.8 181.82 232.8 183.7C232.74 184.617 232.76 185.537 232.86 186.45C233.078 185.553 233.189 184.633 233.19 183.71C233.31 182.02 233.39 179.71 233.38 177.09C233.37 174.47 233.27 172.15 233.15 170.46C233.108 169.538 232.967 168.622 232.73 167.73Z" fill="#EB996E"/>
<path d="M242.06 190.07C242.339 190.003 242.608 189.899 242.86 189.76C243.186 189.593 243.543 189.498 243.909 189.481C244.275 189.464 244.64 189.525 244.98 189.66C245.189 189.774 245.365 189.939 245.491 190.14C245.617 190.342 245.689 190.573 245.7 190.81C245.732 191.407 245.688 192.005 245.57 192.59C245.404 193.326 245.522 194.097 245.9 194.75C246.139 195.086 246.453 195.36 246.818 195.551C247.183 195.742 247.588 195.845 248 195.85C248.405 195.847 248.805 195.763 249.176 195.601C249.547 195.439 249.882 195.204 250.16 194.91C250.681 194.387 251.03 193.717 251.16 192.99C251.317 191.814 251.3 190.621 251.11 189.45C251.006 188.658 250.766 187.89 250.4 187.18C250.12 186.68 249.86 186.49 249.84 186.51C249.82 186.53 250 186.78 250.21 187.27C250.484 187.989 250.656 188.743 250.72 189.51C250.851 190.637 250.834 191.777 250.67 192.9C250.543 193.536 250.213 194.114 249.729 194.546C249.246 194.979 248.636 195.243 247.99 195.3C247.664 195.298 247.344 195.22 247.054 195.073C246.764 194.925 246.513 194.712 246.32 194.45C246.018 193.902 245.922 193.263 246.05 192.65C246.161 192.02 246.188 191.377 246.13 190.74C246.101 190.436 245.994 190.144 245.818 189.893C245.643 189.643 245.406 189.442 245.13 189.31C244.741 189.162 244.322 189.108 243.908 189.154C243.495 189.199 243.098 189.342 242.75 189.57C242.28 189.85 242 190 242.06 190.07Z" fill="#EB996E"/>
<path d="M249.93 194.49C249.86 194.751 249.888 195.029 250.01 195.27C250.151 195.613 250.368 195.919 250.645 196.166C250.923 196.412 251.253 196.591 251.61 196.69C252.149 196.806 252.708 196.78 253.234 196.615C253.76 196.451 254.234 196.152 254.61 195.75C255.511 194.76 255.995 193.459 255.96 192.12C255.96 190.797 255.547 189.507 254.78 188.43C254.154 187.551 253.3 186.86 252.31 186.43C251.661 186.137 250.962 185.971 250.25 185.94C249.75 185.94 249.48 185.94 249.48 186.02C250.403 186.139 251.303 186.395 252.15 186.78C253.038 187.221 253.801 187.878 254.37 188.69C255.035 189.698 255.383 190.882 255.37 192.09C255.403 193.289 254.99 194.458 254.21 195.37C253.893 195.729 253.49 196.001 253.038 196.16C252.587 196.32 252.102 196.361 251.63 196.28C251.315 196.21 251.019 196.072 250.762 195.877C250.505 195.682 250.293 195.434 250.14 195.15C250 194.77 250 194.49 249.93 194.49Z" fill="#EB996E"/>
<path d="M240.43 203.73C240 203.594 239.54 203.594 239.11 203.73C237.984 203.976 236.972 204.588 236.23 205.47L236.69 205.61C236.629 204.991 236.529 204.376 236.39 203.77C235.992 201.62 235.005 199.623 233.54 198C234.519 199.876 235.297 201.85 235.86 203.89C236 204.51 236.1 205.11 236.17 205.67L236.25 206.29L236.64 205.8C237.303 204.983 238.189 204.375 239.19 204.05C239.94 203.82 240.43 203.8 240.43 203.73Z" fill="#EB996E"/>
<path d="M240.68 180.22C240.55 180.28 241.08 181.22 242.3 181.79C243.52 182.36 244.6 182.03 244.55 181.89C244.5 181.75 243.55 181.76 242.55 181.29C241.55 180.82 240.81 180.12 240.68 180.22Z" fill="#EB996E"/>
<path d="M219.24 215.45L248.43 217.54C248.43 217.54 243.94 269.19 243.07 277.2C242.2 285.21 237.07 297.29 219.24 297.29C201.41 297.29 198.09 291.22 190.16 278.72C199.51 272.24 214.36 252.89 214.36 252.89L219.24 215.45Z" fill="#FF725E"/>
<path d="M233 222.4C232.85 222.835 232.669 223.26 232.46 223.67L230.83 227.11L225.07 239L224.78 238.65L232.35 236.4L240.04 234.14L240.6 233.98L240.33 234.49L234.33 246.14L232.56 249.49C232.364 249.899 232.133 250.291 231.87 250.66C232.023 250.232 232.203 249.815 232.41 249.41C232.83 248.55 233.41 247.41 234.05 246L239.86 234.27L240.15 234.62L232.47 236.9L224.89 239.12L224.34 239.28L224.6 238.77L230.57 227C231.3 225.61 231.89 224.47 232.33 223.62C232.518 223.195 232.743 222.787 233 222.4Z" fill="#E0E0E0"/>
<path d="M230.24 272.08C229.792 272.176 229.337 272.236 228.88 272.26L225.08 272.59L211.94 273.59L212.1 273.16L217.86 278.56L223.69 284.06L224.11 284.46H223.53L210.46 285.18L206.68 285.34C206.227 285.379 205.772 285.379 205.32 285.34C205.765 285.252 206.216 285.198 206.67 285.18L210.44 284.87L223.5 283.97L223.35 284.4L217.5 278.91L211.76 273.49L211.34 273.1H211.91L225.06 272.31L228.87 272.12C229.325 272.072 229.783 272.059 230.24 272.08Z" fill="#E0E0E0"/>
<path d="M199.32 211.23L166.13 293.31H106.28V297.02H284.55L321.02 211.23H199.32Z" fill="#263238"/>
<path d="M250.06 259.69C248.86 263.82 245.36 266.43 242.24 265.53C239.12 264.63 237.57 260.53 238.77 256.4C239.97 252.27 243.48 249.66 246.6 250.56C249.72 251.46 251.27 255.56 250.06 259.69Z" fill="#FAFAFA"/>
<path d="M197.844 111.129C200.141 117.251 203.614 122.575 208.168 126.951C213.353 131.931 220.141 135.888 228.346 138.711C228.615 138.803 228.896 138.879 229.178 138.934C229.551 139.007 229.93 139.046 230.307 139.051H230.38C230.781 139.051 231.184 139.011 231.584 138.934C231.866 138.879 232.143 138.803 232.411 138.713C240.625 135.894 247.422 131.939 252.612 126.959C257.168 122.584 260.641 117.263 262.934 111.14C267.104 100.008 266.867 87.7446 266.676 77.8897L266.673 77.7384C266.634 76.9246 266.609 76.0698 266.596 75.1259C266.526 70.4915 262.78 66.6574 258.069 66.399C248.245 65.8597 240.645 62.7079 234.152 56.4819L234.095 56.4306C233.017 55.4578 231.659 54.9807 230.307 55.0006C229.003 55.0173 227.704 55.4937 226.665 56.4306L226.609 56.4819C220.115 62.7079 212.515 65.8597 202.691 66.399C197.98 66.6574 194.234 70.4915 194.164 75.1259C194.15 76.0762 194.126 76.9297 194.087 77.7384L194.085 77.8025C193.895 87.676 193.659 99.9638 197.844 111.129Z" fill="#F88790"/>
<path d="M197.851 111.129C200.152 117.251 203.632 122.575 208.196 126.95C213.391 131.931 220.194 135.888 228.415 138.711C228.685 138.803 228.966 138.879 229.249 138.934C229.623 139.007 230.003 139.046 230.38 139.051V55C229.073 55.0167 227.772 55.4931 226.73 56.43L226.675 56.4813C220.167 62.7074 212.552 65.8592 202.708 66.3985C197.987 66.6569 194.233 70.491 194.163 75.1254C194.15 76.0758 194.125 76.9293 194.086 77.7379L194.084 77.8021C193.894 87.6756 193.657 99.9635 197.851 111.129Z" fill="#E63946"/>
<path d="M209.055 97.026C209.055 108.415 218.582 117.685 230.306 117.725H230.381C242.139 117.725 251.708 108.439 251.708 97.026C251.708 85.6133 242.139 76.3271 230.381 76.3271H230.306C218.582 76.3677 209.055 85.638 209.055 97.026Z" fill="white"/>
<g opacity="0.5" filter="url(#filter0_b)">
<path d="M236.074 89.733V87.9243C236.074 86.3531 235.475 84.8462 234.409 83.7352C233.343 82.6242 231.897 82 230.39 82C228.882 82 227.437 82.6242 226.371 83.7352C225.305 84.8462 224.706 86.3531 224.706 87.9243V89.7636C223.954 89.8811 223.267 90.276 222.77 90.8765C222.274 91.4771 222 92.2434 222 93.0362V103.689C222 104.567 222.335 105.409 222.93 106.03C223.526 106.651 224.334 107 225.176 107H235.824C236.666 107 237.474 106.651 238.07 106.03C238.665 105.409 239 104.567 239 103.689V93.0362C239.001 92.2027 238.7 91.3997 238.157 90.7874C237.615 90.1751 236.871 89.7986 236.074 89.733ZM231.934 101.03H229.154L229.588 98.9375C229.284 98.731 229.052 98.4276 228.927 98.0726C228.802 97.7176 228.79 97.3299 228.893 96.9673C228.997 96.6046 229.21 96.2865 229.5 96.0603C229.791 95.8341 230.144 95.7119 230.507 95.7119C230.87 95.7119 231.223 95.8341 231.514 96.0603C231.805 96.2865 232.018 96.6046 232.121 96.9673C232.225 97.3299 232.213 97.7176 232.088 98.0726C231.962 98.4276 231.731 98.731 231.426 98.9375C231.618 99.7192 231.934 101.03 231.934 101.03ZM234.875 89.7177H225.934V87.9243C225.981 86.7241 226.471 85.5894 227.302 84.7575C228.133 83.9256 229.241 83.461 230.393 83.461C231.546 83.461 232.653 83.9256 233.485 84.7575C234.316 85.5894 234.806 86.7241 234.853 87.9243L234.875 89.7177Z" fill="black"/>
</g>
<defs>
<filter id="filter0_b" x="202" y="62" width="57" height="65" filterUnits="userSpaceOnUse" color-interpolation-filters="sRGB">
<feFlood flood-opacity="0" result="BackgroundImageFix"/>
<feGaussianBlur in="BackgroundImage" stdDeviation="10"/>
<feComposite in2="SourceAlpha" operator="in" result="effect1_backgroundBlur"/>
<feBlend mode="normal" in="SourceGraphic" in2="effect1_backgroundBlur" result="shape"/>
</filter>
</defs>
</svg>
