<svg width="336" height="381" viewBox="0 0 336 381" fill="none" xmlns="http://www.w3.org/2000/svg">
<path d="M190.006 90.4984H187.912V33.1764C187.912 24.3775 184.415 15.9389 178.189 9.71716C171.963 3.49538 163.52 1.11025e-05 154.715 1.05648e-10L33.1968 1.05652e-10C28.8373 -1.09946e-05 24.5206 0.858111 20.4929 2.52537C16.4653 4.19263 12.8057 6.63638 9.72313 9.71709C6.64053 12.7978 4.19527 16.4551 2.52698 20.4803C0.858677 24.5054 8.93868e-06 28.8195 0 33.1763L0 347.649C-4.81312e-06 352.006 0.858657 356.32 2.52694 360.345C4.19523 364.37 6.64047 368.028 9.72307 371.108C12.8057 374.189 16.4652 376.633 20.4928 378.3C24.5205 379.967 28.8372 380.826 33.1967 380.826H154.715C163.52 380.826 171.963 377.33 178.189 371.109C184.415 364.887 187.912 356.448 187.912 347.649V131.301H190.006L190.006 90.4984Z" fill="#2F2E41"/>
<path d="M156.054 8.63135L140.192 8.63135C140.922 10.4187 141.2 12.3578 141.003 14.278C140.806 16.1982 140.139 18.0405 139.062 19.6426C137.985 21.2447 136.53 22.5574 134.825 23.4651C133.121 24.3728 131.219 24.8477 129.287 24.8478L59.6709 24.8478C57.7394 24.8477 55.8377 24.3728 54.1331 23.4651C52.4285 22.5574 50.9735 21.2447 49.8961 19.6426C48.8188 18.0405 48.1522 16.1982 47.9551 14.278C47.758 12.3578 48.0365 10.4187 48.766 8.63135H33.9506C27.3756 8.63134 21.07 11.2416 16.4208 15.888C11.7716 20.5343 9.15968 26.8361 9.15967 33.4071L9.15967 347.418C9.15967 350.672 9.8009 353.894 11.0468 356.9C12.2926 359.906 14.1187 362.637 16.4208 364.938C18.7228 367.238 21.4557 369.063 24.4635 370.308C27.4713 371.553 30.695 372.194 33.9506 372.194H156.054C159.31 372.194 162.534 371.553 165.542 370.308C168.549 369.063 171.282 367.238 173.584 364.938C175.886 362.637 177.712 359.906 178.958 356.9C180.204 353.894 180.845 350.672 180.845 347.418V33.4071C180.845 30.1535 180.204 26.9317 178.958 23.9258C177.712 20.9199 175.886 18.1886 173.584 15.888C171.282 13.5873 168.549 11.7624 165.542 10.5173C162.534 9.27219 159.31 8.63135 156.054 8.63135V8.63135Z" fill="#EFF5FA"/>
<path d="M63.8415 183.337L60.4248 173.087C58.7751 168.138 57.9341 162.955 57.9341 157.738C57.9341 147.815 61.8759 138.299 68.8923 131.283C75.9087 124.266 85.425 120.324 95.3477 120.324C105.27 120.324 114.787 124.266 121.803 131.283C128.819 138.299 132.761 147.815 132.761 157.738C132.761 162.955 131.92 168.138 130.271 173.087L126.854 183.337H63.8415Z" fill="#4F4F55"/>
<path d="M95.3474 120.325C86.6046 120.311 78.1356 123.373 71.4224 128.974C75.8939 127.158 80.6754 126.226 85.5017 126.232C95.4244 126.232 104.941 130.174 111.957 137.19C118.973 144.207 122.915 153.723 122.915 163.646C122.915 168.862 122.074 174.045 120.425 178.994L118.977 183.337H126.854L130.27 173.087C131.92 168.138 132.761 162.955 132.761 157.738C132.761 147.815 128.819 138.299 121.803 131.283C114.786 124.266 105.27 120.325 95.3474 120.325Z" fill="#2F2E41"/>
<path d="M118.367 220.274L105.794 230.753C102.861 233.196 99.165 234.534 95.348 234.534C91.531 234.534 87.8348 233.196 84.9025 230.753L72.3285 220.274C70.2701 218.559 68.5835 216.442 67.3718 214.052C66.1601 211.662 65.4489 209.05 65.2817 206.376L63.8418 183.337L66.3616 158.14C66.7503 154.253 68.5695 150.648 71.466 148.027C74.3625 145.406 78.1298 143.954 82.0364 143.954H108.66C112.566 143.954 116.333 145.406 119.23 148.027C122.126 150.648 123.946 154.253 124.334 158.14L126.854 183.337L125.414 206.376C125.247 209.05 124.536 211.662 123.324 214.052C122.113 216.442 120.426 218.559 118.367 220.274Z" fill="#FFB8B8"/>
<path d="M124.885 173.491H130.792C131.837 173.491 132.838 173.906 133.577 174.645C134.316 175.383 134.73 176.385 134.73 177.429V187.275C134.73 189.886 133.693 192.391 131.847 194.237C130 196.084 127.496 197.121 124.885 197.121V173.491Z" fill="#FFB8B8"/>
<path d="M65.8105 173.491H59.9031C58.8586 173.491 57.8569 173.906 57.1183 174.645C56.3798 175.383 55.9648 176.385 55.9648 177.429V187.275C55.9648 189.886 57.0022 192.391 58.8486 194.237C60.695 196.084 63.1993 197.121 65.8105 197.121V173.491Z" fill="#FFB8B8"/>
<path d="M101.685 199.09H95.3477V177.429L95.6923 177.982C96.4969 185.299 98.5938 192.746 101.685 199.09Z" fill="#FFB8B8"/>
<path d="M83.5327 210.905L91.4093 206.967L95.3475 208.936L99.2858 206.967L107.162 210.905L99.2858 214.843H91.4093L83.5327 210.905Z" fill="#2F2E41"/>
<path d="M107.162 210.905H105.193C105.813 210.905 106.427 210.928 107.036 210.968L107.162 210.905Z" fill="#B20D24"/>
<path d="M105.193 210.905H83.5327L91.1833 214.73C95.4249 212.22 100.264 210.898 105.193 210.905Z" fill="#4F4F55"/>
<path d="M101.255 177.429L103.633 175.58C105.352 174.242 107.684 173.491 110.116 173.491C112.548 173.491 114.88 174.242 116.599 175.58L118.977 177.429L116.599 179.279C114.88 180.617 112.548 181.368 110.116 181.368C107.684 181.368 105.352 180.617 103.633 179.279L101.255 177.429Z" fill="#EDEDEB"/>
<path d="M116.513 175.517C114.803 174.22 112.508 173.491 110.116 173.491C107.684 173.491 105.352 174.242 103.633 175.58L101.255 177.429L102.016 178.022C106.72 176.564 111.593 175.721 116.513 175.517Z" fill="#CECECC"/>
<path d="M110.116 180.383C111.748 180.383 113.07 179.061 113.07 177.43C113.07 175.798 111.748 174.476 110.116 174.476C108.485 174.476 107.163 175.798 107.163 177.43C107.163 179.061 108.485 180.383 110.116 180.383Z" fill="#3F484F"/>
<path d="M112.59 175.818C112.279 175.34 111.836 174.962 111.315 174.73C110.794 174.499 110.217 174.423 109.653 174.512C109.09 174.602 108.565 174.853 108.141 175.235C107.717 175.617 107.413 176.113 107.266 176.664C109.013 176.301 110.787 176.019 112.59 175.818Z" fill="#2A3135"/>
<path d="M71.7183 177.429L74.0965 175.58C75.8158 174.242 78.1477 173.491 80.5794 173.491C83.011 173.491 85.343 174.242 87.0623 175.58L89.4405 177.429L87.0623 179.279C85.343 180.617 83.011 181.368 80.5794 181.368C78.1477 181.368 75.8158 180.617 74.0965 179.279L71.7183 177.429Z" fill="#EDEDEB"/>
<path d="M86.9106 175.468C85.0629 174.155 82.8459 173.463 80.5794 173.491C78.1477 173.491 75.8158 174.243 74.0965 175.58L71.7183 177.43L72.5694 178.092C77.1667 176.411 82.0161 175.524 86.9106 175.468Z" fill="#CECECC"/>
<path d="M124.334 158.14C124.12 155.979 123.46 153.886 122.397 151.992C121.334 150.099 119.89 148.446 118.156 147.139C118.174 147.278 118.194 147.417 118.208 147.558L120.947 174.947L119.382 199.989C119.2 202.895 118.427 205.735 117.11 208.332C115.793 210.93 113.959 213.232 111.722 215.096L98.0556 226.486C96.1975 228.037 94.0406 229.191 91.7184 229.875C89.3962 230.559 86.9583 230.759 84.5557 230.463L84.9032 230.752C87.8355 233.196 91.5317 234.534 95.3487 234.534C99.1658 234.534 102.862 233.196 105.794 230.752L118.368 220.274C120.426 218.559 122.113 216.442 123.325 214.052C124.536 211.662 125.247 209.05 125.414 206.376L126.854 183.337L124.334 158.14Z" fill="#FFB8B8"/>
<path d="M101.255 169.553V165.615L109.131 163.646L120.946 169.553L107.162 167.584L101.255 169.553Z" fill="#2F2E41"/>
<path d="M89.4404 169.553V165.615L81.5638 163.646L69.749 169.553L83.533 167.584L89.4404 169.553Z" fill="#2F2E41"/>
<path d="M40.2117 140.016H36.2734V120.325C36.2734 119.802 36.4809 119.302 36.8502 118.932C37.2195 118.563 37.7203 118.355 38.2426 118.355H57.9339V122.294H40.2117V140.016Z" fill="#E63946"/>
<path d="M154.422 140.016H150.483V122.294H132.761V118.355H152.453C152.975 118.355 153.476 118.563 153.845 118.932C154.214 119.302 154.422 119.802 154.422 120.325V140.016Z" fill="#E63946"/>
<path d="M152.453 236.504H132.761V232.565H150.483V214.843H154.422V234.535C154.422 235.057 154.214 235.558 153.845 235.927C153.476 236.296 152.975 236.504 152.453 236.504Z" fill="#E63946"/>
<path d="M57.9339 236.504H38.2426C37.7203 236.504 37.2195 236.296 36.8502 235.927C36.4809 235.558 36.2734 235.057 36.2734 234.535V214.843H40.2117V232.565H57.9339V236.504Z" fill="#E63946"/>
<path d="M89.4404 176.445H101.255V178.414H89.4404V176.445Z" fill="#B7B2A5"/>
<path d="M87.2953 200.059L65.6348 196.121C65.496 196.095 65.3642 196.041 65.2484 195.96C65.1326 195.879 65.0355 195.775 64.9636 195.654C64.8917 195.532 64.8468 195.397 64.8318 195.257C64.8168 195.116 64.8321 194.974 64.8767 194.841L70.7841 177.118L72.6523 177.741L67.1037 194.386L87.6473 198.121L87.2953 200.059Z" fill="#B7B2A5"/>
<path d="M103.224 200.075H87.4708C87.334 200.075 87.1987 200.046 87.0736 199.991C86.9484 199.936 86.8362 199.855 86.7439 199.754C86.6517 199.653 86.5815 199.534 86.5379 199.404C86.4942 199.274 86.4781 199.137 86.4904 199.001L88.4177 177.799L78.8979 168.28L80.2906 166.887L90.1363 176.733C90.2383 176.835 90.3167 176.959 90.3657 177.094C90.4148 177.23 90.4335 177.375 90.4204 177.519L88.5489 198.105H102.146L100.275 177.519C100.262 177.375 100.281 177.23 100.33 177.094C100.379 176.959 100.457 176.835 100.559 176.733L110.405 166.887L111.798 168.28L102.277 177.799L104.204 199C104.217 199.136 104.201 199.274 104.157 199.404C104.114 199.533 104.043 199.653 103.951 199.754C103.859 199.855 103.747 199.935 103.621 199.991C103.496 200.046 103.361 200.075 103.224 200.075Z" fill="#B7B2A5"/>
<path d="M103.401 200.059L103.049 198.121L123.592 194.386L118.044 177.741L119.912 177.118L125.819 194.84C125.864 194.974 125.879 195.116 125.864 195.256C125.849 195.397 125.804 195.532 125.732 195.653C125.661 195.775 125.563 195.879 125.448 195.96C125.332 196.04 125.2 196.095 125.061 196.12L103.401 200.059Z" fill="#B7B2A5"/>
<path d="M95.3479 235.519C95.165 235.519 94.9858 235.468 94.8302 235.372C94.6747 235.276 94.5489 235.138 94.4672 234.975L82.6523 211.345L84.4137 210.465L95.3479 232.333L106.282 210.465L108.043 211.345L96.2286 234.975C96.1468 235.138 96.0211 235.276 95.8655 235.372C95.71 235.468 95.5307 235.519 95.3479 235.519Z" fill="#B7B2A5"/>
<path d="M119.882 177.818L118.072 177.042L123.164 165.161L111.372 168.531C111.283 168.556 111.192 168.569 111.101 168.569H79.5946C79.503 168.569 79.4119 168.556 79.3238 168.531L67.5312 165.161L72.6229 177.042L70.8127 177.818L64.9053 164.034C64.832 163.863 64.8086 163.674 64.838 163.49C64.8674 163.306 64.9484 163.135 65.0714 162.995C65.1945 162.855 65.3547 162.753 65.5334 162.701C65.712 162.649 65.9019 162.648 66.0809 162.699L79.7324 166.599H110.963L124.614 162.699C124.793 162.648 124.983 162.649 125.162 162.701C125.34 162.753 125.5 162.855 125.623 162.995C125.747 163.135 125.827 163.306 125.857 163.49C125.886 163.674 125.863 163.863 125.79 164.034L119.882 177.818Z" fill="#B7B2A5"/>
<path d="M65.1104 195.877L66.4179 194.406L84.1304 210.15L82.8229 211.621L65.1104 195.877Z" fill="#B7B2A5"/>
<path d="M106.448 210.152L124.16 194.407L125.468 195.878L107.755 211.623L106.448 210.152Z" fill="#B7B2A5"/>
<path d="M65.8109 165.615C66.8985 165.615 67.7801 164.733 67.7801 163.646C67.7801 162.558 66.8985 161.677 65.8109 161.677C64.7234 161.677 63.8418 162.558 63.8418 163.646C63.8418 164.733 64.7234 165.615 65.8109 165.615Z" fill="#2F2E41"/>
<path d="M79.5946 169.553C80.6821 169.553 81.5638 168.671 81.5638 167.584C81.5638 166.496 80.6821 165.615 79.5946 165.615C78.5071 165.615 77.6255 166.496 77.6255 167.584C77.6255 168.671 78.5071 169.553 79.5946 169.553Z" fill="#2F2E41"/>
<path d="M111.101 169.553C112.188 169.553 113.07 168.671 113.07 167.584C113.07 166.496 112.188 165.615 111.101 165.615C110.013 165.615 109.132 166.496 109.132 167.584C109.132 168.671 110.013 169.553 111.101 169.553Z" fill="#2F2E41"/>
<path d="M124.885 165.615C125.973 165.615 126.854 164.733 126.854 163.646C126.854 162.558 125.973 161.677 124.885 161.677C123.798 161.677 122.916 162.558 122.916 163.646C122.916 164.733 123.798 165.615 124.885 165.615Z" fill="#2F2E41"/>
<path d="M118.977 179.399C120.065 179.399 120.947 178.517 120.947 177.43C120.947 176.342 120.065 175.46 118.977 175.46C117.89 175.46 117.008 176.342 117.008 177.43C117.008 178.517 117.89 179.399 118.977 179.399Z" fill="#2F2E41"/>
<path d="M124.885 197.121C125.973 197.121 126.854 196.239 126.854 195.152C126.854 194.064 125.973 193.183 124.885 193.183C123.798 193.183 122.916 194.064 122.916 195.152C122.916 196.239 123.798 197.121 124.885 197.121Z" fill="#2F2E41"/>
<path d="M89.4403 179.399C90.5279 179.399 91.4095 178.517 91.4095 177.43C91.4095 176.342 90.5279 175.46 89.4403 175.46C88.3528 175.46 87.4712 176.342 87.4712 177.43C87.4712 178.517 88.3528 179.399 89.4403 179.399Z" fill="#2F2E41"/>
<path d="M101.255 179.399C102.343 179.399 103.224 178.517 103.224 177.43C103.224 176.342 102.343 175.46 101.255 175.46C100.168 175.46 99.2861 176.342 99.2861 177.43C99.2861 178.517 100.168 179.399 101.255 179.399Z" fill="#2F2E41"/>
<path d="M71.7182 179.399C72.8057 179.399 73.6873 178.517 73.6873 177.43C73.6873 176.342 72.8057 175.46 71.7182 175.46C70.6306 175.46 69.749 176.342 69.749 177.43C69.749 178.517 70.6306 179.399 71.7182 179.399Z" fill="#2F2E41"/>
<path d="M65.8109 197.121C66.8985 197.121 67.7801 196.239 67.7801 195.152C67.7801 194.064 66.8985 193.183 65.8109 193.183C64.7234 193.183 63.8418 194.064 63.8418 195.152C63.8418 196.239 64.7234 197.121 65.8109 197.121Z" fill="#2F2E41"/>
<path d="M95.348 236.271C96.4356 236.271 97.3172 235.39 97.3172 234.302C97.3172 233.215 96.4356 232.333 95.348 232.333C94.2605 232.333 93.3789 233.215 93.3789 234.302C93.3789 235.39 94.2605 236.271 95.348 236.271Z" fill="#2F2E41"/>
<path d="M86.5488 199.506L88.3092 198.626L92.2456 206.499L90.4852 207.379L86.5488 199.506Z" fill="#B7B2A5"/>
<path d="M98.353 206.529L102.289 198.657L104.05 199.537L100.113 207.41L98.353 206.529Z" fill="#B7B2A5"/>
<path d="M103.224 201.059C104.312 201.059 105.193 200.178 105.193 199.09C105.193 198.002 104.312 197.121 103.224 197.121C102.136 197.121 101.255 198.002 101.255 199.09C101.255 200.178 102.136 201.059 103.224 201.059Z" fill="#666666"/>
<path d="M87.4711 201.059C88.5586 201.059 89.4402 200.178 89.4402 199.09C89.4402 198.002 88.5586 197.121 87.4711 197.121C86.3836 197.121 85.502 198.002 85.502 199.09C85.502 200.178 86.3836 201.059 87.4711 201.059Z" fill="#666666"/>
<path d="M106.722 211.786L99.0534 207.951H91.6415L83.973 211.786L83.0923 210.024L91.1768 205.982H99.5181L107.603 210.024L106.722 211.786Z" fill="#B7B2A5"/>
<path d="M83.5326 212.874C84.6201 212.874 85.5017 211.992 85.5017 210.905C85.5017 209.817 84.6201 208.936 83.5326 208.936C82.4451 208.936 81.5635 209.817 81.5635 210.905C81.5635 211.992 82.4451 212.874 83.5326 212.874Z" fill="#666666"/>
<path d="M99.286 208.936C100.374 208.936 101.255 208.054 101.255 206.967C101.255 205.879 100.374 204.998 99.286 204.998C98.1985 204.998 97.3169 205.879 97.3169 206.967C97.3169 208.054 98.1985 208.936 99.286 208.936Z" fill="#666666"/>
<path d="M91.4096 208.936C92.4971 208.936 93.3787 208.054 93.3787 206.967C93.3787 205.879 92.4971 204.998 91.4096 204.998C90.322 204.998 89.4404 205.879 89.4404 206.967C89.4404 208.054 90.322 208.936 91.4096 208.936Z" fill="#666666"/>
<path d="M107.162 212.874C108.25 212.874 109.132 211.992 109.132 210.905C109.132 209.817 108.25 208.936 107.162 208.936C106.075 208.936 105.193 209.817 105.193 210.905C105.193 211.992 106.075 212.874 107.162 212.874Z" fill="#666666"/>
<path d="M80.5792 180.383C82.2105 180.383 83.5329 179.061 83.5329 177.43C83.5329 175.798 82.2105 174.476 80.5792 174.476C78.9479 174.476 77.6255 175.798 77.6255 177.43C77.6255 179.061 78.9479 180.383 80.5792 180.383Z" fill="#3F484F"/>
<path d="M82.9672 175.696C82.6456 175.252 82.2068 174.907 81.6997 174.698C81.1927 174.489 80.6376 174.426 80.0966 174.515C79.5556 174.604 79.0502 174.842 78.6369 175.203C78.2236 175.563 77.9189 176.031 77.7568 176.555C79.4745 176.163 81.2145 175.876 82.9672 175.696Z" fill="#2A3135"/>
<path d="M117.681 304.07C116.163 308.116 113.868 311.635 110.858 314.526C107.431 317.818 102.944 320.433 97.5221 322.299C97.3441 322.36 97.1584 322.41 96.9719 322.447C96.7255 322.495 96.4747 322.52 96.2261 322.524H96.1774C95.9125 322.524 95.6462 322.497 95.3821 322.447C95.1956 322.41 95.0125 322.36 94.8354 322.3C89.4065 320.437 84.9142 317.823 81.4844 314.532C78.4729 311.64 76.1779 308.124 74.6622 304.077C71.9062 296.72 72.063 288.615 72.1892 282.101L72.1914 282.001C72.2168 281.464 72.2332 280.899 72.2422 280.275C72.2883 277.212 74.7639 274.678 77.8779 274.507C84.3705 274.151 89.3932 272.068 93.6847 267.953L93.7221 267.919C94.4347 267.276 95.3326 266.961 96.2261 266.974C97.0878 266.985 97.946 267.3 98.6332 267.919L98.6698 267.953C102.962 272.068 107.985 274.151 114.477 274.507C117.591 274.678 120.067 277.212 120.113 280.275C120.122 280.903 120.138 281.467 120.164 282.001L120.165 282.044C120.291 288.569 120.447 296.69 117.681 304.07Z" fill="#F88790"/>
<path d="M117.676 304.069C116.155 308.116 113.855 311.635 110.838 314.526C107.405 317.818 102.909 320.433 97.4753 322.299C97.2971 322.36 97.111 322.41 96.9241 322.447C96.6771 322.495 96.4259 322.52 96.1768 322.524V266.973C97.0402 266.984 97.9002 267.299 98.5887 267.919L98.6254 267.952C102.927 272.067 107.959 274.15 114.465 274.507C117.586 274.678 120.066 277.212 120.113 280.275C120.122 280.903 120.138 281.467 120.164 282.001L120.165 282.044C120.291 288.569 120.447 296.69 117.676 304.069Z" fill="#E63946"/>
<path d="M110.272 294.748C110.272 302.275 103.975 308.402 96.2267 308.429H96.1771C88.4058 308.429 82.082 302.292 82.082 294.748C82.082 287.206 88.4058 281.068 96.1771 281.068H96.2267C103.975 281.095 110.272 287.222 110.272 294.748Z" fill="white"/>
<path d="M103.12 292.954L96.3478 299.153L94.8845 300.493C94.5387 300.809 94.0853 300.967 93.6323 300.967C93.1789 300.967 92.726 300.809 92.3798 300.493L89.2334 297.612C88.542 296.979 88.542 295.954 89.2334 295.321C89.9239 294.688 91.0453 294.688 91.7367 295.321L93.6323 297.056L100.617 290.663C101.308 290.03 102.43 290.03 103.12 290.663C103.812 291.296 103.812 292.322 103.12 292.954Z" fill="#2F2E41"/>
<path d="M243.284 361.212L243.064 351.642L225.144 351.942L225.314 365.942H226.424C231.374 366.132 251.614 366.582 254.904 365.522C258.614 364.392 243.284 361.212 243.284 361.212Z" fill="#FF725E"/>
<g opacity="0.4">
<path opacity="0.4" d="M250.754 363.032C250.754 363.032 256.124 364.482 255.474 365.372C254.824 366.262 234.354 366.592 225.314 365.942V365.542L249.194 365.362C249.194 365.362 249.714 363.092 250.754 363.032Z" fill="white"/>
</g>
<path d="M225.054 365.532C225.157 365.546 225.261 365.546 225.364 365.532H226.244L229.504 365.622C232.264 365.622 236.064 365.702 240.264 365.622C244.464 365.542 248.264 365.412 251.024 365.272L254.284 365.092L255.164 365.022H255.474H255.164H254.274L251.014 365.142C248.264 365.242 244.464 365.362 240.264 365.422C236.064 365.482 232.264 365.482 229.504 365.422H226.244H225.054V365.532Z" fill="#263238"/>
<path d="M249.214 365.642C249.343 365.1 249.537 364.576 249.794 364.082C250.114 363.623 250.479 363.198 250.884 362.812C250.331 363.031 249.877 363.444 249.604 363.972C249.268 364.46 249.128 365.056 249.214 365.642Z" fill="#263238"/>
<path d="M243.874 363.042C243.934 363.042 244.174 362.762 244.434 362.352C244.694 361.942 244.854 361.572 244.804 361.542C244.754 361.512 244.504 361.822 244.244 362.232C243.984 362.642 243.824 363.012 243.874 363.042Z" fill="#263238"/>
<path d="M242.414 362.302C242.414 362.302 242.734 362.152 243.044 361.872C243.354 361.592 243.554 361.322 243.514 361.282C243.474 361.242 243.194 361.422 242.894 361.712C242.594 362.002 242.374 362.212 242.414 362.302Z" fill="#263238"/>
<path d="M241.474 360.622C241.772 360.729 242.091 360.763 242.404 360.722C242.722 360.757 243.043 360.72 243.344 360.612C243.042 360.511 242.721 360.477 242.404 360.512C242.09 360.478 241.772 360.516 241.474 360.622Z" fill="#263238"/>
<path d="M241.134 359.432C241.446 359.635 241.813 359.736 242.184 359.722C242.552 359.777 242.928 359.721 243.264 359.562C242.91 359.512 242.552 359.491 242.194 359.502C241.844 359.448 241.489 359.424 241.134 359.432Z" fill="#263238"/>
<path d="M244.464 361.472C244.845 361.537 245.234 361.537 245.614 361.472C246.03 361.417 246.438 361.32 246.834 361.182C247.079 361.112 247.315 361.012 247.534 360.882C247.603 360.844 247.663 360.793 247.711 360.731C247.759 360.669 247.794 360.598 247.814 360.522C247.829 360.436 247.82 360.348 247.788 360.267C247.756 360.186 247.703 360.115 247.634 360.062C247.19 359.855 246.687 359.807 246.212 359.928C245.736 360.048 245.317 360.328 245.024 360.722C244.854 360.956 244.731 361.221 244.664 361.502C244.664 361.702 244.664 361.812 244.664 361.812C244.77 361.452 244.94 361.113 245.164 360.812C245.429 360.503 245.776 360.274 246.164 360.152C246.387 360.074 246.622 360.04 246.857 360.054C247.093 360.068 247.323 360.128 247.534 360.232C247.724 360.362 247.654 360.572 247.454 360.702C247.249 360.815 247.035 360.912 246.814 360.992C246.427 361.13 246.029 361.237 245.624 361.312C244.904 361.432 244.464 361.432 244.464 361.472Z" fill="#263238"/>
<path d="M244.764 361.522C244.897 361.278 244.94 360.995 244.884 360.722C244.843 360.42 244.73 360.132 244.554 359.882C244.451 359.709 244.304 359.566 244.129 359.466C243.954 359.366 243.756 359.313 243.554 359.312C243.438 359.341 243.337 359.413 243.272 359.513C243.207 359.613 243.183 359.735 243.204 359.852C243.237 360.035 243.309 360.209 243.414 360.362C243.567 360.615 243.752 360.847 243.964 361.052C244.334 361.402 244.624 361.532 244.634 361.502C244.644 361.472 244.404 361.302 244.074 360.942C243.89 360.732 243.726 360.504 243.584 360.262C243.424 360.022 243.304 359.582 243.584 359.522C243.864 359.462 244.174 359.772 244.354 360.002C244.518 360.226 244.634 360.481 244.694 360.752C244.738 361.007 244.761 361.264 244.764 361.522Z" fill="#263238"/>
<path d="M225.344 360.622C225.344 360.622 225.854 360.562 226.664 360.622C227.721 360.724 228.729 361.118 229.574 361.762C230.407 362.417 231.044 363.289 231.414 364.282C231.704 365.052 231.734 365.562 231.784 365.562C231.8 365.443 231.8 365.322 231.784 365.202C231.752 364.862 231.682 364.526 231.574 364.202C231.234 363.154 230.585 362.234 229.712 361.561C228.84 360.889 227.784 360.495 226.684 360.432C226.352 360.402 226.017 360.402 225.684 360.432C225.56 360.474 225.445 360.539 225.344 360.622Z" fill="#263238"/>
<path d="M227.084 353.132C226.976 354.356 226.942 355.585 226.984 356.812C226.954 358.044 226.994 359.276 227.104 360.502C227.207 359.275 227.241 358.043 227.204 356.812C227.234 355.584 227.194 354.356 227.084 353.132Z" fill="#263238"/>
<path d="M234.034 363.912C234.895 364.094 235.775 364.168 236.654 364.132C237.535 364.163 238.416 364.076 239.274 363.872C239.274 363.812 238.104 363.872 236.654 363.872C235.204 363.872 234.044 363.842 234.034 363.912Z" fill="#263238"/>
<path d="M230.524 363.962C230.524 363.962 230.624 364.202 230.744 364.472C230.864 364.742 230.944 364.972 231.004 364.972C231.064 364.972 231.084 364.692 230.944 364.382C230.804 364.072 230.614 363.912 230.524 363.962Z" fill="#263238"/>
<path d="M229.174 362.332C229.174 362.332 229.254 362.562 229.434 362.742C229.614 362.922 229.814 363.042 229.854 363.002C229.894 362.962 229.774 362.772 229.594 362.592C229.414 362.412 229.214 362.292 229.174 362.332Z" fill="#263238"/>
<path d="M227.264 361.612C227.264 361.672 227.514 361.662 227.784 361.752C228.054 361.842 228.244 361.982 228.284 361.942C228.324 361.902 228.174 361.652 227.854 361.542C227.534 361.432 227.244 361.552 227.264 361.612Z" fill="#263238"/>
<path d="M225.914 361.272C225.914 361.332 225.994 361.422 226.144 361.482C226.294 361.542 226.434 361.532 226.454 361.482C226.474 361.432 226.374 361.342 226.224 361.282C226.074 361.222 225.934 361.212 225.914 361.272Z" fill="#263238"/>
<g opacity="0.3">
<path opacity="0.3" d="M225.354 360.142L243.264 359.562L243.194 357.402L225.194 359.012L225.354 360.142Z" fill="black"/>
</g>
<path d="M259.944 359.212L262.944 350.142L245.944 344.332L241.354 357.562L242.354 357.992C246.954 359.852 265.834 367.132 269.294 367.252C273.244 367.402 259.944 359.212 259.944 359.212Z" fill="#FF725E"/>
<g opacity="0.4">
<path opacity="0.4" d="M266.354 363.472C266.354 363.472 270.904 366.662 269.994 367.272C269.084 367.882 249.714 361.272 241.424 357.572L241.614 357.212L264.134 365.152C264.134 365.152 265.354 363.212 266.354 363.472Z" fill="white"/>
</g>
<path d="M241.324 357.102L241.604 357.232L242.424 357.572L245.424 358.762C247.994 359.762 251.564 361.062 255.534 362.432C259.504 363.802 263.134 364.952 265.774 365.762L268.894 366.682L269.754 366.922C269.852 366.955 269.952 366.979 270.054 366.992L269.764 366.882L268.924 366.602L265.814 365.602C263.194 364.762 259.584 363.602 255.604 362.212C251.624 360.822 248.054 359.552 245.474 358.612L242.414 357.482L241.614 357.212L241.324 357.102Z" fill="#263238"/>
<path d="M264.014 365.402C264.324 364.939 264.687 364.513 265.094 364.132C265.543 363.802 266.03 363.527 266.544 363.312C265.951 363.321 265.383 363.553 264.954 363.962C264.473 364.309 264.138 364.822 264.014 365.402Z" fill="#263238"/>
<path d="M259.874 361.152C259.874 361.152 260.254 360.982 260.634 360.682C261.014 360.382 261.294 360.092 261.254 360.042C260.972 360.141 260.716 360.302 260.504 360.512C260.114 360.812 259.844 361.102 259.874 361.152Z" fill="#263238"/>
<path d="M258.754 359.952C258.754 360.002 259.104 359.952 259.484 359.762C259.864 359.572 260.164 359.422 260.134 359.362C260.104 359.302 259.784 359.362 259.404 359.562C259.024 359.762 258.734 359.892 258.754 359.952Z" fill="#263238"/>
<path d="M258.434 358.052C258.434 358.112 258.794 358.292 259.284 358.472C259.571 358.612 259.885 358.684 260.204 358.682C260.204 358.622 259.844 358.442 259.354 358.262C259.067 358.124 258.753 358.052 258.434 358.052Z" fill="#263238"/>
<path d="M258.524 356.822C258.75 357.118 259.06 357.338 259.414 357.452C259.737 357.63 260.107 357.704 260.474 357.662C260.153 357.497 259.819 357.359 259.474 357.252C259.172 357.079 258.853 356.935 258.524 356.822Z" fill="#263238"/>
<path d="M260.964 359.862C261.301 360.053 261.671 360.179 262.054 360.232C262.465 360.321 262.884 360.368 263.304 360.372C263.554 360.401 263.805 360.401 264.054 360.372C264.211 360.34 264.349 360.251 264.444 360.122C264.493 360.05 264.519 359.965 264.519 359.877C264.519 359.79 264.493 359.705 264.444 359.632C264.22 359.412 263.951 359.243 263.654 359.139C263.358 359.036 263.042 358.998 262.729 359.031C262.417 359.063 262.115 359.165 261.846 359.327C261.578 359.49 261.348 359.71 261.174 359.972C261.106 360.056 261.061 360.156 261.044 360.262C261.264 359.96 261.539 359.702 261.854 359.502C262.197 359.294 262.594 359.192 262.994 359.212C263.471 359.217 263.926 359.407 264.264 359.742C264.394 359.932 264.264 360.112 264.024 360.162C263.792 360.192 263.557 360.192 263.324 360.162C262.916 360.162 262.508 360.132 262.104 360.072C261.384 359.972 260.974 359.832 260.964 359.862Z" fill="#263238"/>
<path d="M261.224 360.022C261.434 359.835 261.572 359.58 261.614 359.302C261.682 359.006 261.682 358.698 261.614 358.402C261.577 358.209 261.492 358.029 261.366 357.878C261.24 357.728 261.077 357.612 260.894 357.542C260.778 357.528 260.66 357.56 260.567 357.631C260.473 357.702 260.411 357.806 260.394 357.922C260.354 358.107 260.354 358.298 260.394 358.482C260.457 358.77 260.554 359.048 260.684 359.312C260.794 359.562 260.954 359.787 261.154 359.972C261.154 359.972 261.004 359.702 260.824 359.252C260.719 358.991 260.641 358.72 260.594 358.442C260.524 358.162 260.594 357.712 260.854 357.752C261.114 357.792 261.324 358.192 261.414 358.462C261.497 358.724 261.517 359.001 261.474 359.272C261.418 359.531 261.334 359.782 261.224 360.022Z" fill="#263238"/>
<path d="M243.264 352.582C243.264 352.582 243.764 352.702 244.494 353.052C245.451 353.515 246.264 354.231 246.844 355.122C247.412 356.02 247.717 357.06 247.724 358.122C247.724 358.932 247.594 359.432 247.634 359.442C247.69 359.335 247.73 359.221 247.754 359.102C247.827 358.774 247.867 358.439 247.874 358.102C247.912 357 247.616 355.913 247.024 354.982C246.439 354.073 245.602 353.353 244.614 352.912C244.311 352.784 243.996 352.687 243.674 352.622C243.542 352.581 243.402 352.567 243.264 352.582Z" fill="#263238"/>
<path d="M247.434 346.122C246.927 347.245 246.48 348.393 246.094 349.562C245.647 350.705 245.27 351.874 244.964 353.062C245.472 351.944 245.92 350.799 246.304 349.632C246.751 348.486 247.128 347.314 247.434 346.122Z" fill="#263238"/>
<path d="M250.324 358.622C251.072 359.087 251.875 359.456 252.714 359.722C253.535 360.04 254.391 360.259 255.264 360.372C255.264 360.312 254.154 359.992 252.794 359.512C251.434 359.032 250.354 358.562 250.324 358.622Z" fill="#263238"/>
<path d="M247.004 357.482C246.944 357.482 247.004 357.742 247.004 358.042C247.004 358.342 247.004 358.572 247.074 358.592C247.144 358.612 247.254 358.352 247.214 358.012C247.174 357.672 247.054 357.452 247.004 357.482Z" fill="#263238"/>
<path d="M246.284 355.492C246.234 355.492 246.284 355.732 246.394 355.972C246.504 356.212 246.644 356.382 246.704 356.352C246.764 356.322 246.704 356.112 246.594 355.872C246.484 355.632 246.344 355.462 246.284 355.492Z" fill="#263238"/>
<path d="M244.734 354.212C244.734 354.272 244.954 354.352 245.174 354.522C245.394 354.692 245.524 354.892 245.584 354.872C245.644 354.852 245.584 354.562 245.304 354.352C245.024 354.142 244.734 354.102 244.734 354.212Z" fill="#263238"/>
<path d="M243.614 353.392C243.614 353.392 243.614 353.552 243.764 353.662C243.914 353.772 244.024 353.812 244.054 353.762C244.084 353.712 244.054 353.592 243.904 353.492C243.754 353.392 243.614 353.342 243.614 353.392Z" fill="#263238"/>
<g opacity="0.3">
<path opacity="0.3" d="M243.434 352.132L260.474 357.662L261.154 355.612L243.674 351.012L243.434 352.132Z" fill="black"/>
</g>
<path d="M190.734 94.2122C190.734 102.032 190.804 116.522 194.174 130.302C194.784 132.832 212.314 103.822 212.314 103.822L220.934 122.302C220.934 122.302 216.054 141.222 198.204 149.482C176.904 159.332 174.494 107.152 175.984 92.3022" fill="#FFBE9D"/>
<path d="M272.714 182.052L251.624 182.972L219.274 182.052L222.964 359.402L249.034 358.542C249.034 358.542 249.034 356.542 249.034 353.112L262.804 356.672C262.804 356.672 288.754 303.382 294.334 280.672C298.994 261.732 272.714 182.052 272.714 182.052ZM248.934 326.052C248.504 285.122 250.324 215.502 250.934 206.992C250.934 206.992 266.934 268.282 267.044 273.112C267.124 276.012 255.914 304.302 248.934 326.012V326.052Z" fill="#263238"/>
<path d="M248.814 314.392C248.89 314.962 248.923 315.537 248.914 316.112C248.914 317.302 248.964 318.882 249.004 320.802C249.064 324.802 249.104 330.232 249.124 336.272C249.144 342.312 249.124 347.782 249.124 351.742C249.124 353.662 249.074 355.242 249.054 356.432C249.062 357.007 249.032 357.582 248.964 358.152C248.883 357.583 248.849 357.007 248.864 356.432C248.864 355.242 248.804 353.662 248.764 351.742C248.714 347.742 248.664 342.312 248.654 336.272C248.644 330.232 248.654 324.762 248.654 320.802C248.654 318.882 248.654 317.302 248.714 316.112C248.699 315.537 248.733 314.962 248.814 314.392Z" fill="#455A64"/>
<path d="M236.264 184.462C236.31 184.764 236.31 185.071 236.264 185.372C236.194 186.206 236.023 187.029 235.754 187.822C234.886 190.485 233.106 192.756 230.728 194.236C228.35 195.715 225.527 196.309 222.754 195.912C221.925 195.81 221.113 195.605 220.334 195.302C220.043 195.208 219.767 195.074 219.514 194.902C220.593 195.188 221.689 195.408 222.794 195.562C225.473 195.859 228.174 195.245 230.462 193.819C232.75 192.393 234.491 190.238 235.404 187.702C235.761 186.642 236.048 185.56 236.264 184.462Z" fill="#455A64"/>
<path d="M253.274 184.722C253.348 185.027 253.381 185.339 253.374 185.652C253.374 186.252 253.444 187.122 253.474 188.192C253.524 190.332 253.574 193.292 253.594 196.552V201.212C253.676 202.509 253.377 203.802 252.734 204.932C252.496 205.305 252.183 205.624 251.815 205.869C251.446 206.113 251.03 206.278 250.594 206.352C250.262 206.428 249.912 206.378 249.614 206.212C249.916 206.212 250.217 206.189 250.514 206.142C251.306 205.934 251.984 205.424 252.404 204.722C252.951 203.63 253.189 202.41 253.094 201.192C253.094 199.762 253.094 198.192 253.094 196.582C253.094 193.322 253.094 190.362 253.094 188.222C253.094 187.152 253.094 186.282 253.154 185.682C253.144 185.358 253.185 185.034 253.274 184.722Z" fill="#455A64"/>
<path d="M274.664 195.772C274.426 195.808 274.183 195.808 273.944 195.772C273.293 195.726 272.647 195.623 272.014 195.462C269.907 194.945 267.926 194.005 266.192 192.701C264.458 191.396 263.006 189.754 261.924 187.872C261.597 187.309 261.322 186.716 261.104 186.102C260.999 185.885 260.931 185.652 260.904 185.412C260.994 185.412 261.364 186.322 262.234 187.692C264.517 191.282 268.024 193.921 272.104 195.122C273.614 195.582 274.674 195.682 274.664 195.772Z" fill="#455A64"/>
<path d="M330.854 76.4124L330.674 76.7324L323.014 89.7024L328.994 92.7124L333.694 85.4824" fill="#FFBE9D"/>
<path d="M275.424 126.332C275.424 126.332 290.134 131.112 302.174 134.532C304.111 135.081 306.138 135.236 308.135 134.988C310.132 134.74 312.06 134.095 313.804 133.09C315.548 132.085 317.073 130.741 318.289 129.138C319.505 127.534 320.388 125.703 320.884 123.752L330.184 91.0423L320.004 87.5623L306.284 116.402L282.114 106.632" fill="#FFBE9D"/>
<path d="M330.184 73.9822L323.664 89.4522L320.004 87.5622C320.004 87.5622 320.294 86.2822 321.444 82.7122C322.293 80.1649 324.081 78.037 326.444 76.7622C326.444 76.7622 328.734 68.0022 330.084 68.5922C331.434 69.1822 330.184 73.9822 330.184 73.9822Z" fill="#FFBE9D"/>
<path d="M330.924 64.7822C330.664 65.4722 323.014 91.3022 323.014 91.3022L325.764 91.7522L334.034 65.6622L330.924 64.7822Z" fill="#263238"/>
<path d="M330.184 91.0424C330.184 91.0424 334.894 86.7424 335.234 84.2124C335.364 83.3124 335.874 71.9224 335.304 71.8524C334.734 71.7824 327.384 76.3624 328.424 77.5424C328.753 77.8657 329.182 78.0691 329.641 78.1199C330.099 78.1706 330.562 78.0659 330.954 77.8224C330.954 77.8224 326.244 80.5024 327.294 81.4424C328.344 82.3824 331.234 80.7024 331.234 80.7024C331.234 80.7024 325.234 83.4823 326.474 84.8923C327.714 86.3023 332.774 84.0724 332.774 84.0724L330.184 91.0424Z" fill="#FFBE9D"/>
<path d="M334.524 75.4224C333.647 76.2558 332.657 76.9626 331.584 77.5224C331.181 77.7898 330.752 78.0176 330.304 78.2024C329.898 78.3359 329.46 78.3359 329.054 78.2024C328.364 77.9724 328.144 77.5424 328.194 77.5124C328.244 77.4824 328.554 77.7524 329.144 77.8424C329.482 77.9 329.83 77.8583 330.144 77.7224C330.553 77.5281 330.948 77.3042 331.324 77.0524C332.307 76.3585 333.385 75.8096 334.524 75.4224Z" fill="#EB996E"/>
<path d="M334.704 78.5022C333.025 79.9134 331.14 81.0599 329.114 81.9022C328.686 82.1711 328.171 82.2675 327.674 82.1722C327.535 82.1354 327.407 82.0665 327.299 81.9709C327.191 81.8754 327.107 81.7559 327.054 81.6222C326.976 81.3672 326.997 81.0919 327.114 80.8522C327.295 80.5006 327.539 80.1853 327.834 79.9222C328.08 79.6697 328.34 79.4326 328.614 79.2122C329.086 78.7596 329.654 78.418 330.274 78.2122C329.825 78.6614 329.351 79.0854 328.854 79.4822C328.644 79.6822 328.424 79.9122 328.204 80.1622C327.963 80.4065 327.761 80.6865 327.604 80.9922C327.474 81.3022 327.604 81.5422 327.864 81.6322C328.244 81.6782 328.627 81.5859 328.944 81.3722C332.154 79.9322 334.614 78.3722 334.704 78.5022Z" fill="#EB996E"/>
<path d="M333.974 82.3022C333.405 82.7061 332.791 83.0418 332.144 83.3022L330.144 84.3022L328.934 84.8723C328.49 85.1058 328.02 85.287 327.534 85.4122C327.241 85.4694 326.937 85.4345 326.664 85.3123C326.523 85.2453 326.399 85.1477 326.3 85.0266C326.201 84.9055 326.131 84.764 326.094 84.6122C326.04 84.3503 326.057 84.0787 326.143 83.8255C326.229 83.5723 326.381 83.3468 326.584 83.1723C326.905 82.8981 327.257 82.6631 327.634 82.4722L328.564 81.9622C329.157 81.5898 329.791 81.2877 330.454 81.0623C329.944 81.5429 329.373 81.9532 328.754 82.2823L327.854 82.8423C327.517 83.0299 327.201 83.2546 326.914 83.5123C326.771 83.6317 326.665 83.7886 326.607 83.9653C326.548 84.1419 326.541 84.3314 326.584 84.5123C326.647 84.6784 326.771 84.8142 326.931 84.8922C327.091 84.9702 327.274 84.9845 327.444 84.9323C327.887 84.8104 328.316 84.6429 328.724 84.4323L329.944 83.9023L332.034 83.0123C332.648 82.6935 333.3 82.4548 333.974 82.3022Z" fill="#EB996E"/>
<path d="M230.404 94.9322L249.204 93.4322C249.314 91.2322 249.204 82.7421 249.204 82.7421C249.204 82.7421 257.024 81.5322 257.114 73.7421C257.204 65.9521 255.854 47.9721 255.854 47.9721C251.41 46.061 246.537 45.3713 241.738 45.9743C236.938 46.5773 232.387 48.4512 228.554 51.4022L227.394 52.2922L230.404 94.9322Z" fill="#FFBE9D"/>
<path d="M254.014 61.8622C253.847 61.7109 253.728 61.5134 253.673 61.2947C253.619 61.076 253.63 60.8459 253.706 60.6336C253.781 60.4212 253.918 60.2361 254.1 60.1017C254.281 59.9673 254.497 59.8895 254.723 59.8784C254.948 59.8672 255.171 59.923 255.365 60.0388C255.558 60.1547 255.713 60.3253 255.809 60.529C255.906 60.7328 255.94 60.9607 255.907 61.1837C255.874 61.4068 255.776 61.615 255.624 61.7822C255.421 62.0063 255.138 62.1405 254.836 62.1555C254.534 62.1706 254.238 62.065 254.014 61.8622Z" fill="#263238"/>
<path d="M255.914 60.0722C255.794 60.2122 255.024 59.6222 253.914 59.6122C252.804 59.6022 252.054 60.1622 251.914 60.0222C251.774 59.8822 251.974 59.7222 252.314 59.4622C252.77 59.1252 253.322 58.9434 253.889 58.9434C254.456 58.9434 255.008 59.1252 255.464 59.4622C255.854 59.7722 255.974 60.0122 255.914 60.0722Z" fill="#263238"/>
<path d="M243.504 60.5323C243.694 60.6501 243.844 60.8213 243.936 61.0245C244.029 61.2276 244.059 61.4536 244.023 61.6739C243.987 61.8942 243.887 62.0989 243.735 62.2622C243.583 62.4256 243.386 62.5402 243.169 62.5917C242.951 62.6432 242.724 62.6293 242.515 62.5516C242.305 62.474 242.124 62.3361 241.993 62.1554C241.862 61.9747 241.787 61.7593 241.779 61.5363C241.77 61.3132 241.828 61.0927 241.944 60.9023C242.103 60.6477 242.356 60.466 242.648 60.3967C242.94 60.3275 243.248 60.3762 243.504 60.5323Z" fill="#263238"/>
<path d="M244.214 60.5422C244.094 60.6722 243.324 60.0821 242.214 60.0821C241.104 60.0821 240.354 60.6322 240.214 60.4922C240.074 60.3522 240.274 60.1822 240.614 59.9222C241.076 59.5957 241.629 59.4241 242.194 59.4322C242.761 59.4321 243.313 59.6183 243.764 59.9622C244.164 60.2122 244.274 60.4822 244.214 60.5422Z" fill="#263238"/>
<path d="M248.534 69.4223C249.089 69.2024 249.677 69.0773 250.274 69.0523C250.554 69.0523 250.784 68.9623 250.804 68.8123C250.813 68.5278 250.74 68.2465 250.594 68.0023C250.324 67.2923 250.044 66.5723 249.744 65.8123C248.574 62.6923 247.744 60.1223 247.904 60.0623C248.064 60.0023 249.144 62.4823 250.324 65.5923C250.594 66.3623 250.864 67.0823 251.124 67.8023C251.308 68.163 251.365 68.5755 251.284 68.9723C251.242 69.08 251.177 69.1766 251.092 69.2546C251.007 69.3327 250.905 69.3901 250.794 69.4223C250.638 69.4689 250.476 69.4892 250.314 69.4823C249.721 69.5606 249.12 69.5404 248.534 69.4223Z" fill="#263238"/>
<path d="M249.174 82.6322C245.565 82.6986 242.018 81.6891 238.984 79.7322C238.984 79.7322 241.394 85.3622 249.194 84.6622L249.174 82.6322Z" fill="#EB996E"/>
<path d="M254.544 46.0323C254.992 45.9939 255.425 45.8529 255.81 45.6203C256.195 45.3876 256.521 45.0696 256.763 44.6907C257.005 44.3119 257.157 43.8824 257.206 43.4355C257.256 42.9887 257.202 42.5364 257.048 42.1137C256.895 41.6911 256.646 41.3094 256.322 40.9982C255.997 40.687 255.606 40.4547 255.177 40.3192C254.748 40.1837 254.294 40.1487 253.85 40.2168C253.405 40.285 252.983 40.4545 252.614 40.7123C253.499 39.8869 254.2 38.8854 254.674 37.7723C254.895 37.2097 254.94 36.5936 254.804 36.0048C254.669 35.416 254.358 34.8818 253.914 34.4723C253.405 34.1633 252.82 34 252.224 34C251.628 34 251.044 34.1633 250.534 34.4723C248.924 35.2723 247.704 36.7523 246.044 37.4723C244.384 38.1923 242.464 37.9923 240.644 38.1823C238.621 38.349 236.7 39.1464 235.154 40.4623C234.395 41.1298 233.802 41.9659 233.423 42.9036C233.045 43.8412 232.891 44.8545 232.974 45.8623C230.414 45.7023 227.594 45.8623 225.684 47.5523C224.92 48.3219 224.336 49.2507 223.973 50.2724C223.61 51.294 223.477 52.3833 223.584 53.4623C223.714 55.6223 224.734 57.6123 225.494 59.6423C225.677 60.2235 225.976 60.7612 226.374 61.2223L227.664 66.7423L231.134 66.4623L230.184 54.8523C230.184 54.8523 229.534 49.9723 233.784 50.1423C238.034 50.3123 244.044 54.7123 252.184 53.0023C253.522 52.8484 254.807 52.3937 255.944 51.6723C256.491 51.276 256.923 50.7408 257.193 50.1219C257.464 49.503 257.564 48.823 257.484 48.1523C257.374 47.4821 257.002 46.8829 256.452 46.4857C255.901 46.0885 255.215 45.9254 254.544 46.0323Z" fill="#263238"/>
<path d="M227.334 59.8322C227.164 59.7722 221.504 59.3922 222.444 65.9822C223.384 72.5722 229.734 69.4422 229.714 69.2522C229.694 69.0622 227.334 59.8322 227.334 59.8322Z" fill="#FFBE9D"/>
<path d="M227.364 67.2123C227.364 67.2123 227.264 67.3023 227.084 67.4223C226.826 67.5769 226.518 67.627 226.224 67.5623C225.762 67.3519 225.364 67.0225 225.07 66.6079C224.777 66.1933 224.599 65.7082 224.554 65.2023C224.453 64.6401 224.48 64.0624 224.634 63.5123C224.671 63.2996 224.758 63.0984 224.886 62.9249C225.014 62.7513 225.182 62.61 225.374 62.5123C225.501 62.4593 225.642 62.4523 225.774 62.4925C225.905 62.5327 226.019 62.6175 226.094 62.7323C226.214 62.9023 226.194 63.0423 226.224 63.0523C226.254 63.0623 226.354 62.9223 226.224 62.6523C226.16 62.4978 226.048 62.3681 225.904 62.2823C225.703 62.1693 225.466 62.1405 225.244 62.2023C224.981 62.295 224.746 62.4527 224.561 62.6608C224.376 62.8689 224.246 63.1205 224.184 63.3923C223.989 64.0059 223.944 64.6577 224.054 65.2923C224.105 65.8826 224.33 66.4446 224.7 66.9073C225.071 67.37 225.569 67.7127 226.134 67.8923C226.314 67.9167 226.497 67.9007 226.67 67.8453C226.843 67.79 227.002 67.6967 227.134 67.5723C227.384 67.3923 227.394 67.2123 227.364 67.2123Z" fill="#EB996E"/>
<path d="M290.794 108.122C282.234 103.722 276.164 101.122 271.494 98.1224C256.954 88.7924 253.124 90.8524 249.704 90.4324C243.195 92.4843 236.213 92.4843 229.704 90.4324C224.394 90.6624 221.474 91.5824 218.224 93.5824C213.439 96.576 209.539 100.791 206.924 105.792L195.434 125.632L214.784 143.632L217.614 139.212C217.614 139.212 217.444 147.122 217.474 145.782L216.724 182.962H275.424L270.424 150.692L267.334 122.462L283.014 130.292L290.754 108.112" fill="#E63946"/>
<path d="M190.764 99.9924L175.614 98.2124C175.614 98.2124 175.074 86.2124 177.304 85.7524C177.304 85.7524 178.624 85.8524 178.484 86.7524C178.484 86.7524 179.064 84.9324 180.484 85.2524C181.904 85.5724 181.684 87.3924 181.684 87.3924C181.684 87.3924 183.174 74.3224 184.964 74.6324C186.534 74.9124 186.024 76.2024 185.054 84.9824C185.054 84.9824 184.734 89.0924 185.534 88.3324C186.334 87.5724 188.664 79.5424 189.594 77.6624C190.094 76.6624 191.544 77.8824 190.924 80.3824C190.404 82.4624 188.924 88.1424 189.104 89.2624C189.186 89.5762 189.314 89.8761 189.484 90.1524C189.904 90.6924 190.954 92.2224 190.954 95.4424C190.954 96.3524 190.794 99.9524 190.794 99.9524" fill="#FFBE9D"/>
<path d="M187.724 98.5123C186.921 98.0688 186.204 97.4864 185.604 96.7923C184.913 96.0801 184.287 95.307 183.734 94.4823C183.401 93.9955 183.094 93.4915 182.814 92.9723C182.442 92.4083 182.225 91.7566 182.184 91.0823C182.194 90.8484 182.271 90.6221 182.405 90.4306C182.54 90.2391 182.727 90.0904 182.944 90.0023C183.354 89.9031 183.785 89.9491 184.164 90.1323C184.788 90.3948 185.379 90.7305 185.924 91.1323C186.795 91.7734 187.532 92.5785 188.094 93.5023H187.814C188.037 93.0505 188.363 92.6568 188.764 92.3523C189.044 92.1523 189.224 92.0823 189.234 92.1123C188.769 92.5472 188.387 93.062 188.104 93.6323L187.984 93.8823L187.824 93.6523C186.862 92.2761 185.526 91.2039 183.974 90.5623C183.708 90.4314 183.405 90.3927 183.114 90.4523C182.991 90.5071 182.886 90.597 182.813 90.7108C182.74 90.8246 182.702 90.9572 182.704 91.0923C182.762 91.6624 182.954 92.2107 183.264 92.6923C183.544 93.2223 183.834 93.6923 184.134 94.1723C184.66 94.9883 185.241 95.7668 185.874 96.5023C186.974 97.7923 187.774 98.4523 187.724 98.5123Z" fill="#EB996E"/>
<path d="M181.514 88.2923C181.761 89.1611 181.922 90.0521 181.994 90.9523C182.114 91.8323 182.244 92.8123 182.384 93.8623C182.481 94.4438 182.525 95.0329 182.514 95.6223C182.505 95.9966 182.355 96.3536 182.094 96.6223C181.952 96.7807 181.762 96.8894 181.554 96.9326C181.345 96.9758 181.128 96.9511 180.934 96.8623C180.652 96.6621 180.412 96.408 180.228 96.1144C180.044 95.8209 179.921 95.4939 179.864 95.1523C179.684 94.5723 179.544 94.0123 179.424 93.4723C179.174 92.3823 179.004 91.4023 178.864 90.5823C178.675 89.7 178.558 88.8037 178.514 87.9023C178.849 88.7434 179.09 89.6186 179.234 90.5123C179.414 91.3223 179.624 92.2923 179.884 93.3523C180.024 93.8823 180.174 94.4423 180.354 95.0023C180.534 95.5623 180.744 96.1823 181.154 96.3823C181.564 96.5823 181.994 96.1123 182.014 95.5923C182.017 95.0338 181.981 94.4757 181.904 93.9223C181.804 92.869 181.714 91.899 181.634 91.0123C181.507 90.1117 181.466 89.2008 181.514 88.2923Z" fill="#EB996E"/>
<path d="M179.184 92.0924C179.53 92.5373 179.707 93.0897 179.684 93.6524C179.708 93.9319 179.708 94.2129 179.684 94.4924C179.653 94.8513 179.529 95.1959 179.324 95.4924C179.256 95.5897 179.166 95.6707 179.062 95.7294C178.959 95.7882 178.843 95.8234 178.724 95.8324C178.6 95.8348 178.477 95.809 178.365 95.7571C178.252 95.7051 178.153 95.6283 178.074 95.5324C177.842 95.2198 177.641 94.8848 177.474 94.5324C176.551 92.9087 176.1 91.0589 176.174 89.1924C176.611 90.9405 177.2 92.647 177.934 94.2924C178.079 94.6047 178.254 94.9026 178.454 95.1824C178.634 95.3924 178.774 95.3824 178.954 95.1824C179.219 94.7232 179.357 94.2022 179.354 93.6724C179.344 92.7024 179.094 92.1224 179.184 92.0924Z" fill="#EB996E"/>
<path d="M187.434 99.6022C187.434 99.6822 186.874 99.4922 185.994 99.4722C185.494 99.4532 184.997 99.5671 184.554 99.8022C184.018 100.093 183.598 100.559 183.364 101.122L183.064 101.812L182.864 101.082C182.814 100.902 182.764 100.702 182.694 100.502C182.257 99.2743 181.472 98.2005 180.434 97.4122C179.634 96.8022 179.024 96.5822 179.054 96.5022C179.632 96.5477 180.184 96.7595 180.644 97.1122C181.832 97.8657 182.728 99.0014 183.184 100.332C183.264 100.552 183.314 100.762 183.374 100.972H182.874C183.162 100.296 183.684 99.7455 184.344 99.4222C184.862 99.1677 185.443 99.0736 186.014 99.1522C186.522 99.1575 187.016 99.3142 187.434 99.6022Z" fill="#EB996E"/>
<path d="M244.194 55.6923C243.964 56.0723 242.784 55.7623 241.384 55.8023C239.984 55.8423 238.824 56.1323 238.584 55.8023C238.474 55.6223 238.664 55.2623 239.154 54.9223C239.815 54.5029 240.581 54.2809 241.364 54.2823C242.149 54.2557 242.925 54.4609 243.594 54.8723C244.094 55.2123 244.294 55.5123 244.194 55.6923Z" fill="#263238"/>
<path d="M254.754 56.4023C254.514 56.7723 253.834 56.7823 253.134 56.8923C252.434 57.0023 251.764 57.1423 251.444 56.8923C251.294 56.7423 251.314 56.4323 251.564 56.1123C251.914 55.7135 252.396 55.4544 252.921 55.3827C253.447 55.3111 253.981 55.4317 254.424 55.7223C254.754 55.9323 254.854 56.2123 254.754 56.4023Z" fill="#263238"/>
<path d="M237.484 61.6722C237.418 61.3973 237.391 61.1145 237.404 60.8322C237.404 60.1822 237.354 59.4122 237.324 58.4822V58.3222H237.484C239.744 58.2722 243.124 58.2322 247.004 58.2222H247.264V61.2222C247.341 62.3127 247.075 63.3999 246.504 64.3322C246.145 64.9125 245.67 65.4121 245.109 65.7996C244.547 66.1872 243.911 66.4542 243.241 66.5838C242.572 66.7135 241.882 66.703 241.217 66.5529C240.551 66.4029 239.924 66.1166 239.374 65.7122C238.45 65.0316 237.8 64.0414 237.544 62.9222C237.478 62.6236 237.447 62.318 237.454 62.0122C237.454 61.8022 237.454 61.7022 237.454 61.7022C237.454 61.7022 237.454 62.1322 237.714 62.8722C238.017 63.9053 238.667 64.8023 239.554 65.4122C240.27 65.9106 241.114 66.1937 241.986 66.2281C242.857 66.2624 243.721 66.0465 244.474 65.6059C245.227 65.1653 245.838 64.5183 246.235 63.7415C246.632 62.9647 246.798 62.0905 246.714 61.2222V58.5122L246.974 58.7622C243.094 58.7622 239.714 58.7622 237.454 58.6622L237.614 58.5122C237.614 59.4422 237.614 60.2122 237.544 60.8622C237.559 61.1336 237.538 61.4058 237.484 61.6722Z" fill="#455A64"/>
<path d="M250.144 61.6722C250.078 61.3974 250.047 61.1149 250.054 60.8322C250.054 60.1822 250.054 59.4122 249.984 58.4822V58.3222H250.154C252.404 58.2722 255.784 58.2322 259.664 58.2222H259.924V61.2222C259.999 62.3112 259.738 63.397 259.174 64.3322C258.632 65.2002 257.836 65.8809 256.894 66.2822C256.103 66.6116 255.241 66.7321 254.39 66.6323C253.539 66.5325 252.728 66.2157 252.034 65.7122C251.108 65.0349 250.461 64.0428 250.214 62.9222C250.141 62.6247 250.107 62.3186 250.114 62.0122C250.114 61.8022 250.114 61.7022 250.114 61.7022C250.114 61.7022 250.114 62.1322 250.364 62.8722C250.675 63.9013 251.323 64.796 252.204 65.4122C252.92 65.9106 253.764 66.1937 254.636 66.2281C255.507 66.2624 256.371 66.0465 257.124 65.6059C257.877 65.1653 258.488 64.5183 258.885 63.7415C259.282 62.9647 259.448 62.0905 259.364 61.2222C259.364 60.2922 259.364 59.3822 259.364 58.5122L259.614 58.7622C255.734 58.7622 252.354 58.7622 250.104 58.6622L250.254 58.5122C250.254 59.4422 250.204 60.2122 250.184 60.8622C250.202 61.1328 250.188 61.4046 250.144 61.6722Z" fill="#455A64"/>
<path d="M250.094 60.9324C250.094 61.0724 249.394 61.1924 248.514 61.1924C247.634 61.1924 246.944 61.0724 246.944 60.9324C246.944 60.7924 247.644 60.6724 248.514 60.6724C249.384 60.6724 250.094 60.7824 250.094 60.9324Z" fill="#455A64"/>
<path d="M237.414 59.9324C233.552 60.2791 229.666 60.2791 225.804 59.9324C229.666 59.5857 233.552 59.5857 237.414 59.9324Z" fill="#455A64"/>
<path d="M249.614 72.2122C249.614 72.2722 249.324 72.4223 248.774 72.4823C248.053 72.5436 247.329 72.4269 246.664 72.1422C245.997 71.8638 245.412 71.4198 244.964 70.8522C244.634 70.4122 244.534 70.0822 244.584 70.0522C245.28 70.6792 246.049 71.2198 246.874 71.6622C247.762 71.9532 248.682 72.1378 249.614 72.2122Z" fill="#263238"/>
<path d="M227.664 70.0723C227.724 70.0723 227.804 70.4923 227.384 70.9523C227.122 71.2276 226.764 71.3922 226.384 71.4123C226.153 71.4235 225.924 71.3783 225.715 71.2807C225.506 71.1832 225.323 71.0361 225.184 70.8523C225.035 70.6765 224.93 70.4679 224.878 70.2435C224.826 70.0192 224.828 69.7857 224.884 69.5623C224.989 69.2087 225.22 68.9061 225.534 68.7123C226.084 68.4023 226.484 68.5623 226.454 68.6223C226.424 68.6823 226.114 68.7023 225.754 69.0123C225.644 69.1009 225.553 69.2103 225.486 69.3342C225.418 69.458 225.376 69.5939 225.361 69.7341C225.346 69.8744 225.359 70.0161 225.399 70.1514C225.439 70.2866 225.505 70.4126 225.594 70.5223C225.683 70.6319 225.792 70.723 225.916 70.7904C226.04 70.8578 226.176 70.9002 226.316 70.915C226.456 70.9299 226.598 70.917 226.733 70.877C226.868 70.8371 226.994 70.7709 227.104 70.6823C227.514 70.3923 227.614 70.0623 227.664 70.0723Z" fill="#263238"/>
<path d="M248.614 186.502C248.614 186.582 248.014 186.672 247.674 187.502C247.575 187.712 247.524 187.941 247.524 188.172C247.524 188.404 247.575 188.633 247.674 188.842C247.822 189.075 248.036 189.258 248.29 189.365C248.544 189.472 248.825 189.499 249.094 189.442C249.365 189.414 249.621 189.302 249.827 189.123C250.032 188.945 250.178 188.707 250.244 188.442C250.276 188.212 250.255 187.977 250.184 187.756C250.113 187.534 249.994 187.332 249.834 187.162C249.264 186.522 248.624 186.632 248.634 186.542C248.644 186.452 248.764 186.442 249.044 186.442C249.438 186.464 249.812 186.627 250.094 186.902C250.319 187.102 250.492 187.352 250.602 187.632C250.711 187.912 250.753 188.213 250.724 188.512C250.64 188.88 250.448 189.214 250.173 189.472C249.898 189.73 249.553 189.901 249.181 189.962C248.809 190.023 248.427 189.972 248.084 189.815C247.741 189.659 247.452 189.404 247.254 189.082C247.13 188.808 247.073 188.508 247.087 188.208C247.101 187.907 247.186 187.614 247.334 187.352C247.52 187.005 247.82 186.733 248.184 186.582C248.424 186.442 248.614 186.472 248.614 186.502Z" fill="#455A64"/>
<path opacity="0.3" d="M229.274 118.172L217.444 156.752L217.614 139.222L229.274 118.172Z" fill="black"/>
<path opacity="0.3" d="M267.124 119.842C267.124 119.842 281.124 127.612 285.344 123.722L283.054 130.302L267.374 122.472L267.124 119.842Z" fill="black"/>
<path d="M210.094 139.272C209.789 139.691 209.454 140.089 209.094 140.462C208.248 141.562 207.457 142.703 206.724 143.882C205.523 145.583 204.112 147.125 202.524 148.472C200.591 150.193 198.195 151.309 195.634 151.682C193.041 151.932 190.44 151.286 188.264 149.852C186.507 148.707 185.011 147.205 183.874 145.442C183.105 144.273 182.468 143.022 181.974 141.712C181.795 141.228 181.674 140.725 181.614 140.212C181.614 140.212 181.844 140.702 182.244 141.602C182.803 142.859 183.472 144.064 184.244 145.202C185.39 146.889 186.871 148.322 188.594 149.412C190.666 150.784 193.139 151.418 195.614 151.212C198.077 150.845 200.384 149.784 202.264 148.152C203.833 146.841 205.242 145.351 206.464 143.712C207.23 142.548 208.072 141.435 208.984 140.382C209.314 140.022 209.584 139.752 209.774 139.572C209.964 139.392 210.084 139.262 210.094 139.272Z" fill="#EB996E"/>
</svg>
